{"glyphs":{"0":{"ha":694,"x_min":57,"x_max":639,"o":"m 185 447 q 198 249 185 326 q 234 125 211 171 q 287 62 257 79 q 349 44 317 44 q 408 63 379 44 q 460 126 438 81 q 497 249 483 171 q 510 447 510 326 q 497 647 510 568 q 460 771 483 725 q 408 835 438 817 q 349 853 379 853 q 287 835 317 853 q 234 772 257 818 q 198 648 211 726 q 185 447 185 569 m 349 915 q 456 890 403 915 q 549 810 508 865 q 614 666 589 756 q 639 447 639 576 q 614 230 639 318 q 549 86 589 142 q 456 6 508 31 q 349 -18 403 -18 q 240 6 293 -18 q 147 86 188 31 q 82 230 107 142 q 57 447 57 318 q 82 666 57 576 q 147 810 107 756 q 240 890 188 865 q 349 915 293 915 z "},"1":{"ha":694,"x_min":103,"x_max":618,"o":"m 118 835 l 404 908 l 424 894 l 418 696 l 418 293 q 419 188 418 240 q 421 83 419 136 l 618 50 l 618 0 l 103 0 l 103 50 l 299 83 q 301 188 300 136 q 301 293 301 240 l 301 793 l 118 778 l 118 835 z "},"2":{"ha":694,"x_min":61,"x_max":639,"o":"m 68 0 l 68 90 q 176 198 124 144 q 272 299 228 251 q 425 497 376 408 q 474 667 474 585 q 428 803 474 753 q 307 853 383 853 q 276 851 293 853 q 239 846 258 850 l 213 750 q 180 677 199 699 q 132 656 161 656 q 61 700 86 656 q 92 796 67 756 q 155 863 117 836 q 241 902 193 889 q 342 915 289 915 q 457 898 408 915 q 537 849 506 881 q 583 774 568 818 q 599 679 599 731 q 585 590 599 633 q 541 499 572 547 q 457 392 510 451 q 324 257 404 333 q 256 192 296 229 q 174 114 217 154 l 639 114 l 639 0 l 68 0 z "},"3":{"ha":694,"x_min":61,"x_max":639,"o":"m 236 507 l 292 507 q 438 556 386 507 q 490 693 490 604 q 447 811 490 769 q 321 853 403 853 q 292 851 307 853 q 257 847 276 850 l 238 775 q 209 708 226 731 q 156 686 192 686 q 114 697 132 686 q 86 738 96 708 q 119 815 96 782 q 177 871 143 849 q 253 904 211 893 q 344 915 296 915 q 455 899 406 915 q 539 855 504 883 q 592 786 574 826 q 611 697 611 746 q 564 563 611 622 q 429 474 517 504 q 588 394 538 453 q 639 247 639 335 q 617 142 639 190 q 553 58 594 94 q 456 2 513 22 q 328 -18 399 -18 q 153 28 225 -18 q 61 179 81 75 q 132 225 85 225 q 183 201 168 225 q 214 125 199 178 l 232 53 q 275 46 256 47 q 310 44 294 44 q 464 97 413 44 q 515 244 515 150 q 463 387 515 336 q 303 438 410 438 l 236 438 l 236 507 z "},"4":{"ha":694,"x_min":33,"x_max":672,"o":"m 672 268 l 526 268 l 526 0 l 411 0 l 411 268 l 33 268 l 33 342 l 446 908 l 526 908 l 526 356 l 672 356 l 672 268 m 411 356 l 411 763 l 118 356 l 411 356 z "},"5":{"ha":694,"x_min":53,"x_max":636,"o":"m 313 -18 q 140 31 206 -18 q 53 178 75 79 q 81 213 63 201 q 124 225 100 225 q 172 206 156 225 q 204 131 189 186 l 224 56 q 264 47 244 49 q 303 44 283 44 q 458 105 406 44 q 511 265 511 165 q 453 424 511 369 q 294 479 394 479 q 167 464 235 479 l 128 475 l 157 897 l 611 897 l 611 783 l 218 783 l 201 547 q 332 564 264 564 q 456 545 400 564 q 551 490 511 526 q 614 401 592 454 q 636 279 636 349 q 613 158 636 213 q 547 64 590 103 q 444 3 504 25 q 313 -18 385 -18 z "},"6":{"ha":694,"x_min":56,"x_max":640,"o":"m 357 -18 q 135 85 215 -18 q 56 376 56 188 q 90 569 56 478 q 192 733 125 661 q 359 853 260 806 q 588 915 458 900 l 596 871 q 296 722 394 822 q 183 460 197 621 q 280 528 228 504 q 386 551 332 551 q 490 533 443 551 q 569 478 536 514 q 622 393 603 443 q 640 281 640 343 q 619 150 640 206 q 559 57 597 94 q 469 1 521 19 q 357 -18 417 -18 m 360 44 q 474 98 432 44 q 517 260 517 151 q 472 418 517 369 q 356 467 428 467 q 267 453 313 467 q 181 403 221 439 l 181 396 q 228 130 181 215 q 360 44 276 44 z "},"7":{"ha":694,"x_min":71,"x_max":644,"o":"m 185 14 l 551 783 l 71 783 l 71 897 l 644 897 l 644 826 l 314 0 l 199 0 l 185 14 z "},"8":{"ha":694,"x_min":61,"x_max":632,"o":"m 61 207 q 111 337 61 282 q 257 440 161 392 q 131 550 169 489 q 92 683 92 611 q 112 781 92 738 q 167 853 132 824 q 250 899 203 883 q 351 915 297 915 q 450 899 406 915 q 526 855 494 883 q 574 788 557 826 q 590 701 590 749 q 583 649 590 676 q 556 594 575 622 q 506 538 538 567 q 426 482 474 510 q 581 371 531 431 q 632 219 632 311 q 610 123 632 167 q 551 48 589 79 q 460 -1 513 17 q 349 -18 408 -18 q 233 -3 286 -18 q 142 39 181 11 q 83 109 104 67 q 61 207 61 151 m 201 714 q 209 660 201 686 q 236 609 217 635 q 289 558 256 583 q 374 507 322 533 q 461 598 436 556 q 486 699 486 640 q 451 807 486 761 q 349 853 415 853 q 245 815 289 853 q 201 714 201 778 m 351 43 q 419 56 389 43 q 470 92 449 69 q 503 144 492 114 q 515 210 515 175 q 505 265 515 240 q 470 315 494 290 q 406 363 446 339 q 308 414 367 386 q 209 329 242 374 q 176 215 176 285 q 225 92 176 140 q 351 43 274 43 z "},"9":{"ha":694,"x_min":40,"x_max":625,"o":"m 119 -28 l 106 25 q 269 95 200 56 q 384 183 338 135 q 457 292 431 232 q 493 425 483 353 q 410 372 457 389 q 310 356 364 356 q 205 374 254 356 q 119 428 156 393 q 62 514 83 464 q 40 628 40 564 q 62 746 40 693 q 122 836 83 799 q 216 894 161 874 q 336 915 271 915 q 458 890 404 915 q 549 817 511 864 q 606 704 586 771 q 625 554 625 638 q 597 363 625 454 q 508 194 568 271 q 351 60 447 118 q 119 -28 254 3 m 164 640 q 178 549 164 588 q 217 487 192 511 q 275 451 242 463 q 347 439 308 439 q 430 453 393 439 q 499 494 467 467 q 500 513 500 504 q 500 531 500 521 q 453 776 500 700 q 329 853 407 853 q 266 840 296 853 q 213 799 236 826 q 177 733 190 772 q 164 640 164 693 z "}," ":{"ha":324,"x_min":0,"x_max":0,"o":""},"A":{"ha":922,"x_min":7,"x_max":907,"o":"m 7 0 l 7 57 l 124 75 l 419 936 l 507 936 l 803 69 l 907 57 l 907 0 l 529 0 l 529 57 l 665 74 l 589 301 l 267 301 l 190 75 l 325 57 l 325 0 l 7 0 m 568 367 l 429 779 l 289 367 l 568 367 z "},"B":{"ha":874,"x_min":61,"x_max":814,"o":"m 192 431 l 192 499 q 192 678 192 589 q 189 857 192 767 l 61 872 l 61 929 l 464 929 q 592 913 536 929 q 688 865 649 896 q 747 794 726 835 q 767 703 767 753 q 755 631 767 665 q 717 568 743 597 q 650 517 690 539 q 551 483 610 496 q 670 452 621 474 q 751 401 719 431 q 799 333 783 371 q 814 254 814 296 q 794 161 814 207 q 728 80 774 115 q 613 22 683 44 q 443 0 543 0 l 61 0 l 61 57 l 189 72 q 192 249 192 160 q 192 431 192 339 m 422 865 l 326 865 q 324 685 324 775 q 324 513 324 596 l 396 513 q 579 555 522 513 q 636 693 636 597 q 583 827 636 789 q 422 865 529 865 m 400 449 l 324 449 q 324 247 324 339 q 326 65 324 154 l 411 65 q 610 114 546 65 q 675 254 675 163 q 610 400 675 351 q 400 449 544 449 z "},"C":{"ha":876,"x_min":65,"x_max":822,"o":"m 543 49 q 626 58 583 49 q 708 86 668 67 l 736 247 l 822 247 l 817 46 q 681 -6 751 10 q 536 -21 611 -21 q 344 15 431 -21 q 195 115 257 50 q 99 269 133 179 q 65 465 65 358 q 101 660 65 571 q 199 813 136 749 q 347 914 261 878 q 535 950 433 950 q 663 937 593 950 q 803 883 732 924 l 808 682 l 722 682 l 694 843 q 622 872 657 864 q 553 881 586 881 q 422 853 483 881 q 315 774 361 826 q 243 644 269 722 q 217 465 217 567 q 241 285 217 363 q 308 155 265 207 q 412 76 351 103 q 543 49 472 49 z "},"D":{"ha":986,"x_min":61,"x_max":921,"o":"m 192 447 l 192 499 q 192 678 192 589 q 189 857 192 767 l 61 872 l 61 929 l 471 929 q 653 899 571 929 q 796 809 736 868 q 888 663 856 750 q 921 464 921 576 q 885 265 921 351 q 785 119 849 178 q 633 31 721 61 q 444 0 546 0 l 61 0 l 61 57 l 189 72 q 192 253 192 161 q 192 447 192 346 m 324 447 q 324 251 324 344 q 326 65 324 157 l 436 65 q 683 169 597 65 q 769 464 769 274 q 685 763 769 661 q 449 865 600 865 l 326 865 q 324 683 324 775 q 324 499 324 592 l 324 447 z "},"E":{"ha":838,"x_min":61,"x_max":790,"o":"m 192 431 l 192 499 q 192 678 192 589 q 189 857 192 767 l 61 872 l 61 929 l 753 929 l 763 683 l 683 683 l 653 860 l 326 860 q 324 682 324 771 q 324 507 324 593 l 528 507 l 547 639 l 611 639 l 611 311 l 547 311 l 529 442 l 324 442 q 324 247 324 338 q 326 69 324 157 l 681 69 l 711 247 l 790 247 l 781 0 l 61 0 l 61 57 l 189 72 q 192 249 192 160 q 192 431 192 339 z "},"F":{"ha":804,"x_min":61,"x_max":763,"o":"m 192 431 l 192 499 q 192 678 192 589 q 189 857 192 767 l 61 872 l 61 929 l 753 929 l 763 683 l 683 683 l 653 860 l 326 860 q 324 682 324 771 q 324 507 324 593 l 539 507 l 558 639 l 622 639 l 622 297 l 558 297 l 539 442 l 324 442 q 324 248 324 338 q 326 72 324 158 l 456 57 l 456 0 l 61 0 l 61 57 l 189 72 q 192 249 192 160 q 192 431 192 339 z "},"G":{"ha":947,"x_min":65,"x_max":926,"o":"m 839 122 l 839 61 q 694 1 767 24 q 533 -21 621 -21 q 342 16 429 -21 q 194 117 256 53 q 99 271 133 182 q 65 465 65 360 q 99 658 65 569 q 196 812 133 747 q 345 913 258 876 q 539 950 432 950 q 692 934 625 950 q 818 885 760 918 l 824 682 l 738 682 l 710 840 q 551 881 638 881 q 418 853 479 881 q 312 772 357 825 q 242 642 267 719 q 217 465 217 565 q 308 158 217 265 q 560 50 400 50 q 637 56 601 50 q 708 78 672 63 l 708 122 q 708 248 708 185 q 706 374 707 311 l 561 386 l 561 442 l 926 442 l 926 386 l 842 378 q 840 251 840 315 q 839 122 839 188 z "},"H":{"ha":1096,"x_min":61,"x_max":1033,"o":"m 192 431 l 192 499 q 192 678 192 589 q 189 857 192 767 l 61 872 l 61 929 l 453 929 l 453 872 l 326 858 q 324 681 324 769 q 324 508 324 592 l 772 508 q 772 686 772 600 q 769 857 772 772 l 642 872 l 642 929 l 1033 929 l 1033 872 l 906 857 q 903 680 903 769 q 903 499 903 590 l 903 431 q 903 251 903 340 q 906 72 903 163 l 1033 57 l 1033 0 l 642 0 l 642 57 l 769 72 q 772 253 772 161 q 772 443 772 346 l 324 443 q 324 247 324 336 q 326 71 324 157 l 453 57 l 453 0 l 61 0 l 61 57 l 189 72 q 192 249 192 160 q 192 431 192 339 z "},"I":{"ha":515,"x_min":61,"x_max":454,"o":"m 192 431 l 192 499 q 192 678 192 589 q 189 857 192 767 l 61 872 l 61 929 l 454 929 l 454 872 l 326 857 q 324 680 324 769 q 324 499 324 590 l 324 431 q 324 251 324 340 q 326 72 324 163 l 454 57 l 454 0 l 61 0 l 61 57 l 189 72 q 192 249 192 160 q 192 431 192 339 z "},"J":{"ha":519,"x_min":-60,"x_max":472,"o":"m 65 872 l 65 929 l 472 929 l 472 872 l 344 857 q 342 681 342 769 q 342 500 342 592 l 342 283 q 341 179 342 224 q 338 99 340 135 q 332 35 336 64 q 322 -19 328 7 q 285 -110 311 -72 q 224 -175 260 -149 q 147 -214 189 -201 q 61 -226 104 -226 q -14 -212 21 -226 q -60 -158 -49 -199 q -30 -104 -53 -119 q 26 -89 -7 -89 q 76 -99 53 -89 q 131 -132 100 -108 l 165 -160 q 208 -91 196 -131 q 219 10 219 -51 q 218 90 219 40 q 215 231 217 139 q 211 474 214 324 q 207 857 208 624 l 65 872 z "},"K":{"ha":926,"x_min":61,"x_max":919,"o":"m 192 431 l 192 499 q 192 678 192 589 q 189 857 192 767 l 61 872 l 61 929 l 453 929 l 453 872 l 321 857 q 318 679 318 768 q 318 499 318 590 l 318 411 l 679 853 l 579 872 l 579 929 l 899 929 l 899 872 l 764 854 l 532 575 l 813 71 l 919 57 l 919 0 l 563 0 l 563 57 l 676 71 l 456 483 l 318 318 q 318 199 318 261 q 321 72 318 138 l 453 57 l 453 0 l 61 0 l 61 57 l 189 72 q 192 249 192 160 q 192 431 192 339 z "},"L":{"ha":828,"x_min":61,"x_max":767,"o":"m 192 499 q 192 680 192 590 q 189 857 192 769 l 61 872 l 61 929 l 454 929 l 454 872 l 326 857 q 324 678 324 767 q 324 499 324 589 l 324 403 q 324 243 324 328 q 326 69 324 158 l 642 69 l 682 261 l 767 261 l 753 0 l 61 0 l 61 57 l 189 72 q 192 251 192 163 q 192 429 192 340 l 192 499 z "},"M":{"ha":1253,"x_min":54,"x_max":1190,"o":"m 54 0 l 54 57 l 179 75 l 179 857 l 54 872 l 54 929 l 311 929 l 622 165 l 917 929 l 1190 929 l 1190 872 l 1063 857 q 1060 680 1060 769 q 1060 499 1060 590 l 1060 431 q 1060 251 1060 340 q 1063 72 1060 163 l 1190 57 l 1190 0 l 813 0 l 813 57 l 929 72 q 932 249 932 160 q 932 429 932 339 l 932 775 l 631 0 l 561 0 l 243 775 q 246 685 244 731 q 249 601 247 639 q 251 539 250 564 q 251 513 251 514 l 251 75 l 365 57 l 365 0 l 54 0 z "},"N":{"ha":1021,"x_min":54,"x_max":965,"o":"m 54 0 l 54 57 l 172 74 l 172 844 l 161 861 l 61 872 l 61 929 l 275 929 l 776 240 l 776 854 l 631 872 l 631 929 l 965 929 l 965 872 l 847 854 l 847 -10 l 799 -10 l 243 747 l 243 76 l 390 57 l 390 0 l 54 0 z "},"O":{"ha":982,"x_min":65,"x_max":917,"o":"m 217 465 q 233 311 217 386 q 282 178 249 236 q 367 84 315 119 q 492 49 419 49 q 615 84 564 49 q 700 178 667 119 q 749 311 733 236 q 764 465 764 386 q 749 618 764 543 q 700 751 733 693 q 615 845 667 810 q 492 881 564 881 q 367 845 419 881 q 282 751 315 810 q 233 618 249 693 q 217 465 217 543 m 492 950 q 649 919 572 950 q 785 826 725 888 q 881 674 844 765 q 917 465 917 583 q 881 260 917 350 q 785 107 844 169 q 649 12 725 44 q 492 -21 572 -21 q 333 10 410 -21 q 197 103 257 42 q 101 255 138 164 q 65 465 65 346 q 101 669 65 579 q 197 822 138 760 q 334 917 257 885 q 492 950 411 950 z "},"P":{"ha":818,"x_min":61,"x_max":788,"o":"m 192 431 l 192 499 q 192 678 192 589 q 189 857 192 767 l 61 872 l 61 929 l 435 929 q 589 909 522 929 q 699 852 656 889 q 765 765 743 815 q 788 653 788 714 q 767 542 788 594 q 699 451 746 490 q 577 390 651 413 q 396 367 503 367 l 324 367 q 324 219 324 292 q 326 72 324 147 l 456 57 l 456 0 l 61 0 l 61 57 l 189 72 q 192 249 192 160 q 192 431 192 339 m 324 499 l 324 432 l 415 432 q 523 448 478 432 q 596 493 568 464 q 637 563 624 522 q 650 653 650 604 q 593 810 650 754 q 410 865 536 865 l 326 865 q 324 683 324 775 q 324 499 324 592 z "},"Q":{"ha":982,"x_min":65,"x_max":917,"o":"m 694 -300 q 577 -276 628 -300 q 491 -213 526 -253 q 438 -122 456 -174 q 419 -14 419 -71 q 285 35 349 -1 q 172 131 221 71 q 94 276 122 192 q 65 465 65 360 q 101 669 65 579 q 197 822 138 760 q 334 917 257 885 q 492 950 411 950 q 649 919 572 950 q 785 826 725 888 q 881 674 844 765 q 917 465 917 583 q 887 277 917 361 q 806 131 857 193 q 689 32 756 69 q 550 -17 622 -6 q 603 -169 553 -117 q 742 -222 654 -222 q 790 -219 763 -222 q 850 -206 817 -215 l 865 -256 q 783 -290 829 -279 q 694 -300 738 -300 m 217 465 q 233 311 217 386 q 282 178 249 236 q 367 84 315 119 q 492 49 419 49 q 615 84 564 49 q 700 178 667 119 q 749 311 733 236 q 764 465 764 386 q 749 618 764 543 q 700 751 733 693 q 615 845 667 810 q 492 881 564 881 q 367 845 419 881 q 282 751 315 810 q 233 618 249 693 q 217 465 217 543 z "},"R":{"ha":904,"x_min":61,"x_max":885,"o":"m 192 431 l 192 499 q 192 678 192 589 q 189 857 192 767 l 61 872 l 61 929 l 450 929 q 699 865 610 929 q 788 686 788 801 q 773 608 788 646 q 729 538 758 569 q 656 484 700 507 q 554 451 613 461 q 656 399 617 439 q 718 275 694 358 l 778 69 l 885 57 l 885 0 q 838 -10 864 -7 q 781 -14 813 -14 q 682 6 714 -14 q 638 75 650 25 l 582 297 q 557 365 572 339 q 519 406 542 392 q 465 426 496 421 q 392 431 433 431 l 324 431 q 324 243 324 331 q 326 72 324 156 l 454 57 l 454 0 l 61 0 l 61 57 l 189 72 q 192 249 192 160 q 192 431 192 339 m 446 865 l 326 865 q 324 683 324 774 q 324 493 324 593 l 431 493 q 597 547 543 493 q 650 685 650 601 q 602 819 650 772 q 446 865 554 865 z "},"S":{"ha":711,"x_min":56,"x_max":656,"o":"m 322 49 q 479 92 421 49 q 538 217 538 136 q 527 275 538 250 q 496 320 517 300 q 443 358 475 340 q 367 392 411 375 l 313 414 q 215 461 258 435 q 140 522 171 488 q 91 598 108 556 q 74 693 74 640 q 97 801 74 753 q 163 882 121 849 q 263 933 206 915 q 386 950 319 950 q 513 931 457 950 q 614 878 569 911 l 606 696 l 521 696 l 492 853 q 378 881 440 881 q 244 841 299 881 q 190 724 190 801 q 231 617 190 658 q 347 547 272 576 l 403 526 q 597 408 539 474 q 656 243 656 342 q 631 133 656 182 q 563 49 607 83 q 459 -3 519 15 q 326 -21 399 -21 q 176 0 247 -21 q 56 53 104 21 l 64 247 l 150 247 l 178 83 q 244 57 210 65 q 322 49 278 49 z "},"T":{"ha":839,"x_min":28,"x_max":811,"o":"m 354 431 l 354 499 q 354 678 354 589 q 351 860 354 768 l 139 860 l 108 682 l 28 682 l 39 929 l 800 929 l 811 682 l 731 682 l 700 860 l 488 860 q 485 681 485 771 q 485 499 485 590 l 485 431 q 485 251 485 340 q 488 72 485 163 l 629 57 l 629 0 l 210 0 l 210 57 l 351 72 q 354 250 354 161 q 354 431 354 339 z "},"U":{"ha":1010,"x_min":54,"x_max":963,"o":"m 303 390 q 319 242 303 301 q 365 145 335 182 q 438 93 394 108 q 533 78 481 78 q 636 96 592 78 q 710 153 681 114 q 756 258 740 193 q 771 414 771 322 l 771 854 l 629 872 l 629 929 l 963 929 l 963 872 l 842 857 l 842 381 q 817 194 842 271 q 747 70 792 118 q 642 1 703 22 q 510 -21 581 -21 q 372 1 435 -21 q 265 67 310 22 q 197 183 221 113 q 172 350 172 253 l 172 500 q 172 679 172 590 q 169 858 172 768 l 54 872 l 54 929 l 447 929 l 447 872 l 306 856 q 303 680 303 768 q 303 500 303 592 l 303 390 z "},"V":{"ha":936,"x_min":21,"x_max":924,"o":"m 449 -10 l 125 860 l 21 872 l 21 929 l 400 929 l 400 867 l 267 854 l 500 188 l 726 853 l 603 867 l 603 929 l 924 929 l 924 872 l 803 856 l 510 -10 l 449 -10 z "},"W":{"ha":1336,"x_min":21,"x_max":1324,"o":"m 913 -10 l 672 710 l 446 -10 l 386 -10 l 136 858 l 21 872 l 21 929 l 399 929 l 399 872 l 271 857 l 442 219 l 654 856 l 514 872 l 514 929 l 892 929 l 892 872 l 751 856 l 957 213 l 1135 854 l 1008 872 l 1008 929 l 1324 929 l 1324 872 l 1207 856 l 972 -10 l 913 -10 z "},"X":{"ha":900,"x_min":14,"x_max":888,"o":"m 14 0 l 14 57 l 146 74 l 394 450 l 149 858 l 26 872 l 26 929 l 417 929 l 417 872 l 294 858 l 472 561 l 657 856 l 539 872 l 539 929 l 857 929 l 857 872 l 735 857 l 507 504 l 768 71 l 888 57 l 888 0 l 494 0 l 494 57 l 622 72 l 428 394 l 224 72 l 332 57 l 332 0 l 14 0 z "},"Y":{"ha":879,"x_min":21,"x_max":865,"o":"m 651 0 l 232 0 l 232 57 l 374 72 q 376 208 376 138 q 376 360 376 279 l 131 860 l 21 872 l 21 929 l 413 929 l 413 872 l 281 857 l 474 436 l 672 856 l 547 872 l 547 929 l 865 929 l 865 872 l 743 854 l 507 365 q 507 211 507 283 q 510 72 507 139 l 651 57 l 651 0 z "},"Z":{"ha":765,"x_min":28,"x_max":738,"o":"m 653 247 l 738 247 l 726 0 l 28 0 l 28 50 l 554 860 l 164 860 l 126 682 l 42 682 l 53 929 l 707 929 l 707 881 l 182 69 l 615 69 l 653 247 z "},"a":{"ha":707,"x_min":63,"x_max":699,"o":"m 297 74 q 330 77 315 74 q 361 89 344 81 q 399 111 378 97 q 450 146 421 125 l 450 360 q 379 338 414 349 q 322 318 344 326 q 250 282 276 300 q 209 245 224 264 q 190 209 194 226 q 186 176 186 192 q 217 97 186 121 q 297 74 249 74 m 578 -14 q 494 15 528 -14 q 453 93 461 44 q 400 44 424 65 q 353 10 376 24 q 304 -11 329 -4 q 249 -18 279 -18 q 177 -7 211 -18 q 117 26 143 4 q 77 80 92 47 q 63 156 63 113 q 72 212 63 185 q 108 265 82 239 q 178 315 133 290 q 293 365 222 340 q 367 389 325 376 q 450 411 408 401 l 450 446 q 442 528 450 496 q 419 580 435 561 q 378 606 403 599 q 319 614 354 614 q 285 613 304 614 q 244 606 267 611 l 218 515 q 146 449 199 449 q 81 506 88 449 q 172 631 100 585 q 351 678 244 678 q 514 623 461 678 q 567 436 567 568 l 567 140 q 580 77 567 96 q 617 58 593 58 q 647 67 635 58 q 671 89 660 75 l 699 58 q 644 2 674 18 q 578 -14 614 -14 z "},"b":{"ha":801,"x_min":35,"x_max":739,"o":"m 42 0 l 42 50 l 146 69 q 148 184 147 122 q 149 292 149 246 l 149 901 l 35 915 l 35 964 l 247 1026 l 267 1015 l 261 818 l 261 571 q 364 652 311 626 q 475 678 417 678 q 578 655 531 678 q 662 588 626 632 q 718 481 697 544 q 739 336 739 417 q 717 190 739 256 q 657 78 696 125 q 566 7 618 32 q 453 -18 514 -18 q 355 2 404 -18 q 261 79 306 22 l 250 -14 l 42 0 m 431 61 q 501 77 468 61 q 560 126 535 93 q 599 208 585 158 q 614 325 614 258 q 565 529 614 460 q 438 599 517 599 q 364 582 406 599 q 265 518 322 565 l 265 138 q 350 79 308 97 q 431 61 392 61 z "},"c":{"ha":678,"x_min":58,"x_max":629,"o":"m 385 614 q 238 545 296 614 q 181 342 181 476 q 242 141 181 210 q 403 72 304 72 q 513 99 463 72 q 594 178 563 126 l 629 160 q 535 27 600 72 q 371 -18 469 -18 q 242 6 300 -18 q 143 74 183 29 q 81 183 103 119 q 58 328 58 247 q 85 475 58 410 q 156 585 111 540 q 259 654 201 631 q 379 678 317 678 q 468 664 426 678 q 542 626 510 650 q 597 569 575 601 q 625 497 618 536 q 561 444 615 444 q 508 463 525 444 q 485 511 492 482 l 460 603 q 422 612 440 610 q 385 614 403 614 z "},"d":{"ha":788,"x_min":63,"x_max":765,"o":"m 188 326 q 242 126 188 190 q 381 61 297 61 q 462 79 426 61 q 536 142 497 97 l 536 526 q 451 583 488 568 q 379 599 414 599 q 306 583 340 599 q 244 533 271 567 q 203 449 218 500 q 188 326 188 397 m 550 -14 l 540 83 q 458 8 504 35 q 346 -18 411 -18 q 230 7 282 -18 q 140 77 178 32 q 83 185 103 122 q 63 324 63 247 q 85 468 63 403 q 147 580 107 533 q 240 652 186 626 q 358 678 294 678 q 453 658 408 678 q 540 588 497 638 l 540 901 l 422 915 l 422 964 l 639 1026 l 658 1015 l 653 818 l 653 68 l 765 50 l 765 0 l 550 -14 z "},"e":{"ha":708,"x_min":63,"x_max":640,"o":"m 382 678 q 483 660 436 678 q 565 608 531 642 q 620 524 600 574 q 640 411 640 474 q 638 367 640 388 q 631 333 635 347 l 188 333 q 251 138 190 204 q 413 72 313 72 q 524 99 479 72 q 606 169 568 125 l 639 143 q 534 25 600 68 q 372 -18 468 -18 q 244 6 301 -18 q 147 73 188 29 q 85 181 107 117 q 63 324 63 244 q 88 468 63 403 q 158 580 114 533 q 259 652 201 626 q 382 678 317 678 m 374 614 q 315 602 344 614 q 259 563 285 590 q 215 494 233 536 q 190 392 196 451 l 443 392 q 509 413 493 392 q 525 464 525 433 q 513 520 525 493 q 481 568 501 547 q 433 601 461 589 q 374 614 406 614 z "},"f":{"ha":492,"x_min":47,"x_max":592,"o":"m 163 292 l 163 586 l 47 586 l 47 647 l 164 663 q 177 762 169 718 q 196 841 185 806 q 224 904 207 876 q 263 956 240 932 q 359 1022 308 1004 q 458 1040 410 1040 q 544 1023 507 1040 q 592 965 581 1006 q 567 920 589 938 q 507 903 546 903 q 407 944 457 903 l 368 975 q 321 922 339 953 q 288 822 300 885 q 278 660 275 760 l 469 660 l 469 586 l 281 586 l 281 292 q 281 181 281 236 q 283 71 282 126 l 408 50 l 408 0 l 50 0 l 50 50 l 160 69 q 162 181 161 125 q 163 292 163 236 z "},"g":{"ha":719,"x_min":50,"x_max":688,"o":"m 343 -268 q 517 -227 457 -268 q 576 -128 576 -186 q 544 -51 576 -82 q 438 -19 513 -19 l 275 -19 q 246 -19 260 -19 q 218 -17 232 -18 q 176 -78 189 -49 q 164 -142 164 -107 q 212 -239 164 -210 q 343 -268 260 -268 m 82 450 q 101 547 82 504 q 153 618 119 589 q 233 663 188 647 q 333 678 279 678 q 510 624 443 678 l 667 678 l 688 664 l 688 576 l 551 576 q 583 450 583 525 q 565 353 583 396 q 512 282 546 311 q 432 238 478 253 q 332 222 386 222 q 229 238 278 222 q 194 149 194 193 q 210 104 194 121 q 275 88 226 88 l 457 88 q 626 40 572 88 q 681 -92 681 -7 q 659 -181 681 -137 q 594 -257 638 -224 q 487 -311 551 -290 q 338 -332 422 -332 q 118 -285 186 -332 q 50 -164 50 -239 q 79 -81 50 -119 q 186 -6 108 -43 q 94 100 94 19 q 115 169 94 132 q 189 254 136 206 q 110 331 139 282 q 82 450 82 379 m 335 621 q 231 573 268 621 q 194 449 194 525 q 229 325 194 372 q 329 278 264 278 q 433 327 396 278 q 471 454 471 376 q 435 575 471 529 q 335 621 400 621 z "},"h":{"ha":835,"x_min":35,"x_max":793,"o":"m 515 678 q 649 618 606 678 q 693 421 693 558 l 693 292 q 694 183 693 243 q 696 69 694 122 l 793 50 l 793 0 l 471 0 l 471 50 l 572 68 q 574 182 574 121 q 575 292 575 243 l 575 410 q 549 542 575 506 q 461 578 522 578 q 364 557 410 578 q 265 488 318 536 l 265 292 q 266 184 265 246 q 268 69 267 122 l 364 50 l 364 0 l 42 0 l 42 50 l 146 69 q 148 184 147 122 q 149 292 149 246 l 149 901 l 35 915 l 35 964 l 247 1026 l 267 1015 l 261 818 l 261 549 q 381 642 313 607 q 515 678 449 678 z "},"i":{"ha":414,"x_min":40,"x_max":371,"o":"m 213 831 q 146 856 172 831 q 119 919 119 881 q 146 984 119 960 q 213 1008 172 1008 q 278 984 251 1008 q 306 919 306 960 q 278 856 306 881 q 213 831 251 831 m 371 0 l 49 0 l 49 50 l 153 69 q 155 184 154 122 q 156 292 156 246 l 156 357 q 154 452 156 414 q 151 532 153 490 l 40 544 l 40 593 l 254 678 l 275 664 l 271 475 l 271 292 q 272 184 271 246 q 274 69 272 122 l 371 50 l 371 0 z "},"j":{"ha":385,"x_min":-115,"x_max":306,"o":"m 211 831 q 145 856 172 831 q 118 919 118 881 q 145 984 118 960 q 211 1008 172 1008 q 278 984 251 1008 q 306 919 306 960 q 278 856 306 881 q 211 831 251 831 m 154 142 l 154 357 q 153 452 154 414 q 150 532 151 490 l 40 544 l 40 593 l 250 678 l 271 664 l 267 475 l 267 139 q 264 -9 267 54 q 253 -120 261 -72 q 228 -203 244 -168 q 185 -268 211 -239 q 110 -325 150 -304 q 8 -346 71 -346 q -84 -320 -54 -346 q -115 -267 -114 -294 q -33 -210 -97 -210 q 19 -220 -6 -210 q 71 -251 43 -231 l 103 -276 q 115 -260 110 -269 q 125 -239 121 -251 q 139 -183 133 -217 q 148 -104 144 -150 q 153 3 151 -58 q 154 142 154 64 z "},"k":{"ha":760,"x_min":35,"x_max":760,"o":"m 35 964 l 251 1026 l 271 1015 l 265 818 l 265 333 l 503 581 l 401 606 l 401 660 l 724 660 l 724 606 l 593 586 l 440 429 l 668 67 l 760 50 l 760 0 l 571 0 l 357 344 l 265 250 q 266 160 265 206 q 268 69 267 114 l 379 50 l 379 0 l 35 0 l 35 50 l 146 69 q 148 181 147 125 q 149 292 149 238 l 149 901 l 35 915 l 35 964 z "},"l":{"ha":414,"x_min":35,"x_max":379,"o":"m 35 964 l 251 1026 l 271 1015 l 265 818 l 265 292 q 266 181 265 236 q 268 69 267 125 l 379 50 l 379 0 l 35 0 l 35 50 l 146 69 q 148 181 147 126 q 149 292 149 236 l 149 901 l 35 915 l 35 964 z "},"m":{"ha":1251,"x_min":47,"x_max":1211,"o":"m 517 678 q 624 647 583 678 q 681 547 664 617 q 801 646 735 614 q 933 678 867 678 q 1065 621 1018 678 q 1111 435 1111 564 l 1111 292 q 1112 183 1111 243 q 1114 69 1113 122 l 1211 50 l 1211 0 l 889 0 l 889 50 l 992 69 q 994 182 993 121 q 994 292 994 243 l 994 413 q 988 493 994 461 q 966 544 981 525 q 930 570 951 563 q 878 578 908 578 q 789 558 833 578 q 692 490 744 539 q 694 458 693 475 q 694 421 694 440 l 694 292 q 695 183 694 243 q 697 69 696 122 l 794 50 l 794 0 l 472 0 l 472 50 l 575 69 q 577 182 576 121 q 578 292 578 243 l 578 410 q 551 541 578 504 q 464 578 525 578 q 373 558 415 578 q 279 494 331 539 l 279 292 q 280 184 279 246 q 282 69 281 122 l 378 50 l 378 0 l 56 0 l 56 50 l 158 69 q 160 183 160 122 q 161 292 161 244 l 161 358 q 160 453 161 415 q 157 532 158 490 l 47 544 l 47 593 l 242 678 l 263 664 l 274 553 q 388 643 324 608 q 517 678 453 678 z "},"n":{"ha":842,"x_min":47,"x_max":800,"o":"m 522 678 q 656 618 613 678 q 700 421 700 558 l 700 292 q 701 183 700 243 q 703 69 701 122 l 800 50 l 800 0 l 478 0 l 478 50 l 581 69 q 583 182 582 121 q 583 292 583 243 l 583 410 q 557 542 583 506 q 468 578 531 578 q 376 558 419 578 q 279 494 332 539 l 279 292 q 280 184 279 246 q 282 69 281 122 l 378 50 l 378 0 l 56 0 l 56 50 l 158 69 q 160 183 160 122 q 161 292 161 244 l 161 358 q 160 453 161 415 q 157 532 158 490 l 47 544 l 47 593 l 242 678 l 263 664 l 274 551 q 391 643 325 608 q 522 678 457 678 z "},"o":{"ha":763,"x_min":63,"x_max":700,"o":"m 381 -18 q 263 3 319 -18 q 161 68 206 25 q 90 176 117 111 q 63 326 63 240 q 90 478 63 413 q 161 589 117 544 q 263 656 206 633 q 381 678 319 678 q 498 656 440 678 q 600 589 556 633 q 672 478 644 544 q 700 326 700 413 q 673 176 700 240 q 601 68 646 111 q 498 3 556 25 q 381 -18 440 -18 m 381 44 q 519 115 471 44 q 568 326 568 186 q 519 541 568 468 q 381 614 471 614 q 242 541 289 614 q 194 326 194 468 q 242 115 194 186 q 381 44 289 44 z "},"p":{"ha":810,"x_min":49,"x_max":747,"o":"m 622 321 q 574 527 622 456 q 449 599 525 599 q 375 583 417 599 q 281 522 333 567 l 281 132 q 357 78 319 94 q 433 61 394 61 q 507 76 472 61 q 567 124 542 92 q 608 205 593 156 q 622 321 622 254 m 163 -39 l 163 358 q 161 453 163 415 q 158 532 160 490 l 49 544 l 49 593 l 243 678 l 264 664 l 272 575 q 374 653 321 628 q 482 678 426 678 q 586 654 538 678 q 670 585 635 631 q 726 476 706 540 q 747 332 747 413 q 726 187 747 251 q 665 76 704 122 q 574 6 626 31 q 461 -18 522 -18 q 367 1 413 -18 q 276 74 321 21 l 276 -37 q 277 -149 276 -93 q 279 -262 278 -204 l 406 -283 l 406 -332 l 49 -332 l 49 -283 l 160 -264 q 162 -151 161 -206 q 163 -39 163 -96 z "},"q":{"ha":774,"x_min":63,"x_max":772,"o":"m 188 325 q 242 125 188 189 q 381 61 297 61 q 464 81 426 61 q 542 149 501 101 l 542 522 q 453 583 492 567 q 379 599 415 599 q 306 583 340 599 q 244 533 271 567 q 203 447 218 499 q 188 325 188 396 m 658 -37 q 659 -150 658 -94 q 661 -264 660 -206 l 772 -283 l 772 -332 l 415 -332 l 415 -283 l 543 -262 q 545 -149 544 -206 q 546 -37 546 -93 l 546 92 q 457 8 506 33 q 346 -18 408 -18 q 230 6 282 -18 q 140 76 178 31 q 83 183 103 121 q 63 322 63 246 q 85 467 63 401 q 147 580 107 533 q 239 652 186 626 q 354 678 292 678 q 452 657 404 678 q 546 582 500 636 l 640 678 l 663 664 l 658 476 l 658 -37 z "},"r":{"ha":588,"x_min":47,"x_max":578,"o":"m 58 0 l 58 50 l 158 68 q 160 183 160 121 q 161 292 161 244 l 161 358 q 160 453 161 415 q 157 532 158 490 l 47 544 l 47 593 l 242 678 l 263 664 l 278 500 q 367 631 313 583 q 478 678 421 678 q 538 664 510 678 q 578 626 565 650 q 496 525 578 525 q 451 534 472 525 q 411 560 431 543 l 394 575 q 325 499 353 543 q 279 396 297 456 l 279 292 q 280 185 279 246 q 282 71 281 124 l 396 50 l 396 0 l 58 0 z "},"s":{"ha":603,"x_min":65,"x_max":549,"o":"m 278 -18 q 171 -5 219 -18 q 71 35 122 8 l 65 188 l 142 188 l 168 67 q 281 44 217 44 q 398 74 360 44 q 436 150 436 103 q 405 221 436 194 q 307 271 374 247 l 243 294 q 121 367 167 322 q 75 482 75 411 q 91 555 75 519 q 138 617 107 590 q 213 661 168 644 q 317 678 258 678 q 420 663 374 678 q 511 621 467 649 l 506 479 l 433 479 l 411 590 q 315 614 364 614 q 219 588 251 614 q 186 519 186 563 q 193 480 186 496 q 215 450 200 464 q 253 424 229 436 q 314 400 278 413 l 357 385 q 505 297 461 346 q 549 181 549 247 q 531 105 549 140 q 480 42 514 69 q 395 -2 446 14 q 278 -18 344 -18 z "},"t":{"ha":451,"x_min":13,"x_max":449,"o":"m 246 156 q 266 78 246 103 q 322 54 286 54 q 367 63 346 54 q 415 92 389 72 l 449 56 q 379 1 421 19 q 285 -18 338 -18 q 169 20 211 -18 q 126 140 126 58 q 127 192 126 167 q 128 258 128 218 l 128 586 l 13 586 l 13 647 l 136 663 l 172 849 l 256 849 l 249 660 l 435 660 l 435 586 l 246 586 l 246 156 z "},"u":{"ha":810,"x_min":35,"x_max":763,"o":"m 763 0 l 569 -11 l 556 113 q 435 13 499 43 q 310 -18 372 -18 q 234 -5 268 -18 q 176 38 200 8 q 141 115 153 68 q 129 232 129 163 l 133 578 l 35 599 l 35 649 l 239 668 l 253 654 l 246 460 l 246 244 q 273 117 246 153 q 357 81 300 81 q 551 171 454 81 l 556 578 l 457 599 l 457 649 l 658 668 l 672 654 l 668 460 l 668 69 l 763 50 l 763 0 z "},"v":{"ha":701,"x_min":0,"x_max":689,"o":"m 388 -8 l 328 -8 l 75 592 l 0 606 l 0 660 l 336 660 l 336 606 l 214 588 l 383 140 l 539 586 l 425 606 l 425 660 l 689 660 l 689 606 l 613 588 l 388 -8 z "},"w":{"ha":1061,"x_min":0,"x_max":1047,"o":"m 718 -8 q 649 169 678 93 q 599 304 621 246 q 563 406 578 363 q 536 485 549 449 l 354 -8 l 303 -8 l 79 592 l 0 606 l 0 660 l 317 660 l 317 606 l 208 589 l 351 163 l 507 589 l 404 606 l 404 660 l 711 660 l 711 606 l 608 588 l 765 167 l 896 586 l 793 606 l 793 660 l 1047 660 l 1047 606 l 972 588 l 769 -8 l 718 -8 z "},"x":{"ha":731,"x_min":14,"x_max":717,"o":"m 292 50 l 292 0 l 14 0 l 14 50 l 103 67 l 306 318 l 119 590 l 24 606 l 24 660 l 333 660 l 333 606 l 249 590 l 382 397 l 531 588 l 439 606 l 439 660 l 699 660 l 699 606 l 617 590 l 418 346 l 611 69 l 717 50 l 717 0 l 378 0 l 378 50 l 476 68 l 340 267 l 188 68 l 292 50 z "},"y":{"ha":711,"x_min":0,"x_max":711,"o":"m 128 -346 q 38 -320 75 -346 q 0 -254 0 -294 q 34 -208 7 -224 q 93 -193 61 -193 q 144 -205 121 -193 q 196 -246 168 -217 l 203 -253 q 278 -162 247 -215 q 328 -53 308 -110 l 333 -36 l 82 599 l 6 610 l 6 660 l 339 660 l 339 608 l 217 594 l 390 121 l 561 593 l 440 610 l 440 660 l 711 660 l 711 610 l 636 594 l 413 4 q 345 -154 378 -87 q 278 -263 313 -221 q 208 -326 244 -306 q 128 -346 171 -346 z "},"z":{"ha":633,"x_min":40,"x_max":599,"o":"m 60 660 l 578 660 l 578 610 l 182 58 l 485 58 l 526 226 l 599 226 l 585 0 l 40 0 l 40 49 l 438 600 l 158 600 l 121 446 l 49 451 l 60 660 z "},"À":{"ha":922,"x_min":7,"x_max":907,"o":"m 7 0 l 7 57 l 124 75 l 419 936 l 507 936 l 803 69 l 907 57 l 907 0 l 529 0 l 529 57 l 665 74 l 589 301 l 267 301 l 190 75 l 325 57 l 325 0 l 7 0 m 568 367 l 429 779 l 289 367 l 568 367 m 551 1035 l 526 1000 q 438 1047 482 1024 q 351 1093 394 1069 q 297 1133 311 1115 q 282 1171 282 1151 q 297 1205 282 1192 q 335 1218 313 1218 q 372 1206 353 1218 q 421 1165 392 1194 q 551 1035 489 1101 z "},"Á":{"ha":922,"x_min":7,"x_max":907,"o":"m 7 0 l 7 57 l 124 75 l 419 936 l 507 936 l 803 69 l 907 57 l 907 0 l 529 0 l 529 57 l 665 74 l 589 301 l 267 301 l 190 75 l 325 57 l 325 0 l 7 0 m 568 367 l 429 779 l 289 367 l 568 367 m 369 1035 q 500 1165 433 1103 q 549 1206 529 1194 q 586 1218 568 1218 q 624 1205 608 1218 q 639 1171 639 1192 q 624 1134 639 1151 q 569 1094 610 1117 q 482 1047 525 1071 q 394 1000 439 1024 l 369 1035 z "},"Â":{"ha":922,"x_min":7,"x_max":907,"o":"m 7 0 l 7 57 l 124 75 l 419 936 l 507 936 l 803 69 l 907 57 l 907 0 l 529 0 l 529 57 l 665 74 l 589 301 l 267 301 l 190 75 l 325 57 l 325 0 l 7 0 m 568 367 l 429 779 l 289 367 l 568 367 m 485 1163 l 667 1003 l 640 968 l 461 1071 l 282 968 l 256 1003 l 438 1163 l 485 1163 z "},"Ã":{"ha":922,"x_min":7,"x_max":907,"o":"m 7 0 l 7 57 l 124 75 l 419 936 l 507 936 l 803 69 l 907 57 l 907 0 l 529 0 l 529 57 l 665 74 l 589 301 l 267 301 l 190 75 l 325 57 l 325 0 l 7 0 m 568 367 l 429 779 l 289 367 l 568 367 m 210 1019 q 257 1150 222 1101 q 356 1199 292 1199 q 419 1185 393 1199 q 468 1151 444 1171 q 518 1108 494 1131 q 574 1085 542 1085 q 631 1115 608 1085 q 668 1196 653 1144 l 710 1182 q 663 1053 696 1101 q 565 1004 629 1004 q 501 1018 526 1004 q 451 1050 475 1032 q 401 1094 425 1072 q 346 1117 378 1117 q 290 1088 313 1117 q 251 1007 267 1058 l 210 1019 z "},"Ä":{"ha":922,"x_min":7,"x_max":907,"o":"m 7 0 l 7 57 l 124 75 l 419 936 l 507 936 l 803 69 l 907 57 l 907 0 l 529 0 l 529 57 l 665 74 l 589 301 l 267 301 l 190 75 l 325 57 l 325 0 l 7 0 m 568 367 l 429 779 l 289 367 l 568 367 m 306 1033 q 249 1055 274 1033 q 225 1110 225 1076 q 249 1165 225 1143 q 306 1186 274 1186 q 362 1165 339 1186 q 385 1110 385 1143 q 362 1055 385 1076 q 306 1033 339 1033 m 615 1033 q 559 1055 582 1033 q 536 1110 536 1076 q 559 1165 536 1143 q 615 1186 582 1186 q 672 1165 647 1186 q 696 1110 696 1143 q 672 1055 696 1076 q 615 1033 647 1033 z "},"Ā":{"ha":922,"x_min":7,"x_max":907,"o":"m 7 0 l 7 57 l 124 75 l 419 936 l 507 936 l 803 69 l 907 57 l 907 0 l 529 0 l 529 57 l 665 74 l 589 301 l 267 301 l 190 75 l 325 57 l 325 0 l 7 0 m 568 367 l 429 779 l 289 367 l 568 367 m 251 1053 l 251 1140 l 671 1140 l 671 1053 l 251 1053 z "},"Ă":{"ha":922,"x_min":7,"x_max":907,"o":"m 7 0 l 7 57 l 124 75 l 419 936 l 507 936 l 803 69 l 907 57 l 907 0 l 529 0 l 529 57 l 665 74 l 589 301 l 267 301 l 190 75 l 325 57 l 325 0 l 7 0 m 568 367 l 429 779 l 289 367 l 568 367 m 265 1178 l 308 1193 q 363 1116 324 1146 q 465 1086 403 1086 q 566 1116 528 1086 q 622 1193 604 1146 l 665 1178 q 647 1115 661 1146 q 608 1058 632 1083 q 548 1017 583 1033 q 465 1001 513 1001 q 383 1017 418 1001 q 323 1058 347 1033 q 284 1115 299 1083 q 265 1178 269 1146 z "},"Ắ":{"ha":922,"x_min":7,"x_max":907,"o":"m 7 0 l 7 57 l 124 75 l 419 936 l 507 936 l 803 69 l 907 57 l 907 0 l 529 0 l 529 57 l 665 74 l 589 301 l 267 301 l 190 75 l 325 57 l 325 0 l 7 0 m 568 367 l 429 779 l 289 367 l 568 367 m 458 1015 q 374 1031 410 1015 q 315 1072 339 1047 q 276 1128 290 1097 q 258 1192 263 1160 l 301 1207 q 358 1128 319 1158 q 458 1099 396 1099 q 561 1128 521 1099 q 617 1206 601 1158 l 658 1192 q 640 1128 654 1160 q 602 1072 626 1097 q 542 1031 578 1047 q 458 1015 506 1015 m 421 1183 l 489 1322 q 553 1382 517 1382 q 586 1369 571 1382 q 601 1338 601 1357 q 595 1306 601 1322 q 565 1267 589 1290 l 457 1156 l 421 1183 z "},"Ặ":{"ha":922,"x_min":7,"x_max":907,"o":"m 7 0 l 7 57 l 124 75 l 419 936 l 507 936 l 803 69 l 907 57 l 907 0 l 529 0 l 529 57 l 665 74 l 589 301 l 267 301 l 190 75 l 325 57 l 325 0 l 7 0 m 568 367 l 429 779 l 289 367 l 568 367 m 265 1178 l 308 1193 q 363 1116 324 1146 q 465 1086 403 1086 q 566 1116 528 1086 q 622 1193 604 1146 l 665 1178 q 647 1115 661 1146 q 608 1058 632 1083 q 548 1017 583 1033 q 465 1001 513 1001 q 383 1017 418 1001 q 323 1058 347 1033 q 284 1115 299 1083 q 265 1178 269 1146 m 457 -282 q 390 -258 417 -282 q 364 -193 364 -233 q 390 -129 364 -154 q 457 -104 417 -104 q 524 -129 497 -104 q 550 -193 550 -154 q 524 -258 550 -233 q 457 -282 497 -282 z "},"Ằ":{"ha":922,"x_min":7,"x_max":907,"o":"m 7 0 l 7 57 l 124 75 l 419 936 l 507 936 l 803 69 l 907 57 l 907 0 l 529 0 l 529 57 l 665 74 l 589 301 l 267 301 l 190 75 l 325 57 l 325 0 l 7 0 m 568 367 l 429 779 l 289 367 l 568 367 m 458 1015 q 374 1031 410 1015 q 315 1072 339 1047 q 276 1128 290 1097 q 258 1192 263 1160 l 300 1206 q 356 1128 315 1158 q 458 1099 396 1099 q 559 1128 521 1099 q 615 1207 597 1158 l 658 1192 q 640 1128 654 1160 q 602 1072 626 1097 q 542 1031 578 1047 q 458 1015 506 1015 m 496 1183 l 460 1156 l 351 1267 q 322 1306 328 1290 q 315 1338 315 1322 q 331 1369 315 1357 q 364 1382 346 1382 q 428 1322 400 1382 l 496 1183 z "},"Ẳ":{"ha":922,"x_min":7,"x_max":907,"o":"m 7 0 l 7 57 l 124 75 l 419 936 l 507 936 l 803 69 l 907 57 l 907 0 l 529 0 l 529 57 l 665 74 l 589 301 l 267 301 l 190 75 l 325 57 l 325 0 l 7 0 m 568 367 l 429 779 l 289 367 l 568 367 m 432 1144 l 419 1188 q 476 1206 460 1196 q 493 1233 493 1217 q 378 1281 493 1271 l 392 1374 q 561 1253 561 1358 q 527 1181 561 1210 q 432 1144 493 1153 m 258 1192 l 301 1207 q 356 1130 317 1160 q 458 1100 396 1100 q 559 1130 521 1100 q 615 1207 597 1160 l 658 1192 q 640 1128 654 1160 q 601 1072 625 1097 q 541 1031 576 1047 q 458 1015 506 1015 q 376 1031 411 1015 q 316 1072 340 1047 q 277 1128 292 1097 q 258 1192 263 1160 z "},"Ẵ":{"ha":922,"x_min":7,"x_max":907,"o":"m 7 0 l 7 57 l 124 75 l 419 936 l 507 936 l 803 69 l 907 57 l 907 0 l 529 0 l 529 57 l 665 74 l 589 301 l 267 301 l 190 75 l 325 57 l 325 0 l 7 0 m 568 367 l 429 779 l 289 367 l 568 367 m 232 1214 q 273 1305 240 1271 q 364 1339 306 1339 q 423 1330 400 1339 q 468 1308 446 1321 q 515 1285 492 1296 q 565 1275 538 1275 q 651 1339 625 1275 l 685 1324 q 643 1233 675 1267 q 553 1200 611 1200 q 493 1209 517 1200 q 449 1231 469 1218 q 403 1253 426 1243 q 351 1264 379 1264 q 265 1200 292 1264 l 232 1214 m 458 1015 q 378 1028 411 1015 q 322 1063 344 1042 q 285 1112 299 1085 q 263 1165 271 1139 l 301 1181 q 360 1121 325 1143 q 458 1099 396 1099 q 557 1121 521 1099 q 617 1179 593 1143 l 654 1165 q 632 1112 646 1139 q 595 1063 618 1085 q 539 1028 572 1042 q 458 1015 506 1015 z "},"Ǎ":{"ha":922,"x_min":7,"x_max":907,"o":"m 7 0 l 7 57 l 124 75 l 419 936 l 507 936 l 803 69 l 907 57 l 907 0 l 529 0 l 529 57 l 665 74 l 589 301 l 267 301 l 190 75 l 325 57 l 325 0 l 7 0 m 568 367 l 429 779 l 289 367 l 568 367 m 299 1206 l 458 1088 l 618 1206 l 651 1176 l 510 1013 l 407 1013 l 265 1176 l 299 1206 z "},"Ấ":{"ha":922,"x_min":7,"x_max":907,"o":"m 7 0 l 7 57 l 124 75 l 419 936 l 507 936 l 803 69 l 907 57 l 907 0 l 529 0 l 529 57 l 665 74 l 589 301 l 267 301 l 190 75 l 325 57 l 325 0 l 7 0 m 568 367 l 429 779 l 289 367 l 568 367 m 279 994 l 253 1029 l 435 1189 l 482 1189 l 664 1029 l 638 994 l 458 1097 l 279 994 m 629 1113 l 600 1143 l 667 1226 q 701 1260 685 1250 q 733 1269 718 1269 q 765 1258 753 1269 q 778 1228 778 1246 q 767 1196 778 1211 q 714 1158 756 1181 l 629 1113 z "},"Ậ":{"ha":922,"x_min":7,"x_max":907,"o":"m 7 0 l 7 57 l 124 75 l 419 936 l 507 936 l 803 69 l 907 57 l 907 0 l 529 0 l 529 57 l 665 74 l 589 301 l 267 301 l 190 75 l 325 57 l 325 0 l 7 0 m 568 367 l 429 779 l 289 367 l 568 367 m 485 1163 l 667 1003 l 640 968 l 461 1071 l 282 968 l 256 1003 l 438 1163 l 485 1163 m 456 -282 q 389 -258 415 -282 q 363 -193 363 -233 q 389 -129 363 -154 q 456 -104 415 -104 q 522 -129 496 -104 q 549 -193 549 -154 q 522 -258 549 -233 q 456 -282 496 -282 z "},"Ầ":{"ha":922,"x_min":7,"x_max":907,"o":"m 7 0 l 7 57 l 124 75 l 419 936 l 507 936 l 803 69 l 907 57 l 907 0 l 529 0 l 529 57 l 665 74 l 589 301 l 267 301 l 190 75 l 325 57 l 325 0 l 7 0 m 568 367 l 429 779 l 289 367 l 568 367 m 638 994 l 458 1097 l 279 994 l 253 1029 l 435 1189 l 482 1189 l 664 1029 l 638 994 m 274 1115 l 189 1158 q 136 1195 147 1179 q 125 1228 125 1211 q 138 1258 125 1246 q 169 1269 150 1269 q 201 1260 185 1269 q 238 1226 218 1251 l 304 1146 l 274 1115 z "},"Ẩ":{"ha":922,"x_min":7,"x_max":907,"o":"m 7 0 l 7 57 l 124 75 l 419 936 l 507 936 l 803 69 l 907 57 l 907 0 l 529 0 l 529 57 l 665 74 l 589 301 l 267 301 l 190 75 l 325 57 l 325 0 l 7 0 m 568 367 l 429 779 l 289 367 l 568 367 m 279 994 l 253 1029 l 435 1189 l 482 1189 l 664 1029 l 638 994 l 458 1097 l 279 994 m 613 1135 q 669 1153 653 1143 q 686 1181 686 1164 q 571 1228 686 1218 l 585 1321 q 754 1200 754 1304 q 721 1128 754 1157 q 625 1092 688 1099 l 613 1135 z "},"Ẫ":{"ha":922,"x_min":7,"x_max":907,"o":"m 7 0 l 7 57 l 124 75 l 419 936 l 507 936 l 803 69 l 907 57 l 907 0 l 529 0 l 529 57 l 665 74 l 589 301 l 267 301 l 190 75 l 325 57 l 325 0 l 7 0 m 568 367 l 429 779 l 289 367 l 568 367 m 275 985 l 253 1019 l 435 1151 l 482 1151 l 664 1019 l 642 985 l 458 1067 l 275 985 m 232 1200 q 273 1291 240 1257 q 364 1325 306 1325 q 423 1316 400 1325 q 468 1294 446 1307 q 515 1272 492 1282 q 565 1261 538 1261 q 651 1325 625 1261 l 685 1310 q 643 1219 675 1253 q 553 1186 611 1186 q 493 1195 517 1186 q 449 1217 469 1204 q 403 1240 426 1229 q 351 1250 379 1250 q 265 1186 292 1250 l 232 1200 z "},"Ạ":{"ha":922,"x_min":7,"x_max":907,"o":"m 7 0 l 7 57 l 124 75 l 419 936 l 507 936 l 803 69 l 907 57 l 907 0 l 529 0 l 529 57 l 665 74 l 589 301 l 267 301 l 190 75 l 325 57 l 325 0 l 7 0 m 568 367 l 429 779 l 289 367 l 568 367 m 456 -282 q 389 -258 415 -282 q 363 -193 363 -233 q 389 -129 363 -154 q 456 -104 415 -104 q 522 -129 496 -104 q 549 -193 549 -154 q 522 -258 549 -233 q 456 -282 496 -282 z "},"Ả":{"ha":922,"x_min":7,"x_max":907,"o":"m 7 0 l 7 57 l 124 75 l 419 936 l 507 936 l 803 69 l 907 57 l 907 0 l 529 0 l 529 57 l 665 74 l 589 301 l 267 301 l 190 75 l 325 57 l 325 0 l 7 0 m 568 367 l 429 779 l 289 367 l 568 367 m 431 996 l 418 1039 q 475 1058 458 1047 q 492 1085 492 1068 q 376 1132 492 1122 l 390 1225 q 560 1104 560 1210 q 526 1033 560 1061 q 431 996 492 1004 z "},"Å":{"ha":922,"x_min":7,"x_max":907,"o":"m 7 0 l 7 57 l 124 75 l 419 936 l 507 936 l 803 69 l 907 57 l 907 0 l 529 0 l 529 57 l 665 74 l 589 301 l 267 301 l 190 75 l 325 57 l 325 0 l 7 0 m 568 367 l 429 779 l 289 367 l 568 367 m 461 1003 q 412 1011 436 1003 q 369 1036 388 1019 q 339 1076 350 1053 q 328 1131 328 1100 q 339 1185 328 1161 q 369 1225 350 1208 q 412 1251 388 1242 q 461 1260 436 1260 q 510 1251 486 1260 q 553 1226 535 1243 q 583 1185 572 1210 q 594 1131 594 1161 q 583 1078 594 1101 q 553 1038 572 1054 q 510 1012 535 1021 q 461 1003 486 1003 m 461 1051 q 515 1076 496 1051 q 533 1131 533 1101 q 515 1185 533 1161 q 461 1208 497 1208 q 408 1185 426 1208 q 389 1131 389 1161 q 407 1076 389 1101 q 461 1051 425 1051 z "},"Ą":{"ha":922,"x_min":7,"x_max":907,"o":"m 7 0 l 7 57 l 124 75 l 419 936 l 507 936 l 803 69 l 907 57 l 907 0 l 529 0 l 529 57 l 665 74 l 589 301 l 267 301 l 190 75 l 325 57 l 325 0 l 7 0 m 568 367 l 429 779 l 289 367 l 568 367 m 624 -183 q 635 -122 624 -151 q 665 -65 646 -92 q 710 -17 685 -39 q 764 18 736 4 l 804 18 q 736 -51 760 -10 q 713 -133 713 -92 q 739 -203 713 -178 q 806 -228 765 -228 q 839 -224 819 -228 q 879 -207 858 -219 l 897 -242 q 832 -291 872 -276 q 754 -306 792 -306 q 660 -274 696 -306 q 624 -183 624 -242 z "},"Æ":{"ha":1278,"x_min":7,"x_max":1231,"o":"m 7 0 l 7 57 l 122 72 l 549 857 l 442 872 l 442 929 l 1193 929 l 1203 683 l 1122 683 l 1092 860 l 767 860 q 764 682 764 771 q 764 507 764 593 l 969 507 l 989 639 l 1053 639 l 1053 311 l 989 311 l 971 442 l 764 442 q 764 247 764 338 q 767 69 764 157 l 1119 69 l 1150 247 l 1231 247 l 1221 0 l 511 0 l 511 57 l 629 71 q 631 205 631 138 q 632 346 632 272 l 350 346 l 204 75 l 325 57 l 325 0 l 7 0 m 632 410 l 632 851 l 622 851 l 385 410 l 632 410 z "},"Ç":{"ha":876,"x_min":65,"x_max":822,"o":"m 543 49 q 626 58 583 49 q 708 86 668 67 l 736 247 l 822 247 l 817 46 q 681 -6 751 10 q 536 -21 611 -21 q 344 15 431 -21 q 195 115 257 50 q 99 269 133 179 q 65 465 65 358 q 101 660 65 571 q 199 813 136 749 q 347 914 261 878 q 535 950 433 950 q 663 937 593 950 q 803 883 732 924 l 808 682 l 722 682 l 694 843 q 622 872 657 864 q 553 881 586 881 q 422 853 483 881 q 315 774 361 826 q 243 644 269 722 q 217 465 217 567 q 241 285 217 363 q 308 155 265 207 q 412 76 351 103 q 543 49 472 49 m 472 -119 l 490 4 l 542 4 l 531 -81 q 621 -117 583 -89 q 658 -194 658 -144 q 619 -274 658 -243 q 503 -306 579 -306 q 451 -301 472 -306 q 415 -293 429 -297 l 425 -250 q 457 -253 442 -253 q 492 -254 472 -254 q 552 -237 532 -254 q 572 -192 572 -221 q 548 -143 572 -160 q 472 -119 524 -126 z "},"Ć":{"ha":876,"x_min":65,"x_max":822,"o":"m 543 49 q 626 58 583 49 q 708 86 668 67 l 736 247 l 822 247 l 817 46 q 681 -6 751 10 q 536 -21 611 -21 q 344 15 431 -21 q 195 115 257 50 q 99 269 133 179 q 65 465 65 358 q 101 660 65 571 q 199 813 136 749 q 347 914 261 878 q 535 950 433 950 q 663 937 593 950 q 803 883 732 924 l 808 682 l 722 682 l 694 843 q 622 872 657 864 q 553 881 586 881 q 422 853 483 881 q 315 774 361 826 q 243 644 269 722 q 217 465 217 567 q 241 285 217 363 q 308 155 265 207 q 412 76 351 103 q 543 49 472 49 m 444 1035 q 575 1165 508 1103 q 624 1206 604 1194 q 661 1218 643 1218 q 699 1205 683 1218 q 714 1171 714 1192 q 699 1134 714 1151 q 644 1094 685 1117 q 557 1047 600 1071 q 469 1000 514 1024 l 444 1035 z "},"Č":{"ha":876,"x_min":65,"x_max":822,"o":"m 543 49 q 626 58 583 49 q 708 86 668 67 l 736 247 l 822 247 l 817 46 q 681 -6 751 10 q 536 -21 611 -21 q 344 15 431 -21 q 195 115 257 50 q 99 269 133 179 q 65 465 65 358 q 101 660 65 571 q 199 813 136 749 q 347 914 261 878 q 535 950 433 950 q 663 937 593 950 q 803 883 732 924 l 808 682 l 722 682 l 694 843 q 622 872 657 864 q 553 881 586 881 q 422 853 483 881 q 315 774 361 826 q 243 644 269 722 q 217 465 217 567 q 241 285 217 363 q 308 155 265 207 q 412 76 351 103 q 543 49 472 49 m 376 1206 l 536 1088 l 696 1206 l 729 1176 l 588 1013 l 485 1013 l 343 1176 l 376 1206 z "},"Ĉ":{"ha":876,"x_min":65,"x_max":822,"o":"m 543 49 q 626 58 583 49 q 708 86 668 67 l 736 247 l 822 247 l 817 46 q 681 -6 751 10 q 536 -21 611 -21 q 344 15 431 -21 q 195 115 257 50 q 99 269 133 179 q 65 465 65 358 q 101 660 65 571 q 199 813 136 749 q 347 914 261 878 q 535 950 433 950 q 663 937 593 950 q 803 883 732 924 l 808 682 l 722 682 l 694 843 q 622 872 657 864 q 553 881 586 881 q 422 853 483 881 q 315 774 361 826 q 243 644 269 722 q 217 465 217 567 q 241 285 217 363 q 308 155 265 207 q 412 76 351 103 q 543 49 472 49 m 549 1189 l 731 1029 l 704 994 l 525 1097 l 346 994 l 319 1029 l 501 1189 l 549 1189 z "},"Ċ":{"ha":876,"x_min":65,"x_max":822,"o":"m 543 49 q 626 58 583 49 q 708 86 668 67 l 736 247 l 822 247 l 817 46 q 681 -6 751 10 q 536 -21 611 -21 q 344 15 431 -21 q 195 115 257 50 q 99 269 133 179 q 65 465 65 358 q 101 660 65 571 q 199 813 136 749 q 347 914 261 878 q 535 950 433 950 q 663 937 593 950 q 803 883 732 924 l 808 682 l 722 682 l 694 843 q 622 872 657 864 q 553 881 586 881 q 422 853 483 881 q 315 774 361 826 q 243 644 269 722 q 217 465 217 567 q 241 285 217 363 q 308 155 265 207 q 412 76 351 103 q 543 49 472 49 m 515 1022 q 449 1047 475 1022 q 422 1111 422 1072 q 449 1176 422 1151 q 515 1200 475 1200 q 582 1176 556 1200 q 608 1111 608 1151 q 582 1047 608 1072 q 515 1022 556 1022 z "},"Ď":{"ha":986,"x_min":61,"x_max":921,"o":"m 192 447 l 192 499 q 192 678 192 589 q 189 857 192 767 l 61 872 l 61 929 l 471 929 q 653 899 571 929 q 796 809 736 868 q 888 663 856 750 q 921 464 921 576 q 885 265 921 351 q 785 119 849 178 q 633 31 721 61 q 444 0 546 0 l 61 0 l 61 57 l 189 72 q 192 253 192 161 q 192 447 192 346 m 324 447 q 324 251 324 344 q 326 65 324 157 l 436 65 q 683 169 597 65 q 769 464 769 274 q 685 763 769 661 q 449 865 600 865 l 326 865 q 324 683 324 775 q 324 499 324 592 l 324 447 m 322 1206 l 482 1088 l 642 1206 l 675 1176 l 533 1013 l 431 1013 l 289 1176 l 322 1206 z "},"Đ":{"ha":986,"x_min":61,"x_max":921,"o":"m 536 443 l 324 443 q 324 245 324 338 q 326 65 324 153 l 436 65 q 683 169 597 65 q 769 464 769 274 q 685 763 769 661 q 449 865 600 865 l 326 865 q 324 685 324 775 q 324 508 324 594 l 536 508 l 536 443 m 61 0 l 61 57 l 189 72 q 192 253 192 161 q 192 443 192 344 l 61 443 l 61 508 l 192 508 q 192 686 192 600 q 189 857 192 772 l 61 872 l 61 929 l 471 929 q 653 899 571 929 q 796 809 736 868 q 888 663 856 750 q 921 464 921 576 q 885 265 921 351 q 785 119 849 178 q 633 31 721 61 q 444 0 546 0 l 61 0 z "},"Ḍ":{"ha":986,"x_min":61,"x_max":921,"o":"m 192 447 l 192 499 q 192 678 192 589 q 189 857 192 767 l 61 872 l 61 929 l 471 929 q 653 899 571 929 q 796 809 736 868 q 888 663 856 750 q 921 464 921 576 q 885 265 921 351 q 785 119 849 178 q 633 31 721 61 q 444 0 546 0 l 61 0 l 61 57 l 189 72 q 192 253 192 161 q 192 447 192 346 m 324 447 q 324 251 324 344 q 326 65 324 157 l 436 65 q 683 169 597 65 q 769 464 769 274 q 685 763 769 661 q 449 865 600 865 l 326 865 q 324 683 324 775 q 324 499 324 592 l 324 447 m 464 -282 q 397 -258 424 -282 q 371 -193 371 -233 q 397 -129 371 -154 q 464 -104 424 -104 q 531 -129 504 -104 q 557 -193 557 -154 q 531 -258 557 -233 q 464 -282 504 -282 z "},"Ḏ":{"ha":986,"x_min":61,"x_max":921,"o":"m 192 447 l 192 499 q 192 678 192 589 q 189 857 192 767 l 61 872 l 61 929 l 471 929 q 653 899 571 929 q 796 809 736 868 q 888 663 856 750 q 921 464 921 576 q 885 265 921 351 q 785 119 849 178 q 633 31 721 61 q 444 0 546 0 l 61 0 l 61 57 l 189 72 q 192 253 192 161 q 192 447 192 346 m 324 447 q 324 251 324 344 q 326 65 324 157 l 436 65 q 683 169 597 65 q 769 464 769 274 q 685 763 769 661 q 449 865 600 865 l 326 865 q 324 683 324 775 q 324 499 324 592 l 324 447 m 308 -244 l 308 -157 l 672 -157 l 672 -244 l 308 -244 z "},"È":{"ha":838,"x_min":61,"x_max":790,"o":"m 192 431 l 192 499 q 192 678 192 589 q 189 857 192 767 l 61 872 l 61 929 l 753 929 l 763 683 l 683 683 l 653 860 l 326 860 q 324 682 324 771 q 324 507 324 593 l 528 507 l 547 639 l 611 639 l 611 311 l 547 311 l 529 442 l 324 442 q 324 247 324 338 q 326 69 324 157 l 681 69 l 711 247 l 790 247 l 781 0 l 61 0 l 61 57 l 189 72 q 192 249 192 160 q 192 431 192 339 m 511 1035 l 486 1000 q 398 1047 442 1024 q 311 1093 354 1069 q 256 1133 271 1115 q 242 1171 242 1151 q 257 1205 242 1192 q 294 1218 272 1218 q 332 1206 313 1218 q 381 1165 351 1194 q 511 1035 449 1101 z "},"É":{"ha":838,"x_min":61,"x_max":790,"o":"m 192 431 l 192 499 q 192 678 192 589 q 189 857 192 767 l 61 872 l 61 929 l 753 929 l 763 683 l 683 683 l 653 860 l 326 860 q 324 682 324 771 q 324 507 324 593 l 528 507 l 547 639 l 611 639 l 611 311 l 547 311 l 529 442 l 324 442 q 324 247 324 338 q 326 69 324 157 l 681 69 l 711 247 l 790 247 l 781 0 l 61 0 l 61 57 l 189 72 q 192 249 192 160 q 192 431 192 339 m 381 1035 q 511 1165 444 1103 q 560 1206 540 1194 q 597 1218 579 1218 q 635 1205 619 1218 q 650 1171 650 1192 q 635 1134 650 1151 q 581 1094 621 1117 q 493 1047 536 1071 q 406 1000 450 1024 l 381 1035 z "},"Ê":{"ha":838,"x_min":61,"x_max":790,"o":"m 192 431 l 192 499 q 192 678 192 589 q 189 857 192 767 l 61 872 l 61 929 l 753 929 l 763 683 l 683 683 l 653 860 l 326 860 q 324 682 324 771 q 324 507 324 593 l 528 507 l 547 639 l 611 639 l 611 311 l 547 311 l 529 442 l 324 442 q 324 247 324 338 q 326 69 324 157 l 681 69 l 711 247 l 790 247 l 781 0 l 61 0 l 61 57 l 189 72 q 192 249 192 160 q 192 431 192 339 m 497 1189 l 679 1029 l 653 994 l 474 1097 l 294 994 l 268 1029 l 450 1189 l 497 1189 z "},"Ě":{"ha":838,"x_min":61,"x_max":790,"o":"m 192 431 l 192 499 q 192 678 192 589 q 189 857 192 767 l 61 872 l 61 929 l 753 929 l 763 683 l 683 683 l 653 860 l 326 860 q 324 682 324 771 q 324 507 324 593 l 528 507 l 547 639 l 611 639 l 611 311 l 547 311 l 529 442 l 324 442 q 324 247 324 338 q 326 69 324 157 l 681 69 l 711 247 l 790 247 l 781 0 l 61 0 l 61 57 l 189 72 q 192 249 192 160 q 192 431 192 339 m 313 1206 l 472 1088 l 632 1206 l 665 1176 l 524 1013 l 421 1013 l 279 1176 l 313 1206 z "},"Ë":{"ha":838,"x_min":61,"x_max":790,"o":"m 192 431 l 192 499 q 192 678 192 589 q 189 857 192 767 l 61 872 l 61 929 l 753 929 l 763 683 l 683 683 l 653 860 l 326 860 q 324 682 324 771 q 324 507 324 593 l 528 507 l 547 639 l 611 639 l 611 311 l 547 311 l 529 442 l 324 442 q 324 247 324 338 q 326 69 324 157 l 681 69 l 711 247 l 790 247 l 781 0 l 61 0 l 61 57 l 189 72 q 192 249 192 160 q 192 431 192 339 m 296 1033 q 240 1055 264 1033 q 215 1110 215 1076 q 240 1165 215 1143 q 296 1186 264 1186 q 352 1165 329 1186 q 375 1110 375 1143 q 352 1055 375 1076 q 296 1033 329 1033 m 606 1033 q 549 1055 572 1033 q 526 1110 526 1076 q 549 1165 526 1143 q 606 1186 572 1186 q 662 1165 638 1186 q 686 1110 686 1143 q 662 1055 686 1076 q 606 1033 638 1033 z "},"Ē":{"ha":838,"x_min":61,"x_max":790,"o":"m 192 431 l 192 499 q 192 678 192 589 q 189 857 192 767 l 61 872 l 61 929 l 753 929 l 763 683 l 683 683 l 653 860 l 326 860 q 324 682 324 771 q 324 507 324 593 l 528 507 l 547 639 l 611 639 l 611 311 l 547 311 l 529 442 l 324 442 q 324 247 324 338 q 326 69 324 157 l 681 69 l 711 247 l 790 247 l 781 0 l 61 0 l 61 57 l 189 72 q 192 249 192 160 q 192 431 192 339 m 264 1053 l 264 1140 l 683 1140 l 683 1053 l 264 1053 z "},"Ė":{"ha":838,"x_min":61,"x_max":790,"o":"m 192 431 l 192 499 q 192 678 192 589 q 189 857 192 767 l 61 872 l 61 929 l 753 929 l 763 683 l 683 683 l 653 860 l 326 860 q 324 682 324 771 q 324 507 324 593 l 528 507 l 547 639 l 611 639 l 611 311 l 547 311 l 529 442 l 324 442 q 324 247 324 338 q 326 69 324 157 l 681 69 l 711 247 l 790 247 l 781 0 l 61 0 l 61 57 l 189 72 q 192 249 192 160 q 192 431 192 339 m 460 1022 q 393 1047 419 1022 q 367 1111 367 1072 q 393 1176 367 1151 q 460 1200 419 1200 q 526 1176 500 1200 q 553 1111 553 1151 q 526 1047 553 1072 q 460 1022 500 1022 z "},"Ę":{"ha":838,"x_min":61,"x_max":792,"o":"m 192 431 l 192 499 q 192 678 192 589 q 189 857 192 767 l 61 872 l 61 929 l 753 929 l 763 683 l 683 683 l 653 860 l 326 860 q 324 682 324 771 q 324 507 324 593 l 528 507 l 547 639 l 611 639 l 611 311 l 547 311 l 529 442 l 324 442 q 324 247 324 338 q 326 69 324 157 l 681 69 l 711 247 l 790 247 l 781 0 l 61 0 l 61 57 l 189 72 q 192 249 192 160 q 192 431 192 339 m 518 -183 q 529 -122 518 -151 q 560 -65 540 -92 q 605 -17 579 -39 q 658 18 631 4 l 699 18 q 631 -51 654 -10 q 607 -133 607 -92 q 633 -203 607 -178 q 700 -228 660 -228 q 733 -224 714 -228 q 774 -207 753 -219 l 792 -242 q 726 -291 767 -276 q 649 -306 686 -306 q 554 -274 590 -306 q 518 -183 518 -242 z "},"Ĕ":{"ha":838,"x_min":61,"x_max":790,"o":"m 192 431 l 192 499 q 192 678 192 589 q 189 857 192 767 l 61 872 l 61 929 l 753 929 l 763 683 l 683 683 l 653 860 l 326 860 q 324 682 324 771 q 324 507 324 593 l 528 507 l 547 639 l 611 639 l 611 311 l 547 311 l 529 442 l 324 442 q 324 247 324 338 q 326 69 324 157 l 681 69 l 711 247 l 790 247 l 781 0 l 61 0 l 61 57 l 189 72 q 192 249 192 160 q 192 431 192 339 m 247 1192 l 290 1207 q 345 1130 306 1160 q 447 1100 385 1100 q 548 1130 510 1100 q 604 1207 586 1160 l 647 1192 q 628 1128 643 1160 q 590 1072 614 1097 q 530 1031 565 1047 q 447 1015 494 1015 q 365 1031 400 1015 q 305 1072 329 1047 q 266 1128 281 1097 q 247 1192 251 1160 z "},"Ế":{"ha":838,"x_min":61,"x_max":790,"o":"m 192 431 l 192 499 q 192 678 192 589 q 189 857 192 767 l 61 872 l 61 929 l 753 929 l 763 683 l 683 683 l 653 860 l 326 860 q 324 682 324 771 q 324 507 324 593 l 528 507 l 547 639 l 611 639 l 611 311 l 547 311 l 529 442 l 324 442 q 324 247 324 338 q 326 69 324 157 l 681 69 l 711 247 l 790 247 l 781 0 l 61 0 l 61 57 l 189 72 q 192 249 192 160 q 192 431 192 339 m 269 994 l 243 1029 l 425 1189 l 472 1189 l 654 1029 l 628 994 l 449 1097 l 269 994 m 619 1113 l 590 1143 l 657 1226 q 692 1260 675 1250 q 724 1269 708 1269 q 756 1258 743 1269 q 768 1228 768 1246 q 757 1196 768 1211 q 704 1158 746 1181 l 619 1113 z "},"Ệ":{"ha":838,"x_min":61,"x_max":790,"o":"m 192 431 l 192 499 q 192 678 192 589 q 189 857 192 767 l 61 872 l 61 929 l 753 929 l 763 683 l 683 683 l 653 860 l 326 860 q 324 682 324 771 q 324 507 324 593 l 528 507 l 547 639 l 611 639 l 611 311 l 547 311 l 529 442 l 324 442 q 324 247 324 338 q 326 69 324 157 l 681 69 l 711 247 l 790 247 l 781 0 l 61 0 l 61 57 l 189 72 q 192 249 192 160 q 192 431 192 339 m 497 1189 l 679 1029 l 653 994 l 474 1097 l 294 994 l 268 1029 l 450 1189 l 497 1189 m 464 -282 q 397 -258 424 -282 q 371 -193 371 -233 q 397 -129 371 -154 q 464 -104 424 -104 q 531 -129 504 -104 q 557 -193 557 -154 q 531 -258 557 -233 q 464 -282 504 -282 z "},"Ề":{"ha":838,"x_min":61,"x_max":790,"o":"m 192 431 l 192 499 q 192 678 192 589 q 189 857 192 767 l 61 872 l 61 929 l 753 929 l 763 683 l 683 683 l 653 860 l 326 860 q 324 682 324 771 q 324 507 324 593 l 528 507 l 547 639 l 611 639 l 611 311 l 547 311 l 529 442 l 324 442 q 324 247 324 338 q 326 69 324 157 l 681 69 l 711 247 l 790 247 l 781 0 l 61 0 l 61 57 l 189 72 q 192 249 192 160 q 192 431 192 339 m 626 994 l 447 1097 l 268 994 l 242 1029 l 424 1189 l 471 1189 l 653 1029 l 626 994 m 263 1115 l 178 1158 q 125 1195 136 1179 q 114 1228 114 1211 q 126 1258 114 1246 q 158 1269 139 1269 q 190 1260 174 1269 q 226 1226 207 1251 l 293 1146 l 263 1115 z "},"Ể":{"ha":838,"x_min":61,"x_max":790,"o":"m 192 431 l 192 499 q 192 678 192 589 q 189 857 192 767 l 61 872 l 61 929 l 753 929 l 763 683 l 683 683 l 653 860 l 326 860 q 324 682 324 771 q 324 507 324 593 l 528 507 l 547 639 l 611 639 l 611 311 l 547 311 l 529 442 l 324 442 q 324 247 324 338 q 326 69 324 157 l 681 69 l 711 247 l 790 247 l 781 0 l 61 0 l 61 57 l 189 72 q 192 249 192 160 q 192 431 192 339 m 268 994 l 242 1029 l 424 1189 l 471 1189 l 653 1029 l 626 994 l 447 1097 l 268 994 m 601 1135 q 658 1153 642 1143 q 675 1181 675 1164 q 560 1228 675 1218 l 574 1321 q 743 1200 743 1304 q 710 1128 743 1157 q 614 1092 676 1099 l 601 1135 z "},"Ễ":{"ha":838,"x_min":61,"x_max":790,"o":"m 192 431 l 192 499 q 192 678 192 589 q 189 857 192 767 l 61 872 l 61 929 l 753 929 l 763 683 l 683 683 l 653 860 l 326 860 q 324 682 324 771 q 324 507 324 593 l 528 507 l 547 639 l 611 639 l 611 311 l 547 311 l 529 442 l 324 442 q 324 247 324 338 q 326 69 324 157 l 681 69 l 711 247 l 790 247 l 781 0 l 61 0 l 61 57 l 189 72 q 192 249 192 160 q 192 431 192 339 m 264 985 l 242 1019 l 424 1151 l 471 1151 l 653 1019 l 631 985 l 447 1067 l 264 985 m 221 1200 q 262 1291 229 1257 q 353 1325 294 1325 q 412 1316 389 1325 q 457 1294 435 1307 q 503 1272 481 1282 q 554 1261 526 1261 q 640 1325 614 1261 l 674 1310 q 632 1219 664 1253 q 542 1186 600 1186 q 482 1195 506 1186 q 438 1217 458 1204 q 392 1240 415 1229 q 340 1250 368 1250 q 254 1186 281 1250 l 221 1200 z "},"Ẹ":{"ha":838,"x_min":61,"x_max":790,"o":"m 192 431 l 192 499 q 192 678 192 589 q 189 857 192 767 l 61 872 l 61 929 l 753 929 l 763 683 l 683 683 l 653 860 l 326 860 q 324 682 324 771 q 324 507 324 593 l 528 507 l 547 639 l 611 639 l 611 311 l 547 311 l 529 442 l 324 442 q 324 247 324 338 q 326 69 324 157 l 681 69 l 711 247 l 790 247 l 781 0 l 61 0 l 61 57 l 189 72 q 192 249 192 160 q 192 431 192 339 m 464 -282 q 397 -258 424 -282 q 371 -193 371 -233 q 397 -129 371 -154 q 464 -104 424 -104 q 531 -129 504 -104 q 557 -193 557 -154 q 531 -258 557 -233 q 464 -282 504 -282 z "},"Ẻ":{"ha":838,"x_min":61,"x_max":790,"o":"m 192 431 l 192 499 q 192 678 192 589 q 189 857 192 767 l 61 872 l 61 929 l 753 929 l 763 683 l 683 683 l 653 860 l 326 860 q 324 682 324 771 q 324 507 324 593 l 528 507 l 547 639 l 611 639 l 611 311 l 547 311 l 529 442 l 324 442 q 324 247 324 338 q 326 69 324 157 l 681 69 l 711 247 l 790 247 l 781 0 l 61 0 l 61 57 l 189 72 q 192 249 192 160 q 192 431 192 339 m 421 996 l 408 1039 q 465 1058 449 1047 q 482 1085 482 1068 q 367 1132 482 1122 l 381 1225 q 550 1104 550 1210 q 516 1033 550 1061 q 421 996 482 1004 z "},"Ẽ":{"ha":838,"x_min":61,"x_max":790,"o":"m 192 431 l 192 499 q 192 678 192 589 q 189 857 192 767 l 61 872 l 61 929 l 753 929 l 763 683 l 683 683 l 653 860 l 326 860 q 324 682 324 771 q 324 507 324 593 l 528 507 l 547 639 l 611 639 l 611 311 l 547 311 l 529 442 l 324 442 q 324 247 324 338 q 326 69 324 157 l 681 69 l 711 247 l 790 247 l 781 0 l 61 0 l 61 57 l 189 72 q 192 249 192 160 q 192 431 192 339 m 197 1019 q 244 1150 210 1101 q 343 1199 279 1199 q 406 1185 381 1199 q 456 1151 432 1171 q 506 1108 482 1131 q 561 1085 529 1085 q 618 1115 596 1085 q 656 1196 640 1144 l 697 1182 q 650 1053 683 1101 q 553 1004 617 1004 q 488 1018 514 1004 q 439 1050 463 1032 q 389 1094 413 1072 q 333 1117 365 1117 q 277 1088 300 1117 q 239 1007 254 1058 l 197 1019 z "},"Ğ":{"ha":947,"x_min":65,"x_max":926,"o":"m 839 122 l 839 61 q 694 1 767 24 q 533 -21 621 -21 q 342 16 429 -21 q 194 117 256 53 q 99 271 133 182 q 65 465 65 360 q 99 658 65 569 q 196 812 133 747 q 345 913 258 876 q 539 950 432 950 q 692 934 625 950 q 818 885 760 918 l 824 682 l 738 682 l 710 840 q 551 881 638 881 q 418 853 479 881 q 312 772 357 825 q 242 642 267 719 q 217 465 217 565 q 308 158 217 265 q 560 50 400 50 q 637 56 601 50 q 708 78 672 63 l 708 122 q 708 248 708 185 q 706 374 707 311 l 561 386 l 561 442 l 926 442 l 926 386 l 842 378 q 840 251 840 315 q 839 122 839 188 m 331 1192 l 374 1207 q 428 1130 389 1160 q 531 1100 468 1100 q 631 1130 593 1100 q 688 1207 669 1160 l 731 1192 q 712 1128 726 1160 q 673 1072 697 1097 q 613 1031 649 1047 q 531 1015 578 1015 q 448 1031 483 1015 q 388 1072 413 1047 q 349 1128 364 1097 q 331 1192 335 1160 z "},"Ġ":{"ha":947,"x_min":65,"x_max":926,"o":"m 839 122 l 839 61 q 694 1 767 24 q 533 -21 621 -21 q 342 16 429 -21 q 194 117 256 53 q 99 271 133 182 q 65 465 65 360 q 99 658 65 569 q 196 812 133 747 q 345 913 258 876 q 539 950 432 950 q 692 934 625 950 q 818 885 760 918 l 824 682 l 738 682 l 710 840 q 551 881 638 881 q 418 853 479 881 q 312 772 357 825 q 242 642 267 719 q 217 465 217 565 q 308 158 217 265 q 560 50 400 50 q 637 56 601 50 q 708 78 672 63 l 708 122 q 708 248 708 185 q 706 374 707 311 l 561 386 l 561 442 l 926 442 l 926 386 l 842 378 q 840 251 840 315 q 839 122 839 188 m 539 1022 q 472 1047 499 1022 q 446 1111 446 1072 q 472 1176 446 1151 q 539 1200 499 1200 q 606 1176 579 1200 q 632 1111 632 1151 q 606 1047 632 1072 q 539 1022 579 1022 z "},"Ģ":{"ha":947,"x_min":65,"x_max":926,"o":"m 839 122 l 839 61 q 694 1 767 24 q 533 -21 621 -21 q 342 16 429 -21 q 194 117 256 53 q 99 271 133 182 q 65 465 65 360 q 99 658 65 569 q 196 812 133 747 q 345 913 258 876 q 539 950 432 950 q 692 934 625 950 q 818 885 760 918 l 824 682 l 738 682 l 710 840 q 551 881 638 881 q 418 853 479 881 q 312 772 357 825 q 242 642 267 719 q 217 465 217 565 q 308 158 217 265 q 560 50 400 50 q 637 56 601 50 q 708 78 672 63 l 708 122 q 708 248 708 185 q 706 374 707 311 l 561 386 l 561 442 l 926 442 l 926 386 l 842 378 q 840 251 840 315 q 839 122 839 188 m 622 -162 q 607 -228 622 -199 q 566 -280 592 -257 q 507 -319 540 -303 q 438 -349 474 -336 l 422 -308 q 494 -272 465 -293 q 547 -218 524 -251 q 501 -183 519 -206 q 483 -135 483 -161 q 503 -90 483 -107 q 549 -72 522 -72 q 610 -99 582 -72 q 619 -135 617 -121 q 622 -162 622 -149 z "},"Ǧ":{"ha":947,"x_min":65,"x_max":926,"o":"m 839 122 l 839 61 q 694 1 767 24 q 533 -21 621 -21 q 342 16 429 -21 q 194 117 256 53 q 99 271 133 182 q 65 465 65 360 q 99 658 65 569 q 196 812 133 747 q 345 913 258 876 q 539 950 432 950 q 692 934 625 950 q 818 885 760 918 l 824 682 l 738 682 l 710 840 q 551 881 638 881 q 418 853 479 881 q 312 772 357 825 q 242 642 267 719 q 217 465 217 565 q 308 158 217 265 q 560 50 400 50 q 637 56 601 50 q 708 78 672 63 l 708 122 q 708 248 708 185 q 706 374 707 311 l 561 386 l 561 442 l 926 442 l 926 386 l 842 378 q 840 251 840 315 q 839 122 839 188 m 378 1206 l 538 1088 l 697 1206 l 731 1176 l 589 1013 l 486 1013 l 344 1176 l 378 1206 z "},"Ĝ":{"ha":947,"x_min":65,"x_max":926,"o":"m 839 122 l 839 61 q 694 1 767 24 q 533 -21 621 -21 q 342 16 429 -21 q 194 117 256 53 q 99 271 133 182 q 65 465 65 360 q 99 658 65 569 q 196 812 133 747 q 345 913 258 876 q 539 950 432 950 q 692 934 625 950 q 818 885 760 918 l 824 682 l 738 682 l 710 840 q 551 881 638 881 q 418 853 479 881 q 312 772 357 825 q 242 642 267 719 q 217 465 217 565 q 308 158 217 265 q 560 50 400 50 q 637 56 601 50 q 708 78 672 63 l 708 122 q 708 248 708 185 q 706 374 707 311 l 561 386 l 561 442 l 926 442 l 926 386 l 842 378 q 840 251 840 315 q 839 122 839 188 m 560 1189 l 742 1029 l 715 994 l 536 1097 l 357 994 l 331 1029 l 513 1189 l 560 1189 z "},"Ḡ":{"ha":947,"x_min":65,"x_max":926,"o":"m 839 122 l 839 61 q 694 1 767 24 q 533 -21 621 -21 q 342 16 429 -21 q 194 117 256 53 q 99 271 133 182 q 65 465 65 360 q 99 658 65 569 q 196 812 133 747 q 345 913 258 876 q 539 950 432 950 q 692 934 625 950 q 818 885 760 918 l 824 682 l 738 682 l 710 840 q 551 881 638 881 q 418 853 479 881 q 312 772 357 825 q 242 642 267 719 q 217 465 217 565 q 308 158 217 265 q 560 50 400 50 q 637 56 601 50 q 708 78 672 63 l 708 122 q 708 248 708 185 q 706 374 707 311 l 561 386 l 561 442 l 926 442 l 926 386 l 842 378 q 840 251 840 315 q 839 122 839 188 m 326 1053 l 326 1140 l 746 1140 l 746 1053 l 326 1053 z "},"Ħ":{"ha":1094,"x_min":42,"x_max":1054,"o":"m 324 500 l 324 481 l 772 481 l 772 500 l 772 647 l 324 647 l 324 500 m 192 431 l 192 499 l 192 647 l 42 647 l 42 711 l 192 711 q 190 784 190 747 q 189 857 190 821 l 61 872 l 61 929 l 453 929 l 453 872 l 326 858 q 325 785 325 822 q 324 711 325 747 l 772 711 q 771 784 771 747 q 769 857 771 821 l 642 872 l 642 929 l 1033 929 l 1033 872 l 906 857 q 904 784 904 821 q 903 711 904 747 l 1054 711 l 1054 647 l 903 647 l 903 499 l 903 431 q 903 251 903 340 q 906 72 903 163 l 1033 57 l 1033 0 l 642 0 l 642 57 l 769 72 q 772 235 772 151 q 772 415 772 319 l 324 415 q 324 237 324 321 q 326 71 324 153 l 453 57 l 453 0 l 61 0 l 61 57 l 189 72 q 192 249 192 160 q 192 431 192 339 z "},"Ḫ":{"ha":1096,"x_min":61,"x_max":1033,"o":"m 192 431 l 192 499 q 192 678 192 589 q 189 857 192 767 l 61 872 l 61 929 l 453 929 l 453 872 l 326 858 q 324 681 324 769 q 324 508 324 592 l 772 508 q 772 686 772 600 q 769 857 772 772 l 642 872 l 642 929 l 1033 929 l 1033 872 l 906 857 q 903 680 903 769 q 903 499 903 590 l 903 431 q 903 251 903 340 q 906 72 903 163 l 1033 57 l 1033 0 l 642 0 l 642 57 l 769 72 q 772 253 772 161 q 772 443 772 346 l 324 443 q 324 247 324 336 q 326 71 324 157 l 453 57 l 453 0 l 61 0 l 61 57 l 189 72 q 192 249 192 160 q 192 431 192 339 m 336 -110 l 378 -94 q 438 -186 399 -149 q 546 -224 476 -224 q 654 -186 615 -224 q 714 -94 693 -149 l 756 -110 q 735 -187 751 -150 q 694 -252 719 -224 q 631 -298 668 -281 q 546 -315 593 -315 q 460 -298 497 -315 q 398 -252 424 -281 q 356 -187 372 -224 q 336 -110 340 -150 z "},"Ĥ":{"ha":1096,"x_min":61,"x_max":1033,"o":"m 192 431 l 192 499 q 192 678 192 589 q 189 857 192 767 l 61 872 l 61 929 l 453 929 l 453 872 l 326 858 q 324 681 324 769 q 324 508 324 592 l 772 508 q 772 686 772 600 q 769 857 772 772 l 642 872 l 642 929 l 1033 929 l 1033 872 l 906 857 q 903 680 903 769 q 903 499 903 590 l 903 431 q 903 251 903 340 q 906 72 903 163 l 1033 57 l 1033 0 l 642 0 l 642 57 l 769 72 q 772 253 772 161 q 772 443 772 346 l 324 443 q 324 247 324 336 q 326 71 324 157 l 453 57 l 453 0 l 61 0 l 61 57 l 189 72 q 192 249 192 160 q 192 431 192 339 m 571 1189 l 753 1029 l 726 994 l 547 1097 l 368 994 l 342 1029 l 524 1189 l 571 1189 z "},"Ḥ":{"ha":1096,"x_min":61,"x_max":1033,"o":"m 192 431 l 192 499 q 192 678 192 589 q 189 857 192 767 l 61 872 l 61 929 l 453 929 l 453 872 l 326 858 q 324 681 324 769 q 324 508 324 592 l 772 508 q 772 686 772 600 q 769 857 772 772 l 642 872 l 642 929 l 1033 929 l 1033 872 l 906 857 q 903 680 903 769 q 903 499 903 590 l 903 431 q 903 251 903 340 q 906 72 903 163 l 1033 57 l 1033 0 l 642 0 l 642 57 l 769 72 q 772 253 772 161 q 772 443 772 346 l 324 443 q 324 247 324 336 q 326 71 324 157 l 453 57 l 453 0 l 61 0 l 61 57 l 189 72 q 192 249 192 160 q 192 431 192 339 m 546 -282 q 479 -258 506 -282 q 453 -193 453 -233 q 479 -129 453 -154 q 546 -104 506 -104 q 613 -129 586 -104 q 639 -193 639 -154 q 613 -258 639 -233 q 546 -282 586 -282 z "},"Ì":{"ha":515,"x_min":61,"x_max":454,"o":"m 192 431 l 192 499 q 192 678 192 589 q 189 857 192 767 l 61 872 l 61 929 l 454 929 l 454 872 l 326 857 q 324 680 324 769 q 324 499 324 590 l 324 431 q 324 251 324 340 q 326 72 324 163 l 454 57 l 454 0 l 61 0 l 61 57 l 189 72 q 192 249 192 160 q 192 431 192 339 m 350 1035 l 325 1000 q 237 1047 281 1024 q 150 1093 193 1069 q 95 1133 110 1115 q 81 1171 81 1151 q 96 1205 81 1192 q 133 1218 111 1218 q 171 1206 151 1218 q 219 1165 190 1194 q 350 1035 288 1101 z "},"Í":{"ha":515,"x_min":61,"x_max":461,"o":"m 192 431 l 192 499 q 192 678 192 589 q 189 857 192 767 l 61 872 l 61 929 l 454 929 l 454 872 l 326 857 q 324 680 324 769 q 324 499 324 590 l 324 431 q 324 251 324 340 q 326 72 324 163 l 454 57 l 454 0 l 61 0 l 61 57 l 189 72 q 192 249 192 160 q 192 431 192 339 m 192 1035 q 322 1165 256 1103 q 371 1206 351 1194 q 408 1218 390 1218 q 446 1205 431 1218 q 461 1171 461 1192 q 447 1134 461 1151 q 392 1094 432 1117 q 304 1047 347 1071 q 217 1000 261 1024 l 192 1035 z "},"Î":{"ha":515,"x_min":51,"x_max":463,"o":"m 192 431 l 192 499 q 192 678 192 589 q 189 857 192 767 l 61 872 l 61 929 l 454 929 l 454 872 l 326 857 q 324 680 324 769 q 324 499 324 590 l 324 431 q 324 251 324 340 q 326 72 324 163 l 454 57 l 454 0 l 61 0 l 61 57 l 189 72 q 192 249 192 160 q 192 431 192 339 m 281 1189 l 463 1029 l 436 994 l 257 1097 l 78 994 l 51 1029 l 233 1189 l 281 1189 z "},"Ï":{"ha":515,"x_min":22,"x_max":493,"o":"m 192 431 l 192 499 q 192 678 192 589 q 189 857 192 767 l 61 872 l 61 929 l 454 929 l 454 872 l 326 857 q 324 680 324 769 q 324 499 324 590 l 324 431 q 324 251 324 340 q 326 72 324 163 l 454 57 l 454 0 l 61 0 l 61 57 l 189 72 q 192 249 192 160 q 192 431 192 339 m 103 1033 q 47 1055 71 1033 q 22 1110 22 1076 q 47 1165 22 1143 q 103 1186 71 1186 q 159 1165 136 1186 q 182 1110 182 1143 q 159 1055 182 1076 q 103 1033 136 1033 m 413 1033 q 356 1055 379 1033 q 333 1110 333 1076 q 356 1165 333 1143 q 413 1186 379 1186 q 469 1165 444 1186 q 493 1110 493 1143 q 469 1055 493 1076 q 413 1033 444 1033 z "},"Ī":{"ha":515,"x_min":49,"x_max":468,"o":"m 192 431 l 192 499 q 192 678 192 589 q 189 857 192 767 l 61 872 l 61 929 l 454 929 l 454 872 l 326 857 q 324 680 324 769 q 324 499 324 590 l 324 431 q 324 251 324 340 q 326 72 324 163 l 454 57 l 454 0 l 61 0 l 61 57 l 189 72 q 192 249 192 160 q 192 431 192 339 m 49 1053 l 49 1140 l 468 1140 l 468 1053 l 49 1053 z "},"İ":{"ha":515,"x_min":61,"x_max":454,"o":"m 192 431 l 192 499 q 192 678 192 589 q 189 857 192 767 l 61 872 l 61 929 l 454 929 l 454 872 l 326 857 q 324 680 324 769 q 324 499 324 590 l 324 431 q 324 251 324 340 q 326 72 324 163 l 454 57 l 454 0 l 61 0 l 61 57 l 189 72 q 192 249 192 160 q 192 431 192 339 m 258 1022 q 192 1047 218 1022 q 165 1111 165 1072 q 192 1176 165 1151 q 258 1200 218 1200 q 325 1176 299 1200 q 351 1111 351 1151 q 325 1047 351 1072 q 258 1022 299 1022 z "},"Į":{"ha":515,"x_min":61,"x_max":454,"o":"m 192 431 l 192 499 q 192 678 192 589 q 189 857 192 767 l 61 872 l 61 929 l 454 929 l 454 872 l 326 857 q 324 680 324 769 q 324 499 324 590 l 324 431 q 324 251 324 340 q 326 72 324 163 l 454 57 l 454 0 l 61 0 l 61 57 l 189 72 q 192 249 192 160 q 192 431 192 339 m 153 -183 q 164 -122 153 -151 q 194 -65 175 -92 q 240 -17 214 -39 q 293 18 265 4 l 333 18 q 265 -51 289 -10 q 242 -133 242 -92 q 268 -203 242 -178 q 335 -228 294 -228 q 368 -224 349 -228 q 408 -207 388 -219 l 426 -242 q 361 -291 401 -276 q 283 -306 321 -306 q 189 -274 225 -306 q 153 -183 153 -242 z "},"Ǐ":{"ha":515,"x_min":61,"x_max":454,"o":"m 192 431 l 192 499 q 192 678 192 589 q 189 857 192 767 l 61 872 l 61 929 l 454 929 l 454 872 l 326 857 q 324 680 324 769 q 324 499 324 590 l 324 431 q 324 251 324 340 q 326 72 324 163 l 454 57 l 454 0 l 61 0 l 61 57 l 189 72 q 192 249 192 160 q 192 431 192 339 m 97 1206 l 257 1088 l 417 1206 l 450 1176 l 308 1013 l 206 1013 l 64 1176 l 97 1206 z "},"Ị":{"ha":515,"x_min":61,"x_max":454,"o":"m 192 431 l 192 499 q 192 678 192 589 q 189 857 192 767 l 61 872 l 61 929 l 454 929 l 454 872 l 326 857 q 324 680 324 769 q 324 499 324 590 l 324 431 q 324 251 324 340 q 326 72 324 163 l 454 57 l 454 0 l 61 0 l 61 57 l 189 72 q 192 249 192 160 q 192 431 192 339 m 258 -282 q 192 -258 218 -282 q 165 -193 165 -233 q 192 -129 165 -154 q 258 -104 218 -104 q 325 -129 299 -104 q 351 -193 351 -154 q 325 -258 351 -233 q 258 -282 299 -282 z "},"Ỉ":{"ha":515,"x_min":61,"x_max":454,"o":"m 192 431 l 192 499 q 192 678 192 589 q 189 857 192 767 l 61 872 l 61 929 l 454 929 l 454 872 l 326 857 q 324 680 324 769 q 324 499 324 590 l 324 431 q 324 251 324 340 q 326 72 324 163 l 454 57 l 454 0 l 61 0 l 61 57 l 189 72 q 192 249 192 160 q 192 431 192 339 m 231 996 l 218 1039 q 275 1058 258 1047 q 292 1085 292 1068 q 176 1132 292 1122 l 190 1225 q 360 1104 360 1210 q 326 1033 360 1061 q 231 996 292 1004 z "},"Ĩ":{"ha":515,"x_min":7,"x_max":507,"o":"m 192 431 l 192 499 q 192 678 192 589 q 189 857 192 767 l 61 872 l 61 929 l 454 929 l 454 872 l 326 857 q 324 680 324 769 q 324 499 324 590 l 324 431 q 324 251 324 340 q 326 72 324 163 l 454 57 l 454 0 l 61 0 l 61 57 l 189 72 q 192 249 192 160 q 192 431 192 339 m 7 1019 q 54 1150 19 1101 q 153 1199 89 1199 q 216 1185 190 1199 q 265 1151 242 1171 q 315 1108 292 1131 q 371 1085 339 1085 q 428 1115 406 1085 q 465 1196 450 1144 l 507 1182 q 460 1053 493 1101 q 363 1004 426 1004 q 298 1018 324 1004 q 249 1050 272 1032 q 199 1094 222 1072 q 143 1117 175 1117 q 87 1088 110 1117 q 49 1007 64 1058 l 7 1019 z "},"Ĵ":{"ha":519,"x_min":-60,"x_max":482,"o":"m 65 872 l 65 929 l 472 929 l 472 872 l 344 857 q 342 681 342 769 q 342 500 342 592 l 342 283 q 341 179 342 224 q 338 99 340 135 q 332 35 336 64 q 322 -19 328 7 q 285 -110 311 -72 q 224 -175 260 -149 q 147 -214 189 -201 q 61 -226 104 -226 q -14 -212 21 -226 q -60 -158 -49 -199 q -30 -104 -53 -119 q 26 -89 -7 -89 q 76 -99 53 -89 q 131 -132 100 -108 l 165 -160 q 208 -91 196 -131 q 219 10 219 -51 q 218 90 219 40 q 215 231 217 139 q 211 474 214 324 q 207 857 208 624 l 65 872 m 300 1189 l 482 1029 l 456 994 l 276 1097 l 97 994 l 71 1029 l 253 1189 l 300 1189 z "},"Ķ":{"ha":926,"x_min":61,"x_max":919,"o":"m 192 431 l 192 499 q 192 678 192 589 q 189 857 192 767 l 61 872 l 61 929 l 453 929 l 453 872 l 321 857 q 318 679 318 768 q 318 499 318 590 l 318 411 l 679 853 l 579 872 l 579 929 l 899 929 l 899 872 l 764 854 l 532 575 l 813 71 l 919 57 l 919 0 l 563 0 l 563 57 l 676 71 l 456 483 l 318 318 q 318 199 318 261 q 321 72 318 138 l 453 57 l 453 0 l 61 0 l 61 57 l 189 72 q 192 249 192 160 q 192 431 192 339 m 575 -162 q 560 -228 575 -199 q 519 -280 544 -257 q 460 -319 493 -303 q 390 -349 426 -336 l 375 -308 q 447 -272 418 -293 q 500 -218 476 -251 q 454 -183 472 -206 q 436 -135 436 -161 q 456 -90 436 -107 q 501 -72 475 -72 q 563 -99 535 -72 q 572 -135 569 -121 q 575 -162 575 -149 z "},"Ĺ":{"ha":828,"x_min":61,"x_max":767,"o":"m 192 499 q 192 680 192 590 q 189 857 192 769 l 61 872 l 61 929 l 454 929 l 454 872 l 326 857 q 324 678 324 767 q 324 499 324 589 l 324 403 q 324 243 324 328 q 326 69 324 158 l 642 69 l 682 261 l 767 261 l 753 0 l 61 0 l 61 57 l 189 72 q 192 251 192 163 q 192 429 192 340 l 192 499 m 258 1035 q 389 1165 322 1103 q 438 1206 418 1194 q 475 1218 457 1218 q 513 1205 497 1218 q 528 1171 528 1192 q 513 1134 528 1151 q 458 1094 499 1117 q 371 1047 414 1071 q 283 1000 328 1024 l 258 1035 z "},"Ľ":{"ha":828,"x_min":61,"x_max":767,"o":"m 192 499 q 192 680 192 590 q 189 857 192 769 l 61 872 l 61 929 l 454 929 l 454 872 l 326 857 q 324 678 324 767 q 324 499 324 589 l 324 403 q 324 243 324 328 q 326 69 324 158 l 642 69 l 682 261 l 767 261 l 753 0 l 61 0 l 61 57 l 189 72 q 192 251 192 163 q 192 429 192 340 l 192 499 m 665 1026 q 704 1013 693 1026 q 715 975 715 999 q 711 939 715 960 q 700 894 707 918 q 685 844 693 869 q 668 793 676 818 l 642 718 l 597 718 l 601 1008 q 665 1026 633 1026 z "},"Ļ":{"ha":828,"x_min":61,"x_max":767,"o":"m 192 499 q 192 680 192 590 q 189 857 192 769 l 61 872 l 61 929 l 454 929 l 454 872 l 326 857 q 324 678 324 767 q 324 499 324 589 l 324 403 q 324 243 324 328 q 326 69 324 158 l 642 69 l 682 261 l 767 261 l 753 0 l 61 0 l 61 57 l 189 72 q 192 251 192 163 q 192 429 192 340 l 192 499 m 506 -162 q 490 -228 506 -199 q 449 -280 475 -257 q 390 -319 424 -303 q 321 -349 357 -336 l 306 -308 q 378 -272 349 -293 q 431 -218 407 -251 q 385 -183 403 -206 q 367 -135 367 -161 q 386 -90 367 -107 q 432 -72 406 -72 q 493 -99 465 -72 q 503 -135 500 -121 q 506 -162 506 -149 z "},"Ŀ":{"ha":828,"x_min":61,"x_max":767,"o":"m 192 499 q 192 680 192 590 q 189 857 192 769 l 61 872 l 61 929 l 454 929 l 454 872 l 326 857 q 324 678 324 767 q 324 499 324 589 l 324 403 q 324 243 324 328 q 326 69 324 158 l 642 69 l 682 261 l 767 261 l 753 0 l 61 0 l 61 57 l 189 72 q 192 251 192 163 q 192 429 192 340 l 192 499 m 651 432 q 581 461 610 432 q 553 531 553 490 q 581 601 553 572 q 651 631 610 631 q 722 601 693 631 q 750 531 750 572 q 722 461 750 490 q 651 432 693 432 z "},"Ḷ":{"ha":828,"x_min":61,"x_max":767,"o":"m 192 499 q 192 680 192 590 q 189 857 192 769 l 61 872 l 61 929 l 454 929 l 454 872 l 326 857 q 324 678 324 767 q 324 499 324 589 l 324 403 q 324 243 324 328 q 326 69 324 158 l 642 69 l 682 261 l 767 261 l 753 0 l 61 0 l 61 57 l 189 72 q 192 251 192 163 q 192 429 192 340 l 192 499 m 475 -282 q 408 -258 435 -282 q 382 -193 382 -233 q 408 -129 382 -154 q 475 -104 435 -104 q 542 -129 515 -104 q 568 -193 568 -154 q 542 -258 568 -233 q 475 -282 515 -282 z "},"Ḹ":{"ha":828,"x_min":51,"x_max":767,"o":"m 192 499 q 192 680 192 590 q 189 857 192 769 l 61 872 l 61 929 l 454 929 l 454 872 l 326 857 q 324 678 324 767 q 324 499 324 589 l 324 403 q 324 243 324 328 q 326 69 324 158 l 642 69 l 682 261 l 767 261 l 753 0 l 61 0 l 61 57 l 189 72 q 192 251 192 163 q 192 429 192 340 l 192 499 m 475 -282 q 408 -258 435 -282 q 382 -193 382 -233 q 408 -129 382 -154 q 475 -104 435 -104 q 542 -129 515 -104 q 568 -193 568 -154 q 542 -258 568 -233 q 475 -282 515 -282 m 51 1053 l 51 1140 l 471 1140 l 471 1053 l 51 1053 z "},"Ḻ":{"ha":828,"x_min":61,"x_max":767,"o":"m 192 499 q 192 680 192 590 q 189 857 192 769 l 61 872 l 61 929 l 454 929 l 454 872 l 326 857 q 324 678 324 767 q 324 499 324 589 l 324 403 q 324 243 324 328 q 326 69 324 158 l 642 69 l 682 261 l 767 261 l 753 0 l 61 0 l 61 57 l 189 72 q 192 251 192 163 q 192 429 192 340 l 192 499 m 275 -244 l 275 -157 l 639 -157 l 639 -244 l 275 -244 z "},"Ł":{"ha":828,"x_min":61,"x_max":767,"o":"m 550 639 l 550 560 l 324 429 l 324 403 q 324 243 324 328 q 326 69 324 158 l 642 69 l 682 261 l 767 261 l 753 0 l 61 0 l 61 57 l 189 72 q 192 217 192 144 q 192 363 192 289 l 61 289 l 61 368 l 192 442 l 192 499 q 192 680 192 590 q 189 857 192 769 l 61 872 l 61 929 l 454 929 l 454 872 l 326 857 q 324 679 324 767 q 324 510 324 592 l 550 639 z "},"Ḿ":{"ha":1253,"x_min":54,"x_max":1190,"o":"m 54 0 l 54 57 l 179 75 l 179 857 l 54 872 l 54 929 l 311 929 l 622 165 l 917 929 l 1190 929 l 1190 872 l 1063 857 q 1060 680 1060 769 q 1060 499 1060 590 l 1060 431 q 1060 251 1060 340 q 1063 72 1060 163 l 1190 57 l 1190 0 l 813 0 l 813 57 l 929 72 q 932 249 932 160 q 932 429 932 339 l 932 775 l 631 0 l 561 0 l 243 775 q 246 685 244 731 q 249 601 247 639 q 251 539 250 564 q 251 513 251 514 l 251 75 l 365 57 l 365 0 l 54 0 m 561 1021 q 692 1151 625 1089 q 740 1192 721 1181 q 778 1204 760 1204 q 815 1191 800 1204 q 831 1157 831 1178 q 816 1120 831 1138 q 761 1081 801 1103 q 674 1033 717 1057 q 586 986 631 1010 l 561 1021 z "},"Ṃ":{"ha":1253,"x_min":54,"x_max":1190,"o":"m 54 0 l 54 57 l 179 75 l 179 857 l 54 872 l 54 929 l 311 929 l 622 165 l 917 929 l 1190 929 l 1190 872 l 1063 857 q 1060 680 1060 769 q 1060 499 1060 590 l 1060 431 q 1060 251 1060 340 q 1063 72 1060 163 l 1190 57 l 1190 0 l 813 0 l 813 57 l 929 72 q 932 249 932 160 q 932 429 932 339 l 932 775 l 631 0 l 561 0 l 243 775 q 246 685 244 731 q 249 601 247 639 q 251 539 250 564 q 251 513 251 514 l 251 75 l 365 57 l 365 0 l 54 0 m 593 -282 q 526 -258 553 -282 q 500 -193 500 -233 q 526 -129 500 -154 q 593 -104 553 -104 q 660 -129 633 -104 q 686 -193 686 -154 q 660 -258 686 -233 q 593 -282 633 -282 z "},"Ń":{"ha":1021,"x_min":54,"x_max":965,"o":"m 54 0 l 54 57 l 172 74 l 172 844 l 161 861 l 61 872 l 61 929 l 275 929 l 776 240 l 776 854 l 631 872 l 631 929 l 965 929 l 965 872 l 847 854 l 847 -10 l 799 -10 l 243 747 l 243 76 l 390 57 l 390 0 l 54 0 m 431 1015 q 561 1146 494 1083 q 610 1187 590 1175 q 647 1199 629 1199 q 685 1185 669 1199 q 700 1151 700 1172 q 685 1115 700 1132 q 631 1075 671 1097 q 543 1028 586 1051 q 456 981 500 1004 l 431 1015 z "},"Ň":{"ha":1021,"x_min":54,"x_max":965,"o":"m 54 0 l 54 57 l 172 74 l 172 844 l 161 861 l 61 872 l 61 929 l 275 929 l 776 240 l 776 854 l 631 872 l 631 929 l 965 929 l 965 872 l 847 854 l 847 -10 l 799 -10 l 243 747 l 243 76 l 390 57 l 390 0 l 54 0 m 358 1192 l 518 1074 l 678 1192 l 711 1163 l 569 999 l 467 999 l 325 1163 l 358 1192 z "},"Ǹ":{"ha":1021,"x_min":54,"x_max":965,"o":"m 54 0 l 54 57 l 172 74 l 172 844 l 161 861 l 61 872 l 61 929 l 275 929 l 776 240 l 776 854 l 631 872 l 631 929 l 965 929 l 965 872 l 847 854 l 847 -10 l 799 -10 l 243 747 l 243 76 l 390 57 l 390 0 l 54 0 m 561 1035 l 536 1000 q 448 1047 492 1024 q 361 1093 404 1069 q 306 1133 321 1115 q 292 1171 292 1151 q 307 1205 292 1192 q 344 1218 322 1218 q 382 1206 363 1218 q 431 1165 401 1194 q 561 1035 499 1101 z "},"Ñ":{"ha":1021,"x_min":54,"x_max":965,"o":"m 54 0 l 54 57 l 172 74 l 172 844 l 161 861 l 61 872 l 61 929 l 275 929 l 776 240 l 776 854 l 631 872 l 631 929 l 965 929 l 965 872 l 847 854 l 847 -10 l 799 -10 l 243 747 l 243 76 l 390 57 l 390 0 l 54 0 m 272 1006 q 319 1136 285 1088 q 418 1185 354 1185 q 481 1171 456 1185 q 531 1138 507 1157 q 581 1094 557 1117 q 636 1071 604 1071 q 693 1101 671 1071 q 731 1182 715 1131 l 772 1168 q 725 1039 758 1088 q 628 990 692 990 q 563 1004 589 990 q 514 1036 538 1018 q 464 1081 488 1058 q 408 1103 440 1103 q 352 1074 375 1103 q 314 993 329 1044 l 272 1006 z "},"Ņ":{"ha":1021,"x_min":54,"x_max":965,"o":"m 54 0 l 54 57 l 172 74 l 172 844 l 161 861 l 61 872 l 61 929 l 275 929 l 776 240 l 776 854 l 631 872 l 631 929 l 965 929 l 965 872 l 847 854 l 847 -10 l 799 -10 l 243 747 l 243 76 l 390 57 l 390 0 l 54 0 m 618 -149 q 603 -214 618 -185 q 562 -266 588 -243 q 503 -306 536 -289 q 433 -335 469 -322 l 418 -294 q 490 -258 461 -279 q 543 -204 519 -237 q 497 -169 515 -192 q 479 -121 479 -147 q 499 -76 479 -93 q 544 -58 518 -58 q 606 -85 578 -58 q 615 -121 613 -107 q 618 -149 618 -135 z "},"Ṅ":{"ha":1021,"x_min":54,"x_max":965,"o":"m 54 0 l 54 57 l 172 74 l 172 844 l 161 861 l 61 872 l 61 929 l 275 929 l 776 240 l 776 854 l 631 872 l 631 929 l 965 929 l 965 872 l 847 854 l 847 -10 l 799 -10 l 243 747 l 243 76 l 390 57 l 390 0 l 54 0 m 510 996 q 443 1021 469 996 q 417 1085 417 1046 q 443 1149 417 1125 q 510 1174 469 1174 q 576 1149 550 1174 q 603 1085 603 1125 q 576 1021 603 1046 q 510 996 550 996 z "},"Ṇ":{"ha":1021,"x_min":54,"x_max":965,"o":"m 54 0 l 54 57 l 172 74 l 172 844 l 161 861 l 61 872 l 61 929 l 275 929 l 776 240 l 776 854 l 631 872 l 631 929 l 965 929 l 965 872 l 847 854 l 847 -10 l 799 -10 l 243 747 l 243 76 l 390 57 l 390 0 l 54 0 m 531 -282 q 464 -258 490 -282 q 438 -193 438 -233 q 464 -129 438 -154 q 531 -104 490 -104 q 597 -129 571 -104 q 624 -193 624 -154 q 597 -258 624 -233 q 531 -282 571 -282 z "},"Ṉ":{"ha":1021,"x_min":54,"x_max":965,"o":"m 54 0 l 54 57 l 172 74 l 172 844 l 161 861 l 61 872 l 61 929 l 275 929 l 776 240 l 776 854 l 631 872 l 631 929 l 965 929 l 965 872 l 847 854 l 847 -10 l 799 -10 l 243 747 l 243 76 l 390 57 l 390 0 l 54 0 m 335 -244 l 335 -157 l 699 -157 l 699 -244 l 335 -244 z "},"Ò":{"ha":982,"x_min":65,"x_max":917,"o":"m 217 465 q 233 311 217 386 q 282 178 249 236 q 367 84 315 119 q 492 49 419 49 q 615 84 564 49 q 700 178 667 119 q 749 311 733 236 q 764 465 764 386 q 749 618 764 543 q 700 751 733 693 q 615 845 667 810 q 492 881 564 881 q 367 845 419 881 q 282 751 315 810 q 233 618 249 693 q 217 465 217 543 m 492 950 q 649 919 572 950 q 785 826 725 888 q 881 674 844 765 q 917 465 917 583 q 881 260 917 350 q 785 107 844 169 q 649 12 725 44 q 492 -21 572 -21 q 333 10 410 -21 q 197 103 257 42 q 101 255 138 164 q 65 465 65 346 q 101 669 65 579 q 197 822 138 760 q 334 917 257 885 q 492 950 411 950 m 582 1035 l 557 1000 q 469 1047 513 1024 q 382 1093 425 1069 q 327 1133 342 1115 q 313 1171 313 1151 q 328 1205 313 1192 q 365 1218 343 1218 q 403 1206 383 1218 q 451 1165 422 1194 q 582 1035 519 1101 z "},"Ó":{"ha":982,"x_min":65,"x_max":917,"o":"m 217 465 q 233 311 217 386 q 282 178 249 236 q 367 84 315 119 q 492 49 419 49 q 615 84 564 49 q 700 178 667 119 q 749 311 733 236 q 764 465 764 386 q 749 618 764 543 q 700 751 733 693 q 615 845 667 810 q 492 881 564 881 q 367 845 419 881 q 282 751 315 810 q 233 618 249 693 q 217 465 217 543 m 492 950 q 649 919 572 950 q 785 826 725 888 q 881 674 844 765 q 917 465 917 583 q 881 260 917 350 q 785 107 844 169 q 649 12 725 44 q 492 -21 572 -21 q 333 10 410 -21 q 197 103 257 42 q 101 255 138 164 q 65 465 65 346 q 101 669 65 579 q 197 822 138 760 q 334 917 257 885 q 492 950 411 950 m 426 1035 q 557 1165 490 1103 q 606 1206 586 1194 q 643 1218 625 1218 q 681 1205 665 1218 q 696 1171 696 1192 q 681 1134 696 1151 q 626 1094 667 1117 q 539 1047 582 1071 q 451 1000 496 1024 l 426 1035 z "},"Ŏ":{"ha":982,"x_min":65,"x_max":917,"o":"m 217 465 q 233 311 217 386 q 282 178 249 236 q 367 84 315 119 q 492 49 419 49 q 615 84 564 49 q 700 178 667 119 q 749 311 733 236 q 764 465 764 386 q 749 618 764 543 q 700 751 733 693 q 615 845 667 810 q 492 881 564 881 q 367 845 419 881 q 282 751 315 810 q 233 618 249 693 q 217 465 217 543 m 492 950 q 649 919 572 950 q 785 826 725 888 q 881 674 844 765 q 917 465 917 583 q 881 260 917 350 q 785 107 844 169 q 649 12 725 44 q 492 -21 572 -21 q 333 10 410 -21 q 197 103 257 42 q 101 255 138 164 q 65 465 65 346 q 101 669 65 579 q 197 822 138 760 q 334 917 257 885 q 492 950 411 950 m 292 1206 l 335 1221 q 390 1144 350 1174 q 492 1114 429 1114 q 592 1144 554 1114 q 649 1221 631 1174 l 692 1206 q 673 1142 688 1174 q 634 1086 658 1111 q 574 1045 610 1061 q 492 1029 539 1029 q 409 1045 444 1029 q 349 1086 374 1061 q 310 1142 325 1111 q 292 1206 296 1174 z "},"Ô":{"ha":982,"x_min":65,"x_max":917,"o":"m 217 465 q 233 311 217 386 q 282 178 249 236 q 367 84 315 119 q 492 49 419 49 q 615 84 564 49 q 700 178 667 119 q 749 311 733 236 q 764 465 764 386 q 749 618 764 543 q 700 751 733 693 q 615 845 667 810 q 492 881 564 881 q 367 845 419 881 q 282 751 315 810 q 233 618 249 693 q 217 465 217 543 m 492 950 q 649 919 572 950 q 785 826 725 888 q 881 674 844 765 q 917 465 917 583 q 881 260 917 350 q 785 107 844 169 q 649 12 725 44 q 492 -21 572 -21 q 333 10 410 -21 q 197 103 257 42 q 101 255 138 164 q 65 465 65 346 q 101 669 65 579 q 197 822 138 760 q 334 917 257 885 q 492 950 411 950 m 515 1189 l 697 1029 l 671 994 l 492 1097 l 313 994 l 286 1029 l 468 1189 l 515 1189 z "},"Õ":{"ha":982,"x_min":65,"x_max":917,"o":"m 217 465 q 233 311 217 386 q 282 178 249 236 q 367 84 315 119 q 492 49 419 49 q 615 84 564 49 q 700 178 667 119 q 749 311 733 236 q 764 465 764 386 q 749 618 764 543 q 700 751 733 693 q 615 845 667 810 q 492 881 564 881 q 367 845 419 881 q 282 751 315 810 q 233 618 249 693 q 217 465 217 543 m 492 950 q 649 919 572 950 q 785 826 725 888 q 881 674 844 765 q 917 465 917 583 q 881 260 917 350 q 785 107 844 169 q 649 12 725 44 q 492 -21 572 -21 q 333 10 410 -21 q 197 103 257 42 q 101 255 138 164 q 65 465 65 346 q 101 669 65 579 q 197 822 138 760 q 334 917 257 885 q 492 950 411 950 m 242 1019 q 289 1150 254 1101 q 388 1199 324 1199 q 451 1185 425 1199 q 500 1151 476 1171 q 550 1108 526 1131 q 606 1085 574 1085 q 663 1115 640 1085 q 700 1196 685 1144 l 742 1182 q 694 1053 728 1101 q 597 1004 661 1004 q 533 1018 558 1004 q 483 1050 507 1032 q 433 1094 457 1072 q 378 1117 410 1117 q 322 1088 344 1117 q 283 1007 299 1058 l 242 1019 z "},"Ö":{"ha":982,"x_min":65,"x_max":917,"o":"m 217 465 q 233 311 217 386 q 282 178 249 236 q 367 84 315 119 q 492 49 419 49 q 615 84 564 49 q 700 178 667 119 q 749 311 733 236 q 764 465 764 386 q 749 618 764 543 q 700 751 733 693 q 615 845 667 810 q 492 881 564 881 q 367 845 419 881 q 282 751 315 810 q 233 618 249 693 q 217 465 217 543 m 492 950 q 649 919 572 950 q 785 826 725 888 q 881 674 844 765 q 917 465 917 583 q 881 260 917 350 q 785 107 844 169 q 649 12 725 44 q 492 -21 572 -21 q 333 10 410 -21 q 197 103 257 42 q 101 255 138 164 q 65 465 65 346 q 101 669 65 579 q 197 822 138 760 q 334 917 257 885 q 492 950 411 950 m 336 1033 q 280 1055 304 1033 q 256 1110 256 1076 q 280 1165 256 1143 q 336 1186 304 1186 q 392 1165 369 1186 q 415 1110 415 1143 q 392 1055 415 1076 q 336 1033 369 1033 m 646 1033 q 590 1055 613 1033 q 567 1110 567 1076 q 590 1165 567 1143 q 646 1186 613 1186 q 702 1165 678 1186 q 726 1110 726 1143 q 702 1055 726 1076 q 646 1033 678 1033 z "},"Ō":{"ha":982,"x_min":65,"x_max":917,"o":"m 217 465 q 233 311 217 386 q 282 178 249 236 q 367 84 315 119 q 492 49 419 49 q 615 84 564 49 q 700 178 667 119 q 749 311 733 236 q 764 465 764 386 q 749 618 764 543 q 700 751 733 693 q 615 845 667 810 q 492 881 564 881 q 367 845 419 881 q 282 751 315 810 q 233 618 249 693 q 217 465 217 543 m 492 950 q 649 919 572 950 q 785 826 725 888 q 881 674 844 765 q 917 465 917 583 q 881 260 917 350 q 785 107 844 169 q 649 12 725 44 q 492 -21 572 -21 q 333 10 410 -21 q 197 103 257 42 q 101 255 138 164 q 65 465 65 346 q 101 669 65 579 q 197 822 138 760 q 334 917 257 885 q 492 950 411 950 m 282 1053 l 282 1140 l 701 1140 l 701 1053 l 282 1053 z "},"Ő":{"ha":982,"x_min":65,"x_max":917,"o":"m 217 465 q 233 311 217 386 q 282 178 249 236 q 367 84 315 119 q 492 49 419 49 q 615 84 564 49 q 700 178 667 119 q 749 311 733 236 q 764 465 764 386 q 749 618 764 543 q 700 751 733 693 q 615 845 667 810 q 492 881 564 881 q 367 845 419 881 q 282 751 315 810 q 233 618 249 693 q 217 465 217 543 m 492 950 q 649 919 572 950 q 785 826 725 888 q 881 674 844 765 q 917 465 917 583 q 881 260 917 350 q 785 107 844 169 q 649 12 725 44 q 492 -21 572 -21 q 333 10 410 -21 q 197 103 257 42 q 101 255 138 164 q 65 465 65 346 q 101 669 65 579 q 197 822 138 760 q 334 917 257 885 q 492 950 411 950 m 357 1013 l 435 1175 q 470 1220 450 1207 q 507 1233 490 1233 q 542 1220 526 1233 q 557 1186 557 1207 q 550 1158 557 1174 q 526 1125 543 1143 l 393 988 l 357 1013 m 568 1013 l 646 1175 q 681 1220 661 1207 q 719 1233 701 1233 q 753 1220 739 1233 q 768 1186 768 1207 q 761 1158 768 1174 q 738 1125 754 1143 l 604 988 l 568 1013 z "},"Ǒ":{"ha":982,"x_min":65,"x_max":917,"o":"m 217 465 q 233 311 217 386 q 282 178 249 236 q 367 84 315 119 q 492 49 419 49 q 615 84 564 49 q 700 178 667 119 q 749 311 733 236 q 764 465 764 386 q 749 618 764 543 q 700 751 733 693 q 615 845 667 810 q 492 881 564 881 q 367 845 419 881 q 282 751 315 810 q 233 618 249 693 q 217 465 217 543 m 492 950 q 649 919 572 950 q 785 826 725 888 q 881 674 844 765 q 917 465 917 583 q 881 260 917 350 q 785 107 844 169 q 649 12 725 44 q 492 -21 572 -21 q 333 10 410 -21 q 197 103 257 42 q 101 255 138 164 q 65 465 65 346 q 101 669 65 579 q 197 822 138 760 q 334 917 257 885 q 492 950 411 950 m 332 1206 l 492 1088 l 651 1206 l 685 1176 l 543 1013 l 440 1013 l 299 1176 l 332 1206 z "},"Ố":{"ha":982,"x_min":65,"x_max":917,"o":"m 217 465 q 233 311 217 386 q 282 178 249 236 q 367 84 315 119 q 492 49 419 49 q 615 84 564 49 q 700 178 667 119 q 749 311 733 236 q 764 465 764 386 q 749 618 764 543 q 700 751 733 693 q 615 845 667 810 q 492 881 564 881 q 367 845 419 881 q 282 751 315 810 q 233 618 249 693 q 217 465 217 543 m 492 950 q 649 919 572 950 q 785 826 725 888 q 881 674 844 765 q 917 465 917 583 q 881 260 917 350 q 785 107 844 169 q 649 12 725 44 q 492 -21 572 -21 q 333 10 410 -21 q 197 103 257 42 q 101 255 138 164 q 65 465 65 346 q 101 669 65 579 q 197 822 138 760 q 334 917 257 885 q 492 950 411 950 m 324 994 l 297 1029 l 479 1189 l 526 1189 l 708 1029 l 682 994 l 503 1097 l 324 994 m 674 1113 l 644 1143 l 711 1226 q 746 1260 729 1250 q 778 1269 763 1269 q 810 1258 797 1269 q 822 1228 822 1246 q 811 1196 822 1211 q 758 1158 800 1181 l 674 1113 z "},"Ộ":{"ha":982,"x_min":65,"x_max":917,"o":"m 217 465 q 233 311 217 386 q 282 178 249 236 q 367 84 315 119 q 492 49 419 49 q 615 84 564 49 q 700 178 667 119 q 749 311 733 236 q 764 465 764 386 q 749 618 764 543 q 700 751 733 693 q 615 845 667 810 q 492 881 564 881 q 367 845 419 881 q 282 751 315 810 q 233 618 249 693 q 217 465 217 543 m 492 950 q 649 919 572 950 q 785 826 725 888 q 881 674 844 765 q 917 465 917 583 q 881 260 917 350 q 785 107 844 169 q 649 12 725 44 q 492 -21 572 -21 q 333 10 410 -21 q 197 103 257 42 q 101 255 138 164 q 65 465 65 346 q 101 669 65 579 q 197 822 138 760 q 334 917 257 885 q 492 950 411 950 m 515 1189 l 697 1029 l 671 994 l 492 1097 l 313 994 l 286 1029 l 468 1189 l 515 1189 m 490 -282 q 424 -258 450 -282 q 397 -193 397 -233 q 424 -129 397 -154 q 490 -104 450 -104 q 557 -129 531 -104 q 583 -193 583 -154 q 557 -258 583 -233 q 490 -282 531 -282 z "},"Ồ":{"ha":982,"x_min":65,"x_max":917,"o":"m 217 465 q 233 311 217 386 q 282 178 249 236 q 367 84 315 119 q 492 49 419 49 q 615 84 564 49 q 700 178 667 119 q 749 311 733 236 q 764 465 764 386 q 749 618 764 543 q 700 751 733 693 q 615 845 667 810 q 492 881 564 881 q 367 845 419 881 q 282 751 315 810 q 233 618 249 693 q 217 465 217 543 m 492 950 q 649 919 572 950 q 785 826 725 888 q 881 674 844 765 q 917 465 917 583 q 881 260 917 350 q 785 107 844 169 q 649 12 725 44 q 492 -21 572 -21 q 333 10 410 -21 q 197 103 257 42 q 101 255 138 164 q 65 465 65 346 q 101 669 65 579 q 197 822 138 760 q 334 917 257 885 q 492 950 411 950 m 669 994 l 490 1097 l 311 994 l 285 1029 l 467 1189 l 514 1189 l 696 1029 l 669 994 m 306 1115 l 221 1158 q 168 1195 179 1179 q 157 1228 157 1211 q 169 1258 157 1246 q 201 1269 182 1269 q 233 1260 217 1269 q 269 1226 250 1251 l 336 1146 l 306 1115 z "},"Ổ":{"ha":982,"x_min":65,"x_max":917,"o":"m 217 465 q 233 311 217 386 q 282 178 249 236 q 367 84 315 119 q 492 49 419 49 q 615 84 564 49 q 700 178 667 119 q 749 311 733 236 q 764 465 764 386 q 749 618 764 543 q 700 751 733 693 q 615 845 667 810 q 492 881 564 881 q 367 845 419 881 q 282 751 315 810 q 233 618 249 693 q 217 465 217 543 m 492 950 q 649 919 572 950 q 785 826 725 888 q 881 674 844 765 q 917 465 917 583 q 881 260 917 350 q 785 107 844 169 q 649 12 725 44 q 492 -21 572 -21 q 333 10 410 -21 q 197 103 257 42 q 101 255 138 164 q 65 465 65 346 q 101 669 65 579 q 197 822 138 760 q 334 917 257 885 q 492 950 411 950 m 311 994 l 285 1029 l 467 1189 l 514 1189 l 696 1029 l 669 994 l 490 1097 l 311 994 m 644 1135 q 701 1153 685 1143 q 718 1181 718 1164 q 603 1228 718 1218 l 617 1321 q 786 1200 786 1304 q 753 1128 786 1157 q 657 1092 719 1099 l 644 1135 z "},"Ỗ":{"ha":982,"x_min":65,"x_max":917,"o":"m 217 465 q 233 311 217 386 q 282 178 249 236 q 367 84 315 119 q 492 49 419 49 q 615 84 564 49 q 700 178 667 119 q 749 311 733 236 q 764 465 764 386 q 749 618 764 543 q 700 751 733 693 q 615 845 667 810 q 492 881 564 881 q 367 845 419 881 q 282 751 315 810 q 233 618 249 693 q 217 465 217 543 m 492 950 q 649 919 572 950 q 785 826 725 888 q 881 674 844 765 q 917 465 917 583 q 881 260 917 350 q 785 107 844 169 q 649 12 725 44 q 492 -21 572 -21 q 333 10 410 -21 q 197 103 257 42 q 101 255 138 164 q 65 465 65 346 q 101 669 65 579 q 197 822 138 760 q 334 917 257 885 q 492 950 411 950 m 307 985 l 285 1019 l 467 1151 l 514 1151 l 696 1019 l 674 985 l 490 1067 l 307 985 m 264 1200 q 305 1291 272 1257 q 396 1325 338 1325 q 455 1316 432 1325 q 500 1294 478 1307 q 547 1272 524 1282 q 597 1261 569 1261 q 683 1325 657 1261 l 717 1310 q 675 1219 707 1253 q 585 1186 643 1186 q 525 1195 549 1186 q 481 1217 501 1204 q 435 1240 458 1229 q 383 1250 411 1250 q 297 1186 324 1250 l 264 1200 z "},"Ọ":{"ha":982,"x_min":65,"x_max":917,"o":"m 217 465 q 233 311 217 386 q 282 178 249 236 q 367 84 315 119 q 492 49 419 49 q 615 84 564 49 q 700 178 667 119 q 749 311 733 236 q 764 465 764 386 q 749 618 764 543 q 700 751 733 693 q 615 845 667 810 q 492 881 564 881 q 367 845 419 881 q 282 751 315 810 q 233 618 249 693 q 217 465 217 543 m 492 950 q 649 919 572 950 q 785 826 725 888 q 881 674 844 765 q 917 465 917 583 q 881 260 917 350 q 785 107 844 169 q 649 12 725 44 q 492 -21 572 -21 q 333 10 410 -21 q 197 103 257 42 q 101 255 138 164 q 65 465 65 346 q 101 669 65 579 q 197 822 138 760 q 334 917 257 885 q 492 950 411 950 m 490 -282 q 424 -258 450 -282 q 397 -193 397 -233 q 424 -129 397 -154 q 490 -104 450 -104 q 557 -129 531 -104 q 583 -193 583 -154 q 557 -258 583 -233 q 490 -282 531 -282 z "},"Ỏ":{"ha":982,"x_min":65,"x_max":917,"o":"m 217 465 q 233 311 217 386 q 282 178 249 236 q 367 84 315 119 q 492 49 419 49 q 615 84 564 49 q 700 178 667 119 q 749 311 733 236 q 764 465 764 386 q 749 618 764 543 q 700 751 733 693 q 615 845 667 810 q 492 881 564 881 q 367 845 419 881 q 282 751 315 810 q 233 618 249 693 q 217 465 217 543 m 492 950 q 649 919 572 950 q 785 826 725 888 q 881 674 844 765 q 917 465 917 583 q 881 260 917 350 q 785 107 844 169 q 649 12 725 44 q 492 -21 572 -21 q 333 10 410 -21 q 197 103 257 42 q 101 255 138 164 q 65 465 65 346 q 101 669 65 579 q 197 822 138 760 q 334 917 257 885 q 492 950 411 950 m 464 996 l 451 1039 q 508 1058 492 1047 q 525 1085 525 1068 q 410 1132 525 1122 l 424 1225 q 593 1104 593 1210 q 559 1033 593 1061 q 464 996 525 1004 z "},"Ơ":{"ha":982,"x_min":65,"x_max":917,"o":"m 217 465 q 233 311 217 386 q 282 178 249 236 q 367 84 315 119 q 492 49 419 49 q 615 84 564 49 q 700 178 667 119 q 749 311 733 236 q 764 465 764 386 q 749 618 764 543 q 700 751 733 693 q 615 845 667 810 q 492 881 564 881 q 367 845 419 881 q 282 751 315 810 q 233 618 249 693 q 217 465 217 543 m 492 950 q 649 919 572 950 q 785 826 725 888 q 881 674 844 765 q 917 465 917 583 q 881 260 917 350 q 785 107 844 169 q 649 12 725 44 q 492 -21 572 -21 q 333 10 410 -21 q 197 103 257 42 q 101 255 138 164 q 65 465 65 346 q 101 669 65 579 q 197 822 138 760 q 334 917 257 885 q 492 950 411 950 m 708 799 l 703 836 q 797 874 767 847 q 828 949 828 900 q 822 978 828 964 q 810 1004 817 992 q 799 1029 804 1017 q 793 1057 793 1042 q 808 1090 793 1074 q 847 1107 822 1107 q 871 1104 858 1107 q 897 1090 883 1101 q 917 1014 917 1049 q 901 930 917 968 q 857 864 885 892 q 791 819 829 836 q 708 799 753 803 z "},"Ớ":{"ha":982,"x_min":65,"x_max":917,"o":"m 217 465 q 233 311 217 386 q 282 178 249 236 q 367 84 315 119 q 492 49 419 49 q 615 84 564 49 q 700 178 667 119 q 749 311 733 236 q 764 465 764 386 q 749 618 764 543 q 700 751 733 693 q 615 845 667 810 q 492 881 564 881 q 367 845 419 881 q 282 751 315 810 q 233 618 249 693 q 217 465 217 543 m 492 950 q 649 919 572 950 q 785 826 725 888 q 881 674 844 765 q 917 465 917 583 q 881 260 917 350 q 785 107 844 169 q 649 12 725 44 q 492 -21 572 -21 q 333 10 410 -21 q 197 103 257 42 q 101 255 138 164 q 65 465 65 346 q 101 669 65 579 q 197 822 138 760 q 334 917 257 885 q 492 950 411 950 m 708 799 l 703 836 q 797 874 767 847 q 828 949 828 900 q 822 978 828 964 q 810 1004 817 992 q 799 1029 804 1017 q 793 1057 793 1042 q 808 1090 793 1074 q 847 1107 822 1107 q 871 1104 858 1107 q 897 1090 883 1101 q 917 1014 917 1049 q 901 930 917 968 q 857 864 885 892 q 791 819 829 836 q 708 799 753 803 m 397 1035 q 528 1165 461 1103 q 576 1206 557 1194 q 614 1218 596 1218 q 651 1205 636 1218 q 667 1171 667 1192 q 652 1134 667 1151 q 597 1094 638 1117 q 510 1047 553 1071 q 422 1000 467 1024 l 397 1035 z "},"Ợ":{"ha":982,"x_min":65,"x_max":917,"o":"m 217 465 q 233 311 217 386 q 282 178 249 236 q 367 84 315 119 q 492 49 419 49 q 615 84 564 49 q 700 178 667 119 q 749 311 733 236 q 764 465 764 386 q 749 618 764 543 q 700 751 733 693 q 615 845 667 810 q 492 881 564 881 q 367 845 419 881 q 282 751 315 810 q 233 618 249 693 q 217 465 217 543 m 492 950 q 649 919 572 950 q 785 826 725 888 q 881 674 844 765 q 917 465 917 583 q 881 260 917 350 q 785 107 844 169 q 649 12 725 44 q 492 -21 572 -21 q 333 10 410 -21 q 197 103 257 42 q 101 255 138 164 q 65 465 65 346 q 101 669 65 579 q 197 822 138 760 q 334 917 257 885 q 492 950 411 950 m 708 799 l 703 836 q 797 874 767 847 q 828 949 828 900 q 822 978 828 964 q 810 1004 817 992 q 799 1029 804 1017 q 793 1057 793 1042 q 808 1090 793 1074 q 847 1107 822 1107 q 871 1104 858 1107 q 897 1090 883 1101 q 917 1014 917 1049 q 901 930 917 968 q 857 864 885 892 q 791 819 829 836 q 708 799 753 803 m 490 -282 q 424 -258 450 -282 q 397 -193 397 -233 q 424 -129 397 -154 q 490 -104 450 -104 q 557 -129 531 -104 q 583 -193 583 -154 q 557 -258 583 -233 q 490 -282 531 -282 z "},"Ờ":{"ha":982,"x_min":65,"x_max":917,"o":"m 217 465 q 233 311 217 386 q 282 178 249 236 q 367 84 315 119 q 492 49 419 49 q 615 84 564 49 q 700 178 667 119 q 749 311 733 236 q 764 465 764 386 q 749 618 764 543 q 700 751 733 693 q 615 845 667 810 q 492 881 564 881 q 367 845 419 881 q 282 751 315 810 q 233 618 249 693 q 217 465 217 543 m 492 950 q 649 919 572 950 q 785 826 725 888 q 881 674 844 765 q 917 465 917 583 q 881 260 917 350 q 785 107 844 169 q 649 12 725 44 q 492 -21 572 -21 q 333 10 410 -21 q 197 103 257 42 q 101 255 138 164 q 65 465 65 346 q 101 669 65 579 q 197 822 138 760 q 334 917 257 885 q 492 950 411 950 m 708 799 l 703 836 q 797 874 767 847 q 828 949 828 900 q 822 978 828 964 q 810 1004 817 992 q 799 1029 804 1017 q 793 1057 793 1042 q 808 1090 793 1074 q 847 1107 822 1107 q 871 1104 858 1107 q 897 1090 883 1101 q 917 1014 917 1049 q 901 930 917 968 q 857 864 885 892 q 791 819 829 836 q 708 799 753 803 m 583 1035 l 558 1000 q 470 1047 514 1024 q 383 1093 426 1069 q 328 1133 343 1115 q 314 1171 314 1151 q 329 1205 314 1192 q 367 1218 344 1218 q 404 1206 385 1218 q 453 1165 424 1194 q 583 1035 521 1101 z "},"Ở":{"ha":982,"x_min":65,"x_max":917,"o":"m 217 465 q 233 311 217 386 q 282 178 249 236 q 367 84 315 119 q 492 49 419 49 q 615 84 564 49 q 700 178 667 119 q 749 311 733 236 q 764 465 764 386 q 749 618 764 543 q 700 751 733 693 q 615 845 667 810 q 492 881 564 881 q 367 845 419 881 q 282 751 315 810 q 233 618 249 693 q 217 465 217 543 m 492 950 q 649 919 572 950 q 785 826 725 888 q 881 674 844 765 q 917 465 917 583 q 881 260 917 350 q 785 107 844 169 q 649 12 725 44 q 492 -21 572 -21 q 333 10 410 -21 q 197 103 257 42 q 101 255 138 164 q 65 465 65 346 q 101 669 65 579 q 197 822 138 760 q 334 917 257 885 q 492 950 411 950 m 708 799 l 703 836 q 797 874 767 847 q 828 949 828 900 q 822 978 828 964 q 810 1004 817 992 q 799 1029 804 1017 q 793 1057 793 1042 q 808 1090 793 1074 q 847 1107 822 1107 q 871 1104 858 1107 q 897 1090 883 1101 q 917 1014 917 1049 q 901 930 917 968 q 857 864 885 892 q 791 819 829 836 q 708 799 753 803 m 464 996 l 451 1039 q 508 1058 492 1047 q 525 1085 525 1068 q 410 1132 525 1122 l 424 1225 q 593 1104 593 1210 q 559 1033 593 1061 q 464 996 525 1004 z "},"Ỡ":{"ha":982,"x_min":65,"x_max":917,"o":"m 217 465 q 233 311 217 386 q 282 178 249 236 q 367 84 315 119 q 492 49 419 49 q 615 84 564 49 q 700 178 667 119 q 749 311 733 236 q 764 465 764 386 q 749 618 764 543 q 700 751 733 693 q 615 845 667 810 q 492 881 564 881 q 367 845 419 881 q 282 751 315 810 q 233 618 249 693 q 217 465 217 543 m 492 950 q 649 919 572 950 q 785 826 725 888 q 881 674 844 765 q 917 465 917 583 q 881 260 917 350 q 785 107 844 169 q 649 12 725 44 q 492 -21 572 -21 q 333 10 410 -21 q 197 103 257 42 q 101 255 138 164 q 65 465 65 346 q 101 669 65 579 q 197 822 138 760 q 334 917 257 885 q 492 950 411 950 m 708 799 l 703 836 q 797 874 767 847 q 828 949 828 900 q 822 978 828 964 q 810 1004 817 992 q 799 1029 804 1017 q 793 1057 793 1042 q 808 1090 793 1074 q 847 1107 822 1107 q 871 1104 858 1107 q 897 1090 883 1101 q 917 1014 917 1049 q 901 930 917 968 q 857 864 885 892 q 791 819 829 836 q 708 799 753 803 m 231 1019 q 278 1150 243 1101 q 376 1199 313 1199 q 440 1185 414 1199 q 489 1151 465 1171 q 539 1108 515 1131 q 594 1085 563 1085 q 651 1115 629 1085 q 689 1196 674 1144 l 731 1182 q 683 1053 717 1101 q 586 1004 650 1004 q 522 1018 547 1004 q 472 1050 496 1032 q 422 1094 446 1072 q 367 1117 399 1117 q 310 1088 333 1117 q 272 1007 288 1058 l 231 1019 z "},"Ø":{"ha":982,"x_min":65,"x_max":917,"o":"m 897 911 l 807 801 q 887 657 857 740 q 917 465 917 574 q 881 260 917 350 q 785 107 844 169 q 649 12 725 44 q 492 -21 572 -21 q 349 5 418 -21 q 221 81 279 31 l 132 -29 l 72 18 l 168 136 q 93 279 121 197 q 65 465 65 361 q 101 669 65 579 q 197 822 138 760 q 334 917 257 885 q 492 950 411 950 q 630 926 563 950 q 754 854 697 903 l 839 958 l 897 911 m 217 465 q 225 348 217 406 q 253 240 233 290 l 688 772 q 606 851 654 821 q 492 881 558 881 q 367 845 419 881 q 282 751 315 810 q 233 618 249 693 q 217 465 217 543 m 492 49 q 615 84 564 49 q 700 178 667 119 q 749 311 733 236 q 764 465 764 386 q 754 587 764 528 q 725 699 744 646 l 290 165 q 374 81 324 113 q 492 49 424 49 z "},"Œ":{"ha":1303,"x_min":65,"x_max":1254,"o":"m 217 465 q 234 310 217 385 q 290 176 251 235 q 391 83 329 118 q 540 49 453 49 q 600 51 575 49 q 653 63 625 54 q 656 246 656 154 q 656 431 656 338 l 656 499 q 656 683 656 590 q 653 867 656 775 q 599 878 625 875 q 542 881 574 881 q 391 846 453 881 q 290 753 329 811 q 234 621 251 696 q 217 465 217 546 m 1175 247 l 1254 247 l 1244 0 l 708 0 q 531 -21 597 -21 q 351 12 435 -21 q 203 106 267 44 q 102 258 139 168 q 65 465 65 349 q 102 671 65 581 q 203 823 139 761 q 351 917 267 885 q 531 950 435 950 q 708 929 597 950 l 1217 929 l 1226 683 l 1147 683 l 1117 860 l 790 860 q 788 682 788 771 q 788 507 788 593 l 990 507 l 1010 639 l 1074 639 l 1074 311 l 1010 311 l 992 442 l 788 442 q 788 247 788 338 q 790 69 788 157 l 1144 69 l 1175 247 z "},"Ŕ":{"ha":904,"x_min":61,"x_max":885,"o":"m 192 431 l 192 499 q 192 678 192 589 q 189 857 192 767 l 61 872 l 61 929 l 450 929 q 699 865 610 929 q 788 686 788 801 q 773 608 788 646 q 729 538 758 569 q 656 484 700 507 q 554 451 613 461 q 656 399 617 439 q 718 275 694 358 l 778 69 l 885 57 l 885 0 q 838 -10 864 -7 q 781 -14 813 -14 q 682 6 714 -14 q 638 75 650 25 l 582 297 q 557 365 572 339 q 519 406 542 392 q 465 426 496 421 q 392 431 433 431 l 324 431 q 324 243 324 331 q 326 72 324 156 l 454 57 l 454 0 l 61 0 l 61 57 l 189 72 q 192 249 192 160 q 192 431 192 339 m 446 865 l 326 865 q 324 683 324 774 q 324 493 324 593 l 431 493 q 597 547 543 493 q 650 685 650 601 q 602 819 650 772 q 446 865 554 865 m 393 1035 q 524 1165 457 1103 q 572 1206 553 1194 q 610 1218 592 1218 q 647 1205 632 1218 q 663 1171 663 1192 q 648 1134 663 1151 q 593 1094 633 1117 q 506 1047 549 1071 q 418 1000 463 1024 l 393 1035 z "},"Ř":{"ha":904,"x_min":61,"x_max":885,"o":"m 192 431 l 192 499 q 192 678 192 589 q 189 857 192 767 l 61 872 l 61 929 l 450 929 q 699 865 610 929 q 788 686 788 801 q 773 608 788 646 q 729 538 758 569 q 656 484 700 507 q 554 451 613 461 q 656 399 617 439 q 718 275 694 358 l 778 69 l 885 57 l 885 0 q 838 -10 864 -7 q 781 -14 813 -14 q 682 6 714 -14 q 638 75 650 25 l 582 297 q 557 365 572 339 q 519 406 542 392 q 465 426 496 421 q 392 431 433 431 l 324 431 q 324 243 324 331 q 326 72 324 156 l 454 57 l 454 0 l 61 0 l 61 57 l 189 72 q 192 249 192 160 q 192 431 192 339 m 446 865 l 326 865 q 324 683 324 774 q 324 493 324 593 l 431 493 q 597 547 543 493 q 650 685 650 601 q 602 819 650 772 q 446 865 554 865 m 286 1206 l 446 1088 l 606 1206 l 639 1176 l 497 1013 l 394 1013 l 253 1176 l 286 1206 z "},"Ŗ":{"ha":904,"x_min":61,"x_max":885,"o":"m 192 431 l 192 499 q 192 678 192 589 q 189 857 192 767 l 61 872 l 61 929 l 450 929 q 699 865 610 929 q 788 686 788 801 q 773 608 788 646 q 729 538 758 569 q 656 484 700 507 q 554 451 613 461 q 656 399 617 439 q 718 275 694 358 l 778 69 l 885 57 l 885 0 q 838 -10 864 -7 q 781 -14 813 -14 q 682 6 714 -14 q 638 75 650 25 l 582 297 q 557 365 572 339 q 519 406 542 392 q 465 426 496 421 q 392 431 433 431 l 324 431 q 324 243 324 331 q 326 72 324 156 l 454 57 l 454 0 l 61 0 l 61 57 l 189 72 q 192 249 192 160 q 192 431 192 339 m 446 865 l 326 865 q 324 683 324 774 q 324 493 324 593 l 431 493 q 597 547 543 493 q 650 685 650 601 q 602 819 650 772 q 446 865 554 865 m 572 -149 q 557 -214 572 -185 q 516 -266 542 -243 q 457 -306 490 -289 q 388 -335 424 -322 l 372 -294 q 444 -258 415 -279 q 497 -204 474 -237 q 451 -169 469 -192 q 433 -121 433 -147 q 453 -76 433 -93 q 499 -58 472 -58 q 560 -85 532 -58 q 569 -121 567 -107 q 572 -149 572 -135 z "},"Ṛ":{"ha":904,"x_min":61,"x_max":885,"o":"m 192 431 l 192 499 q 192 678 192 589 q 189 857 192 767 l 61 872 l 61 929 l 450 929 q 699 865 610 929 q 788 686 788 801 q 773 608 788 646 q 729 538 758 569 q 656 484 700 507 q 554 451 613 461 q 656 399 617 439 q 718 275 694 358 l 778 69 l 885 57 l 885 0 q 838 -10 864 -7 q 781 -14 813 -14 q 682 6 714 -14 q 638 75 650 25 l 582 297 q 557 365 572 339 q 519 406 542 392 q 465 426 496 421 q 392 431 433 431 l 324 431 q 324 243 324 331 q 326 72 324 156 l 454 57 l 454 0 l 61 0 l 61 57 l 189 72 q 192 249 192 160 q 192 431 192 339 m 446 865 l 326 865 q 324 683 324 774 q 324 493 324 593 l 431 493 q 597 547 543 493 q 650 685 650 601 q 602 819 650 772 q 446 865 554 865 m 500 -282 q 433 -258 460 -282 q 407 -193 407 -233 q 433 -129 407 -154 q 500 -104 460 -104 q 567 -129 540 -104 q 593 -193 593 -154 q 567 -258 593 -233 q 500 -282 540 -282 z "},"Ṝ":{"ha":904,"x_min":61,"x_max":885,"o":"m 192 431 l 192 499 q 192 678 192 589 q 189 857 192 767 l 61 872 l 61 929 l 450 929 q 699 865 610 929 q 788 686 788 801 q 773 608 788 646 q 729 538 758 569 q 656 484 700 507 q 554 451 613 461 q 656 399 617 439 q 718 275 694 358 l 778 69 l 885 57 l 885 0 q 838 -10 864 -7 q 781 -14 813 -14 q 682 6 714 -14 q 638 75 650 25 l 582 297 q 557 365 572 339 q 519 406 542 392 q 465 426 496 421 q 392 431 433 431 l 324 431 q 324 243 324 331 q 326 72 324 156 l 454 57 l 454 0 l 61 0 l 61 57 l 189 72 q 192 249 192 160 q 192 431 192 339 m 446 865 l 326 865 q 324 683 324 774 q 324 493 324 593 l 431 493 q 597 547 543 493 q 650 685 650 601 q 602 819 650 772 q 446 865 554 865 m 500 -282 q 433 -258 460 -282 q 407 -193 407 -233 q 433 -129 407 -154 q 500 -104 460 -104 q 567 -129 540 -104 q 593 -193 593 -154 q 567 -258 593 -233 q 500 -282 540 -282 m 247 1053 l 247 1140 l 667 1140 l 667 1053 l 247 1053 z "},"Ṟ":{"ha":904,"x_min":61,"x_max":885,"o":"m 192 431 l 192 499 q 192 678 192 589 q 189 857 192 767 l 61 872 l 61 929 l 450 929 q 699 865 610 929 q 788 686 788 801 q 773 608 788 646 q 729 538 758 569 q 656 484 700 507 q 554 451 613 461 q 656 399 617 439 q 718 275 694 358 l 778 69 l 885 57 l 885 0 q 838 -10 864 -7 q 781 -14 813 -14 q 682 6 714 -14 q 638 75 650 25 l 582 297 q 557 365 572 339 q 519 406 542 392 q 465 426 496 421 q 392 431 433 431 l 324 431 q 324 243 324 331 q 326 72 324 156 l 454 57 l 454 0 l 61 0 l 61 57 l 189 72 q 192 249 192 160 q 192 431 192 339 m 446 865 l 326 865 q 324 683 324 774 q 324 493 324 593 l 431 493 q 597 547 543 493 q 650 685 650 601 q 602 819 650 772 q 446 865 554 865 m 297 -244 l 297 -157 l 661 -157 l 661 -244 l 297 -244 z "},"Ś":{"ha":711,"x_min":56,"x_max":656,"o":"m 322 49 q 479 92 421 49 q 538 217 538 136 q 527 275 538 250 q 496 320 517 300 q 443 358 475 340 q 367 392 411 375 l 313 414 q 215 461 258 435 q 140 522 171 488 q 91 598 108 556 q 74 693 74 640 q 97 801 74 753 q 163 882 121 849 q 263 933 206 915 q 386 950 319 950 q 513 931 457 950 q 614 878 569 911 l 606 696 l 521 696 l 492 853 q 378 881 440 881 q 244 841 299 881 q 190 724 190 801 q 231 617 190 658 q 347 547 272 576 l 403 526 q 597 408 539 474 q 656 243 656 342 q 631 133 656 182 q 563 49 607 83 q 459 -3 519 15 q 326 -21 399 -21 q 176 0 247 -21 q 56 53 104 21 l 64 247 l 150 247 l 178 83 q 244 57 210 65 q 322 49 278 49 m 306 1035 q 436 1165 369 1103 q 485 1206 465 1194 q 522 1218 504 1218 q 560 1205 544 1218 q 575 1171 575 1192 q 560 1134 575 1151 q 506 1094 546 1117 q 418 1047 461 1071 q 331 1000 375 1024 l 306 1035 z "},"Š":{"ha":711,"x_min":56,"x_max":656,"o":"m 322 49 q 479 92 421 49 q 538 217 538 136 q 527 275 538 250 q 496 320 517 300 q 443 358 475 340 q 367 392 411 375 l 313 414 q 215 461 258 435 q 140 522 171 488 q 91 598 108 556 q 74 693 74 640 q 97 801 74 753 q 163 882 121 849 q 263 933 206 915 q 386 950 319 950 q 513 931 457 950 q 614 878 569 911 l 606 696 l 521 696 l 492 853 q 378 881 440 881 q 244 841 299 881 q 190 724 190 801 q 231 617 190 658 q 347 547 272 576 l 403 526 q 597 408 539 474 q 656 243 656 342 q 631 133 656 182 q 563 49 607 83 q 459 -3 519 15 q 326 -21 399 -21 q 176 0 247 -21 q 56 53 104 21 l 64 247 l 150 247 l 178 83 q 244 57 210 65 q 322 49 278 49 m 217 1206 l 376 1088 l 536 1206 l 569 1176 l 428 1013 l 325 1013 l 183 1176 l 217 1206 z "},"Ş":{"ha":711,"x_min":56,"x_max":656,"o":"m 322 49 q 479 92 421 49 q 538 217 538 136 q 527 275 538 250 q 496 320 517 300 q 443 358 475 340 q 367 392 411 375 l 313 414 q 215 461 258 435 q 140 522 171 488 q 91 598 108 556 q 74 693 74 640 q 97 801 74 753 q 163 882 121 849 q 263 933 206 915 q 386 950 319 950 q 513 931 457 950 q 614 878 569 911 l 606 696 l 521 696 l 492 853 q 378 881 440 881 q 244 841 299 881 q 190 724 190 801 q 231 617 190 658 q 347 547 272 576 l 403 526 q 597 408 539 474 q 656 243 656 342 q 631 133 656 182 q 563 49 607 83 q 459 -3 519 15 q 326 -21 399 -21 q 176 0 247 -21 q 56 53 104 21 l 64 247 l 150 247 l 178 83 q 244 57 210 65 q 322 49 278 49 m 310 -119 l 328 4 l 379 4 l 368 -81 q 458 -117 421 -89 q 496 -194 496 -144 q 456 -274 496 -243 q 340 -306 417 -306 q 288 -301 310 -306 q 253 -293 267 -297 l 263 -250 q 294 -253 279 -253 q 329 -254 310 -254 q 390 -237 369 -254 q 410 -192 410 -221 q 385 -143 410 -160 q 310 -119 361 -126 z "},"Ș":{"ha":711,"x_min":56,"x_max":656,"o":"m 322 49 q 479 92 421 49 q 538 217 538 136 q 527 275 538 250 q 496 320 517 300 q 443 358 475 340 q 367 392 411 375 l 313 414 q 215 461 258 435 q 140 522 171 488 q 91 598 108 556 q 74 693 74 640 q 97 801 74 753 q 163 882 121 849 q 263 933 206 915 q 386 950 319 950 q 513 931 457 950 q 614 878 569 911 l 606 696 l 521 696 l 492 853 q 378 881 440 881 q 244 841 299 881 q 190 724 190 801 q 231 617 190 658 q 347 547 272 576 l 403 526 q 597 408 539 474 q 656 243 656 342 q 631 133 656 182 q 563 49 607 83 q 459 -3 519 15 q 326 -21 399 -21 q 176 0 247 -21 q 56 53 104 21 l 64 247 l 150 247 l 178 83 q 244 57 210 65 q 322 49 278 49 m 439 -162 q 424 -228 439 -199 q 383 -280 408 -257 q 324 -319 357 -303 q 254 -349 290 -336 l 239 -308 q 311 -272 282 -293 q 364 -218 340 -251 q 318 -183 336 -206 q 300 -135 300 -161 q 319 -90 300 -107 q 365 -72 339 -72 q 426 -99 399 -72 q 436 -135 433 -121 q 439 -162 439 -149 z "},"Ŝ":{"ha":711,"x_min":56,"x_max":656,"o":"m 322 49 q 479 92 421 49 q 538 217 538 136 q 527 275 538 250 q 496 320 517 300 q 443 358 475 340 q 367 392 411 375 l 313 414 q 215 461 258 435 q 140 522 171 488 q 91 598 108 556 q 74 693 74 640 q 97 801 74 753 q 163 882 121 849 q 263 933 206 915 q 386 950 319 950 q 513 931 457 950 q 614 878 569 911 l 606 696 l 521 696 l 492 853 q 378 881 440 881 q 244 841 299 881 q 190 724 190 801 q 231 617 190 658 q 347 547 272 576 l 403 526 q 597 408 539 474 q 656 243 656 342 q 631 133 656 182 q 563 49 607 83 q 459 -3 519 15 q 326 -21 399 -21 q 176 0 247 -21 q 56 53 104 21 l 64 247 l 150 247 l 178 83 q 244 57 210 65 q 322 49 278 49 m 396 1189 l 578 1029 l 551 994 l 372 1097 l 193 994 l 167 1029 l 349 1189 l 396 1189 z "},"Ṡ":{"ha":711,"x_min":56,"x_max":656,"o":"m 322 49 q 479 92 421 49 q 538 217 538 136 q 527 275 538 250 q 496 320 517 300 q 443 358 475 340 q 367 392 411 375 l 313 414 q 215 461 258 435 q 140 522 171 488 q 91 598 108 556 q 74 693 74 640 q 97 801 74 753 q 163 882 121 849 q 263 933 206 915 q 386 950 319 950 q 513 931 457 950 q 614 878 569 911 l 606 696 l 521 696 l 492 853 q 378 881 440 881 q 244 841 299 881 q 190 724 190 801 q 231 617 190 658 q 347 547 272 576 l 403 526 q 597 408 539 474 q 656 243 656 342 q 631 133 656 182 q 563 49 607 83 q 459 -3 519 15 q 326 -21 399 -21 q 176 0 247 -21 q 56 53 104 21 l 64 247 l 150 247 l 178 83 q 244 57 210 65 q 322 49 278 49 m 372 1022 q 306 1047 332 1022 q 279 1111 279 1072 q 306 1176 279 1151 q 372 1200 332 1200 q 439 1176 413 1200 q 465 1111 465 1151 q 439 1047 465 1072 q 372 1022 413 1022 z "},"Ṣ":{"ha":711,"x_min":56,"x_max":656,"o":"m 322 49 q 479 92 421 49 q 538 217 538 136 q 527 275 538 250 q 496 320 517 300 q 443 358 475 340 q 367 392 411 375 l 313 414 q 215 461 258 435 q 140 522 171 488 q 91 598 108 556 q 74 693 74 640 q 97 801 74 753 q 163 882 121 849 q 263 933 206 915 q 386 950 319 950 q 513 931 457 950 q 614 878 569 911 l 606 696 l 521 696 l 492 853 q 378 881 440 881 q 244 841 299 881 q 190 724 190 801 q 231 617 190 658 q 347 547 272 576 l 403 526 q 597 408 539 474 q 656 243 656 342 q 631 133 656 182 q 563 49 607 83 q 459 -3 519 15 q 326 -21 399 -21 q 176 0 247 -21 q 56 53 104 21 l 64 247 l 150 247 l 178 83 q 244 57 210 65 q 322 49 278 49 m 364 -282 q 297 -258 324 -282 q 271 -193 271 -233 q 297 -129 271 -154 q 364 -104 324 -104 q 431 -129 404 -104 q 457 -193 457 -154 q 431 -258 457 -233 q 364 -282 404 -282 z "},"ẞ":{"ha":958,"x_min":61,"x_max":928,"o":"m 61 0 l 61 57 l 189 72 q 192 251 192 163 q 192 431 192 340 l 192 579 q 283 861 192 772 q 560 950 375 950 q 687 934 625 950 q 801 889 749 918 l 801 853 q 696 772 731 821 q 661 653 661 724 q 667 597 661 621 q 684 555 672 574 q 712 520 696 536 q 749 488 728 504 l 800 447 q 898 341 868 393 q 928 222 928 289 q 913 137 928 181 q 866 58 897 93 q 786 1 835 24 q 671 -21 738 -21 q 572 -6 621 -21 q 489 39 522 10 l 497 224 l 567 224 l 592 60 q 626 47 610 50 q 658 43 642 43 q 770 85 729 43 q 811 189 811 126 q 790 269 811 233 q 725 339 768 306 l 676 376 q 579 481 613 426 q 546 611 546 536 q 590 758 546 692 q 718 864 635 824 q 645 876 682 871 q 565 881 608 881 q 454 865 500 881 q 379 813 408 849 q 337 721 350 778 q 324 583 324 664 l 324 429 q 324 213 324 321 q 328 0 325 106 l 61 0 z "},"Ť":{"ha":839,"x_min":28,"x_max":811,"o":"m 354 431 l 354 499 q 354 678 354 589 q 351 860 354 768 l 139 860 l 108 682 l 28 682 l 39 929 l 800 929 l 811 682 l 731 682 l 700 860 l 488 860 q 485 681 485 771 q 485 499 485 590 l 485 431 q 485 251 485 340 q 488 72 485 163 l 629 57 l 629 0 l 210 0 l 210 57 l 351 72 q 354 250 354 161 q 354 431 354 339 m 260 1206 l 419 1088 l 579 1206 l 613 1176 l 471 1013 l 368 1013 l 226 1176 l 260 1206 z "},"Ţ":{"ha":839,"x_min":28,"x_max":811,"o":"m 354 431 l 354 499 q 354 678 354 589 q 351 860 354 768 l 139 860 l 108 682 l 28 682 l 39 929 l 800 929 l 811 682 l 731 682 l 700 860 l 488 860 q 485 681 485 771 q 485 499 485 590 l 485 431 q 485 251 485 340 q 488 72 485 163 l 629 57 l 629 0 l 210 0 l 210 57 l 351 72 q 354 250 354 161 q 354 431 354 339 m 372 -119 l 390 4 l 442 4 l 431 -81 q 521 -117 483 -89 q 558 -194 558 -144 q 519 -274 558 -243 q 403 -306 479 -306 q 351 -301 372 -306 q 315 -293 329 -297 l 325 -250 q 357 -253 342 -253 q 392 -254 372 -254 q 452 -237 432 -254 q 472 -192 472 -221 q 448 -143 472 -160 q 372 -119 424 -126 z "},"Ț":{"ha":839,"x_min":28,"x_max":811,"o":"m 354 431 l 354 499 q 354 678 354 589 q 351 860 354 768 l 139 860 l 108 682 l 28 682 l 39 929 l 800 929 l 811 682 l 731 682 l 700 860 l 488 860 q 485 681 485 771 q 485 499 485 590 l 485 431 q 485 251 485 340 q 488 72 485 163 l 629 57 l 629 0 l 210 0 l 210 57 l 351 72 q 354 250 354 161 q 354 431 354 339 m 496 -162 q 481 -228 496 -199 q 440 -280 465 -257 q 381 -319 414 -303 q 311 -349 347 -336 l 296 -308 q 368 -272 339 -293 q 421 -218 397 -251 q 375 -183 393 -206 q 357 -135 357 -161 q 376 -90 357 -107 q 422 -72 396 -72 q 483 -99 456 -72 q 493 -135 490 -121 q 496 -162 496 -149 z "},"Ṭ":{"ha":839,"x_min":28,"x_max":811,"o":"m 354 431 l 354 499 q 354 678 354 589 q 351 860 354 768 l 139 860 l 108 682 l 28 682 l 39 929 l 800 929 l 811 682 l 731 682 l 700 860 l 488 860 q 485 681 485 771 q 485 499 485 590 l 485 431 q 485 251 485 340 q 488 72 485 163 l 629 57 l 629 0 l 210 0 l 210 57 l 351 72 q 354 250 354 161 q 354 431 354 339 m 421 -282 q 354 -258 381 -282 q 328 -193 328 -233 q 354 -129 328 -154 q 421 -104 381 -104 q 488 -129 461 -104 q 514 -193 514 -154 q 488 -258 514 -233 q 421 -282 461 -282 z "},"Ṯ":{"ha":839,"x_min":28,"x_max":811,"o":"m 354 431 l 354 499 q 354 678 354 589 q 351 860 354 768 l 139 860 l 108 682 l 28 682 l 39 929 l 800 929 l 811 682 l 731 682 l 700 860 l 488 860 q 485 681 485 771 q 485 499 485 590 l 485 431 q 485 251 485 340 q 488 72 485 163 l 629 57 l 629 0 l 210 0 l 210 57 l 351 72 q 354 250 354 161 q 354 431 354 339 m 240 -244 l 240 -157 l 604 -157 l 604 -244 l 240 -244 z "},"Ù":{"ha":1010,"x_min":54,"x_max":963,"o":"m 303 390 q 319 242 303 301 q 365 145 335 182 q 438 93 394 108 q 533 78 481 78 q 636 96 592 78 q 710 153 681 114 q 756 258 740 193 q 771 414 771 322 l 771 854 l 629 872 l 629 929 l 963 929 l 963 872 l 842 857 l 842 381 q 817 194 842 271 q 747 70 792 118 q 642 1 703 22 q 510 -21 581 -21 q 372 1 435 -21 q 265 67 310 22 q 197 183 221 113 q 172 350 172 253 l 172 500 q 172 679 172 590 q 169 858 172 768 l 54 872 l 54 929 l 447 929 l 447 872 l 306 856 q 303 680 303 768 q 303 500 303 592 l 303 390 m 599 1021 l 574 986 q 485 1033 529 1010 q 399 1079 442 1056 q 344 1119 358 1101 q 329 1157 329 1138 q 344 1191 329 1178 q 382 1204 360 1204 q 419 1192 400 1204 q 468 1151 439 1181 q 599 1021 536 1088 z "},"Ú":{"ha":1010,"x_min":54,"x_max":963,"o":"m 303 390 q 319 242 303 301 q 365 145 335 182 q 438 93 394 108 q 533 78 481 78 q 636 96 592 78 q 710 153 681 114 q 756 258 740 193 q 771 414 771 322 l 771 854 l 629 872 l 629 929 l 963 929 l 963 872 l 842 857 l 842 381 q 817 194 842 271 q 747 70 792 118 q 642 1 703 22 q 510 -21 581 -21 q 372 1 435 -21 q 265 67 310 22 q 197 183 221 113 q 172 350 172 253 l 172 500 q 172 679 172 590 q 169 858 172 768 l 54 872 l 54 929 l 447 929 l 447 872 l 306 856 q 303 680 303 768 q 303 500 303 592 l 303 390 m 454 1021 q 585 1151 518 1089 q 633 1192 614 1181 q 671 1204 653 1204 q 708 1191 693 1204 q 724 1157 724 1178 q 709 1120 724 1138 q 654 1081 694 1103 q 567 1033 610 1057 q 479 986 524 1010 l 454 1021 z "},"Û":{"ha":1010,"x_min":54,"x_max":963,"o":"m 303 390 q 319 242 303 301 q 365 145 335 182 q 438 93 394 108 q 533 78 481 78 q 636 96 592 78 q 710 153 681 114 q 756 258 740 193 q 771 414 771 322 l 771 854 l 629 872 l 629 929 l 963 929 l 963 872 l 842 857 l 842 381 q 817 194 842 271 q 747 70 792 118 q 642 1 703 22 q 510 -21 581 -21 q 372 1 435 -21 q 265 67 310 22 q 197 183 221 113 q 172 350 172 253 l 172 500 q 172 679 172 590 q 169 858 172 768 l 54 872 l 54 929 l 447 929 l 447 872 l 306 856 q 303 680 303 768 q 303 500 303 592 l 303 390 m 556 1175 l 738 1015 l 711 981 l 532 1083 l 353 981 l 326 1015 l 508 1175 l 556 1175 z "},"Ü":{"ha":1010,"x_min":54,"x_max":963,"o":"m 303 390 q 319 242 303 301 q 365 145 335 182 q 438 93 394 108 q 533 78 481 78 q 636 96 592 78 q 710 153 681 114 q 756 258 740 193 q 771 414 771 322 l 771 854 l 629 872 l 629 929 l 963 929 l 963 872 l 842 857 l 842 381 q 817 194 842 271 q 747 70 792 118 q 642 1 703 22 q 510 -21 581 -21 q 372 1 435 -21 q 265 67 310 22 q 197 183 221 113 q 172 350 172 253 l 172 500 q 172 679 172 590 q 169 858 172 768 l 54 872 l 54 929 l 447 929 l 447 872 l 306 856 q 303 680 303 768 q 303 500 303 592 l 303 390 m 396 1033 q 340 1055 364 1033 q 315 1110 315 1076 q 340 1165 315 1143 q 396 1186 364 1186 q 452 1165 429 1186 q 475 1110 475 1143 q 452 1055 475 1076 q 396 1033 429 1033 m 706 1033 q 649 1055 672 1033 q 626 1110 626 1076 q 649 1165 626 1143 q 706 1186 672 1186 q 762 1165 738 1186 q 786 1110 786 1143 q 762 1055 786 1076 q 706 1033 738 1033 z "},"Ū":{"ha":1010,"x_min":54,"x_max":963,"o":"m 303 390 q 319 242 303 301 q 365 145 335 182 q 438 93 394 108 q 533 78 481 78 q 636 96 592 78 q 710 153 681 114 q 756 258 740 193 q 771 414 771 322 l 771 854 l 629 872 l 629 929 l 963 929 l 963 872 l 842 857 l 842 381 q 817 194 842 271 q 747 70 792 118 q 642 1 703 22 q 510 -21 581 -21 q 372 1 435 -21 q 265 67 310 22 q 197 183 221 113 q 172 350 172 253 l 172 500 q 172 679 172 590 q 169 858 172 768 l 54 872 l 54 929 l 447 929 l 447 872 l 306 856 q 303 680 303 768 q 303 500 303 592 l 303 390 m 321 1053 l 321 1140 l 740 1140 l 740 1053 l 321 1053 z "},"Ů":{"ha":1010,"x_min":54,"x_max":963,"o":"m 303 390 q 319 242 303 301 q 365 145 335 182 q 438 93 394 108 q 533 78 481 78 q 636 96 592 78 q 710 153 681 114 q 756 258 740 193 q 771 414 771 322 l 771 854 l 629 872 l 629 929 l 963 929 l 963 872 l 842 857 l 842 381 q 817 194 842 271 q 747 70 792 118 q 642 1 703 22 q 510 -21 581 -21 q 372 1 435 -21 q 265 67 310 22 q 197 183 221 113 q 172 350 172 253 l 172 500 q 172 679 172 590 q 169 858 172 768 l 54 872 l 54 929 l 447 929 l 447 872 l 306 856 q 303 680 303 768 q 303 500 303 592 l 303 390 m 535 1003 q 485 1011 510 1003 q 442 1036 461 1019 q 413 1076 424 1053 q 401 1131 401 1100 q 413 1185 401 1161 q 442 1225 424 1208 q 485 1251 461 1242 q 535 1260 510 1260 q 584 1251 560 1260 q 627 1226 608 1243 q 657 1185 646 1210 q 668 1131 668 1161 q 657 1078 668 1101 q 627 1038 646 1054 q 584 1012 608 1021 q 535 1003 560 1003 m 535 1051 q 588 1076 569 1051 q 607 1131 607 1101 q 589 1185 607 1161 q 535 1208 571 1208 q 481 1185 500 1208 q 463 1131 463 1161 q 481 1076 463 1101 q 535 1051 499 1051 z "},"Ű":{"ha":1010,"x_min":54,"x_max":963,"o":"m 303 390 q 319 242 303 301 q 365 145 335 182 q 438 93 394 108 q 533 78 481 78 q 636 96 592 78 q 710 153 681 114 q 756 258 740 193 q 771 414 771 322 l 771 854 l 629 872 l 629 929 l 963 929 l 963 872 l 842 857 l 842 381 q 817 194 842 271 q 747 70 792 118 q 642 1 703 22 q 510 -21 581 -21 q 372 1 435 -21 q 265 67 310 22 q 197 183 221 113 q 172 350 172 253 l 172 500 q 172 679 172 590 q 169 858 172 768 l 54 872 l 54 929 l 447 929 l 447 872 l 306 856 q 303 680 303 768 q 303 500 303 592 l 303 390 m 393 1013 l 471 1175 q 506 1220 486 1207 q 543 1233 526 1233 q 578 1220 563 1233 q 593 1186 593 1207 q 586 1158 593 1174 q 563 1125 579 1143 l 429 988 l 393 1013 m 604 1013 l 682 1175 q 717 1220 697 1207 q 756 1233 738 1233 q 790 1220 775 1233 q 804 1186 804 1207 q 797 1158 804 1174 q 774 1125 790 1143 l 640 988 l 604 1013 z "},"Ų":{"ha":1010,"x_min":54,"x_max":963,"o":"m 54 872 l 54 929 l 447 929 l 447 872 l 306 856 q 303 679 303 768 q 303 500 303 590 l 303 390 q 319 242 303 301 q 364 145 335 182 q 435 93 393 108 q 528 78 476 78 q 635 96 589 78 q 710 153 681 114 q 756 258 740 193 q 771 414 771 322 l 771 856 l 629 872 l 629 929 l 963 929 l 963 872 l 842 856 l 842 381 q 831 251 842 307 q 799 151 819 194 q 751 78 779 108 q 689 25 722 47 q 610 -51 636 -11 q 585 -133 585 -92 q 612 -203 585 -178 q 679 -228 639 -228 q 713 -224 694 -228 q 751 -207 732 -219 l 768 -239 q 707 -290 743 -275 q 631 -306 671 -306 q 533 -274 568 -306 q 497 -183 497 -242 q 522 -91 497 -135 q 588 -15 547 -47 q 554 -19 571 -18 q 519 -21 538 -21 q 376 1 440 -21 q 267 67 313 22 q 197 183 221 113 q 172 350 172 253 l 172 500 q 172 681 172 592 q 169 858 172 769 l 54 872 z "},"Ŭ":{"ha":1010,"x_min":54,"x_max":963,"o":"m 303 390 q 319 242 303 301 q 365 145 335 182 q 438 93 394 108 q 533 78 481 78 q 636 96 592 78 q 710 153 681 114 q 756 258 740 193 q 771 414 771 322 l 771 854 l 629 872 l 629 929 l 963 929 l 963 872 l 842 857 l 842 381 q 817 194 842 271 q 747 70 792 118 q 642 1 703 22 q 510 -21 581 -21 q 372 1 435 -21 q 265 67 310 22 q 197 183 221 113 q 172 350 172 253 l 172 500 q 172 679 172 590 q 169 858 172 768 l 54 872 l 54 929 l 447 929 l 447 872 l 306 856 q 303 680 303 768 q 303 500 303 592 l 303 390 m 335 1192 l 378 1207 q 433 1130 393 1160 q 535 1100 472 1100 q 635 1130 597 1100 q 692 1207 674 1160 l 735 1192 q 716 1128 731 1160 q 677 1072 701 1097 q 617 1031 653 1047 q 535 1015 582 1015 q 452 1031 488 1015 q 392 1072 417 1047 q 353 1128 368 1097 q 335 1192 339 1160 z "},"Ǔ":{"ha":1010,"x_min":54,"x_max":963,"o":"m 303 390 q 319 242 303 301 q 365 145 335 182 q 438 93 394 108 q 533 78 481 78 q 636 96 592 78 q 710 153 681 114 q 756 258 740 193 q 771 414 771 322 l 771 854 l 629 872 l 629 929 l 963 929 l 963 872 l 842 857 l 842 381 q 817 194 842 271 q 747 70 792 118 q 642 1 703 22 q 510 -21 581 -21 q 372 1 435 -21 q 265 67 310 22 q 197 183 221 113 q 172 350 172 253 l 172 500 q 172 679 172 590 q 169 858 172 768 l 54 872 l 54 929 l 447 929 l 447 872 l 306 856 q 303 680 303 768 q 303 500 303 592 l 303 390 m 383 1206 l 543 1088 l 703 1206 l 736 1176 l 594 1013 l 492 1013 l 350 1176 l 383 1206 z "},"Ǘ":{"ha":1010,"x_min":54,"x_max":963,"o":"m 303 390 q 319 242 303 301 q 365 145 335 182 q 438 93 394 108 q 533 78 481 78 q 636 96 592 78 q 710 153 681 114 q 756 258 740 193 q 771 414 771 322 l 771 854 l 629 872 l 629 929 l 963 929 l 963 872 l 842 857 l 842 381 q 817 194 842 271 q 747 70 792 118 q 642 1 703 22 q 510 -21 581 -21 q 372 1 435 -21 q 265 67 310 22 q 197 183 221 113 q 172 350 172 253 l 172 500 q 172 679 172 590 q 169 858 172 768 l 54 872 l 54 929 l 447 929 l 447 872 l 306 856 q 303 680 303 768 q 303 500 303 592 l 303 390 m 315 1110 q 340 1165 315 1143 q 396 1186 364 1186 q 452 1165 429 1186 q 475 1110 475 1143 q 452 1055 475 1076 q 396 1033 429 1033 q 340 1055 364 1033 q 315 1110 315 1076 m 535 1178 l 503 1211 l 596 1335 q 633 1371 615 1360 q 668 1382 650 1382 q 704 1369 689 1382 q 719 1332 719 1356 q 668 1260 719 1293 l 535 1178 m 626 1110 q 649 1165 626 1143 q 706 1186 672 1186 q 762 1165 738 1186 q 786 1110 786 1143 q 762 1055 786 1076 q 706 1033 738 1033 q 649 1055 672 1033 q 626 1110 626 1076 z "},"Ǚ":{"ha":1010,"x_min":54,"x_max":963,"o":"m 303 390 q 319 242 303 301 q 365 145 335 182 q 438 93 394 108 q 533 78 481 78 q 636 96 592 78 q 710 153 681 114 q 756 258 740 193 q 771 414 771 322 l 771 854 l 629 872 l 629 929 l 963 929 l 963 872 l 842 857 l 842 381 q 817 194 842 271 q 747 70 792 118 q 642 1 703 22 q 510 -21 581 -21 q 372 1 435 -21 q 265 67 310 22 q 197 183 221 113 q 172 350 172 253 l 172 500 q 172 679 172 590 q 169 858 172 768 l 54 872 l 54 929 l 447 929 l 447 872 l 306 856 q 303 680 303 768 q 303 500 303 592 l 303 390 m 396 1033 q 340 1055 364 1033 q 315 1110 315 1076 q 340 1165 315 1143 q 396 1186 364 1186 q 452 1165 429 1186 q 475 1110 475 1143 q 452 1055 475 1076 q 396 1033 429 1033 m 706 1033 q 649 1055 672 1033 q 626 1110 626 1076 q 649 1165 626 1143 q 706 1186 672 1186 q 762 1165 738 1186 q 786 1110 786 1143 q 762 1055 786 1076 q 706 1033 738 1033 m 392 1392 l 551 1274 l 711 1392 l 744 1363 l 603 1199 l 500 1199 l 358 1363 l 392 1392 z "},"Ǜ":{"ha":1010,"x_min":54,"x_max":963,"o":"m 303 390 q 319 242 303 301 q 365 145 335 182 q 438 93 394 108 q 533 78 481 78 q 636 96 592 78 q 710 153 681 114 q 756 258 740 193 q 771 414 771 322 l 771 854 l 629 872 l 629 929 l 963 929 l 963 872 l 842 857 l 842 381 q 817 194 842 271 q 747 70 792 118 q 642 1 703 22 q 510 -21 581 -21 q 372 1 435 -21 q 265 67 310 22 q 197 183 221 113 q 172 350 172 253 l 172 500 q 172 679 172 590 q 169 858 172 768 l 54 872 l 54 929 l 447 929 l 447 872 l 306 856 q 303 680 303 768 q 303 500 303 592 l 303 390 m 315 1110 q 340 1165 315 1143 q 396 1186 364 1186 q 452 1165 429 1186 q 475 1110 475 1143 q 452 1055 475 1076 q 396 1033 429 1033 q 340 1055 364 1033 q 315 1110 315 1076 m 438 1260 q 386 1329 386 1293 q 401 1367 386 1353 q 439 1382 417 1382 q 511 1335 475 1382 l 604 1211 l 574 1179 l 438 1260 m 626 1110 q 649 1165 626 1143 q 706 1186 672 1186 q 762 1165 738 1186 q 786 1110 786 1143 q 762 1055 786 1076 q 706 1033 738 1033 q 649 1055 672 1033 q 626 1110 626 1076 z "},"Ǖ":{"ha":1010,"x_min":54,"x_max":963,"o":"m 303 390 q 319 242 303 301 q 365 145 335 182 q 438 93 394 108 q 533 78 481 78 q 636 96 592 78 q 710 153 681 114 q 756 258 740 193 q 771 414 771 322 l 771 854 l 629 872 l 629 929 l 963 929 l 963 872 l 842 857 l 842 381 q 817 194 842 271 q 747 70 792 118 q 642 1 703 22 q 510 -21 581 -21 q 372 1 435 -21 q 265 67 310 22 q 197 183 221 113 q 172 350 172 253 l 172 500 q 172 679 172 590 q 169 858 172 768 l 54 872 l 54 929 l 447 929 l 447 872 l 306 856 q 303 680 303 768 q 303 500 303 592 l 303 390 m 396 1033 q 340 1055 364 1033 q 315 1110 315 1076 q 340 1165 315 1143 q 396 1186 364 1186 q 452 1165 429 1186 q 475 1110 475 1143 q 452 1055 475 1076 q 396 1033 429 1033 m 706 1033 q 649 1055 672 1033 q 626 1110 626 1076 q 649 1165 626 1143 q 706 1186 672 1186 q 762 1165 738 1186 q 786 1110 786 1143 q 762 1055 786 1076 q 706 1033 738 1033 m 342 1267 l 342 1354 l 761 1354 l 761 1267 l 342 1267 z "},"Ụ":{"ha":1010,"x_min":54,"x_max":963,"o":"m 303 390 q 319 242 303 301 q 365 145 335 182 q 438 93 394 108 q 533 78 481 78 q 636 96 592 78 q 710 153 681 114 q 756 258 740 193 q 771 414 771 322 l 771 854 l 629 872 l 629 929 l 963 929 l 963 872 l 842 857 l 842 381 q 817 194 842 271 q 747 70 792 118 q 642 1 703 22 q 510 -21 581 -21 q 372 1 435 -21 q 265 67 310 22 q 197 183 221 113 q 172 350 172 253 l 172 500 q 172 679 172 590 q 169 858 172 768 l 54 872 l 54 929 l 447 929 l 447 872 l 306 856 q 303 680 303 768 q 303 500 303 592 l 303 390 m 519 -282 q 453 -258 479 -282 q 426 -193 426 -233 q 453 -129 426 -154 q 519 -104 479 -104 q 586 -129 560 -104 q 613 -193 613 -154 q 586 -258 613 -233 q 519 -282 560 -282 z "},"Ủ":{"ha":1010,"x_min":54,"x_max":963,"o":"m 303 390 q 319 242 303 301 q 365 145 335 182 q 438 93 394 108 q 533 78 481 78 q 636 96 592 78 q 710 153 681 114 q 756 258 740 193 q 771 414 771 322 l 771 854 l 629 872 l 629 929 l 963 929 l 963 872 l 842 857 l 842 381 q 817 194 842 271 q 747 70 792 118 q 642 1 703 22 q 510 -21 581 -21 q 372 1 435 -21 q 265 67 310 22 q 197 183 221 113 q 172 350 172 253 l 172 500 q 172 679 172 590 q 169 858 172 768 l 54 872 l 54 929 l 447 929 l 447 872 l 306 856 q 303 680 303 768 q 303 500 303 592 l 303 390 m 510 996 l 497 1039 q 554 1058 538 1047 q 571 1085 571 1068 q 456 1132 571 1122 l 469 1225 q 639 1104 639 1210 q 605 1033 639 1061 q 510 996 571 1004 z "},"Ư":{"ha":1010,"x_min":54,"x_max":1033,"o":"m 303 390 q 319 242 303 301 q 365 145 335 182 q 438 93 394 108 q 533 78 481 78 q 636 96 592 78 q 710 153 681 114 q 756 258 740 193 q 771 414 771 322 l 771 854 l 629 872 l 629 929 l 842 929 l 842 839 q 919 878 894 851 q 944 949 944 904 q 939 978 944 964 q 927 1004 933 992 q 915 1029 921 1017 q 910 1056 910 1042 q 924 1090 910 1074 q 964 1107 939 1107 q 988 1104 975 1107 q 1014 1090 1000 1101 q 1033 1014 1033 1049 q 1019 933 1033 969 q 978 869 1004 896 q 918 824 953 842 q 842 800 883 806 l 842 381 q 817 194 842 271 q 747 70 792 118 q 642 1 703 22 q 510 -21 581 -21 q 372 1 435 -21 q 265 67 310 22 q 197 183 221 113 q 172 350 172 253 l 172 500 q 172 679 172 590 q 169 858 172 768 l 54 872 l 54 929 l 447 929 l 447 872 l 306 856 q 303 680 303 768 q 303 500 303 592 l 303 390 z "},"Ứ":{"ha":1010,"x_min":54,"x_max":1033,"o":"m 303 390 q 319 242 303 301 q 365 145 335 182 q 438 93 394 108 q 533 78 481 78 q 636 96 592 78 q 710 153 681 114 q 756 258 740 193 q 771 414 771 322 l 771 854 l 629 872 l 629 929 l 842 929 l 842 839 q 919 878 894 851 q 944 949 944 904 q 939 978 944 964 q 927 1004 933 992 q 915 1029 921 1017 q 910 1056 910 1042 q 924 1090 910 1074 q 964 1107 939 1107 q 988 1104 975 1107 q 1014 1090 1000 1101 q 1033 1014 1033 1049 q 1019 933 1033 969 q 978 869 1004 896 q 918 824 953 842 q 842 800 883 806 l 842 381 q 817 194 842 271 q 747 70 792 118 q 642 1 703 22 q 510 -21 581 -21 q 372 1 435 -21 q 265 67 310 22 q 197 183 221 113 q 172 350 172 253 l 172 500 q 172 679 172 590 q 169 858 172 768 l 54 872 l 54 929 l 447 929 l 447 872 l 306 856 q 303 680 303 768 q 303 500 303 592 l 303 390 m 460 1035 q 590 1165 524 1103 q 639 1206 619 1194 q 676 1218 658 1218 q 714 1205 699 1218 q 729 1171 729 1192 q 715 1134 729 1151 q 660 1094 700 1117 q 572 1047 615 1071 q 485 1000 529 1024 l 460 1035 z "},"Ự":{"ha":1010,"x_min":54,"x_max":1033,"o":"m 303 390 q 319 242 303 301 q 365 145 335 182 q 438 93 394 108 q 533 78 481 78 q 636 96 592 78 q 710 153 681 114 q 756 258 740 193 q 771 414 771 322 l 771 854 l 629 872 l 629 929 l 842 929 l 842 839 q 919 878 894 851 q 944 949 944 904 q 939 978 944 964 q 927 1004 933 992 q 915 1029 921 1017 q 910 1056 910 1042 q 924 1090 910 1074 q 964 1107 939 1107 q 988 1104 975 1107 q 1014 1090 1000 1101 q 1033 1014 1033 1049 q 1019 933 1033 969 q 978 869 1004 896 q 918 824 953 842 q 842 800 883 806 l 842 381 q 817 194 842 271 q 747 70 792 118 q 642 1 703 22 q 510 -21 581 -21 q 372 1 435 -21 q 265 67 310 22 q 197 183 221 113 q 172 350 172 253 l 172 500 q 172 679 172 590 q 169 858 172 768 l 54 872 l 54 929 l 447 929 l 447 872 l 306 856 q 303 680 303 768 q 303 500 303 592 l 303 390 m 521 -282 q 454 -258 481 -282 q 428 -193 428 -233 q 454 -129 428 -154 q 521 -104 481 -104 q 588 -129 561 -104 q 614 -193 614 -154 q 588 -258 614 -233 q 521 -282 561 -282 z "},"Ừ":{"ha":1010,"x_min":54,"x_max":1033,"o":"m 303 390 q 319 242 303 301 q 365 145 335 182 q 438 93 394 108 q 533 78 481 78 q 636 96 592 78 q 710 153 681 114 q 756 258 740 193 q 771 414 771 322 l 771 854 l 629 872 l 629 929 l 842 929 l 842 839 q 919 878 894 851 q 944 949 944 904 q 939 978 944 964 q 927 1004 933 992 q 915 1029 921 1017 q 910 1056 910 1042 q 924 1090 910 1074 q 964 1107 939 1107 q 988 1104 975 1107 q 1014 1090 1000 1101 q 1033 1014 1033 1049 q 1019 933 1033 969 q 978 869 1004 896 q 918 824 953 842 q 842 800 883 806 l 842 381 q 817 194 842 271 q 747 70 792 118 q 642 1 703 22 q 510 -21 581 -21 q 372 1 435 -21 q 265 67 310 22 q 197 183 221 113 q 172 350 172 253 l 172 500 q 172 679 172 590 q 169 858 172 768 l 54 872 l 54 929 l 447 929 l 447 872 l 306 856 q 303 680 303 768 q 303 500 303 592 l 303 390 m 588 1035 l 563 1000 q 474 1047 518 1024 q 388 1093 431 1069 q 333 1133 347 1115 q 318 1171 318 1151 q 333 1205 318 1192 q 371 1218 349 1218 q 408 1206 389 1218 q 457 1165 428 1194 q 588 1035 525 1101 z "},"Ử":{"ha":1010,"x_min":54,"x_max":1033,"o":"m 303 390 q 319 242 303 301 q 365 145 335 182 q 438 93 394 108 q 533 78 481 78 q 636 96 592 78 q 710 153 681 114 q 756 258 740 193 q 771 414 771 322 l 771 854 l 629 872 l 629 929 l 842 929 l 842 839 q 919 878 894 851 q 944 949 944 904 q 939 978 944 964 q 927 1004 933 992 q 915 1029 921 1017 q 910 1056 910 1042 q 924 1090 910 1074 q 964 1107 939 1107 q 988 1104 975 1107 q 1014 1090 1000 1101 q 1033 1014 1033 1049 q 1019 933 1033 969 q 978 869 1004 896 q 918 824 953 842 q 842 800 883 806 l 842 381 q 817 194 842 271 q 747 70 792 118 q 642 1 703 22 q 510 -21 581 -21 q 372 1 435 -21 q 265 67 310 22 q 197 183 221 113 q 172 350 172 253 l 172 500 q 172 679 172 590 q 169 858 172 768 l 54 872 l 54 929 l 447 929 l 447 872 l 306 856 q 303 680 303 768 q 303 500 303 592 l 303 390 m 500 996 l 488 1039 q 544 1058 528 1047 q 561 1085 561 1068 q 446 1132 561 1122 l 460 1225 q 629 1104 629 1210 q 595 1033 629 1061 q 500 996 561 1004 z "},"Ữ":{"ha":1010,"x_min":54,"x_max":1033,"o":"m 303 390 q 319 242 303 301 q 365 145 335 182 q 438 93 394 108 q 533 78 481 78 q 636 96 592 78 q 710 153 681 114 q 756 258 740 193 q 771 414 771 322 l 771 854 l 629 872 l 629 929 l 842 929 l 842 839 q 919 878 894 851 q 944 949 944 904 q 939 978 944 964 q 927 1004 933 992 q 915 1029 921 1017 q 910 1056 910 1042 q 924 1090 910 1074 q 964 1107 939 1107 q 988 1104 975 1107 q 1014 1090 1000 1101 q 1033 1014 1033 1049 q 1019 933 1033 969 q 978 869 1004 896 q 918 824 953 842 q 842 800 883 806 l 842 381 q 817 194 842 271 q 747 70 792 118 q 642 1 703 22 q 510 -21 581 -21 q 372 1 435 -21 q 265 67 310 22 q 197 183 221 113 q 172 350 172 253 l 172 500 q 172 679 172 590 q 169 858 172 768 l 54 872 l 54 929 l 447 929 l 447 872 l 306 856 q 303 680 303 768 q 303 500 303 592 l 303 390 m 275 1019 q 322 1150 288 1101 q 421 1199 357 1199 q 484 1185 458 1199 q 533 1151 510 1171 q 583 1108 560 1131 q 639 1085 607 1085 q 696 1115 674 1085 q 733 1196 718 1144 l 775 1182 q 728 1053 761 1101 q 631 1004 694 1004 q 566 1018 592 1004 q 517 1050 540 1032 q 467 1094 490 1072 q 411 1117 443 1117 q 355 1088 378 1117 q 317 1007 332 1058 l 275 1019 z "},"Ũ":{"ha":1010,"x_min":54,"x_max":963,"o":"m 303 390 q 319 242 303 301 q 365 145 335 182 q 438 93 394 108 q 533 78 481 78 q 636 96 592 78 q 710 153 681 114 q 756 258 740 193 q 771 414 771 322 l 771 854 l 629 872 l 629 929 l 963 929 l 963 872 l 842 857 l 842 381 q 817 194 842 271 q 747 70 792 118 q 642 1 703 22 q 510 -21 581 -21 q 372 1 435 -21 q 265 67 310 22 q 197 183 221 113 q 172 350 172 253 l 172 500 q 172 679 172 590 q 169 858 172 768 l 54 872 l 54 929 l 447 929 l 447 872 l 306 856 q 303 680 303 768 q 303 500 303 592 l 303 390 m 275 1019 q 322 1150 288 1101 q 421 1199 357 1199 q 484 1185 458 1199 q 533 1151 510 1171 q 583 1108 560 1131 q 639 1085 607 1085 q 696 1115 674 1085 q 733 1196 718 1144 l 775 1182 q 728 1053 761 1101 q 631 1004 694 1004 q 566 1018 592 1004 q 517 1050 540 1032 q 467 1094 490 1072 q 411 1117 443 1117 q 355 1088 378 1117 q 317 1007 332 1058 l 275 1019 z "},"Ẃ":{"ha":1336,"x_min":21,"x_max":1324,"o":"m 913 -10 l 672 710 l 446 -10 l 386 -10 l 136 858 l 21 872 l 21 929 l 399 929 l 399 872 l 271 857 l 442 219 l 654 856 l 514 872 l 514 929 l 892 929 l 892 872 l 751 856 l 957 213 l 1135 854 l 1008 872 l 1008 929 l 1324 929 l 1324 872 l 1207 856 l 972 -10 l 913 -10 m 633 1035 q 764 1165 697 1103 q 813 1206 793 1194 q 850 1218 832 1218 q 888 1205 872 1218 q 903 1171 903 1192 q 888 1134 903 1151 q 833 1094 874 1117 q 746 1047 789 1071 q 658 1000 703 1024 l 633 1035 z "},"Ŵ":{"ha":1336,"x_min":21,"x_max":1324,"o":"m 913 -10 l 672 710 l 446 -10 l 386 -10 l 136 858 l 21 872 l 21 929 l 399 929 l 399 872 l 271 857 l 442 219 l 654 856 l 514 872 l 514 929 l 892 929 l 892 872 l 751 856 l 957 213 l 1135 854 l 1008 872 l 1008 929 l 1324 929 l 1324 872 l 1207 856 l 972 -10 l 913 -10 m 725 1189 l 907 1029 l 881 994 l 701 1097 l 522 994 l 496 1029 l 678 1189 l 725 1189 z "},"Ẅ":{"ha":1336,"x_min":21,"x_max":1324,"o":"m 913 -10 l 672 710 l 446 -10 l 386 -10 l 136 858 l 21 872 l 21 929 l 399 929 l 399 872 l 271 857 l 442 219 l 654 856 l 514 872 l 514 929 l 892 929 l 892 872 l 751 856 l 957 213 l 1135 854 l 1008 872 l 1008 929 l 1324 929 l 1324 872 l 1207 856 l 972 -10 l 913 -10 m 554 1033 q 498 1055 522 1033 q 474 1110 474 1076 q 498 1165 474 1143 q 554 1186 522 1186 q 610 1165 588 1186 q 633 1110 633 1143 q 610 1055 633 1076 q 554 1033 588 1033 m 864 1033 q 808 1055 831 1033 q 785 1110 785 1076 q 808 1165 785 1143 q 864 1186 831 1186 q 920 1165 896 1186 q 944 1110 944 1143 q 920 1055 944 1076 q 864 1033 896 1033 z "},"Ẁ":{"ha":1336,"x_min":21,"x_max":1324,"o":"m 913 -10 l 672 710 l 446 -10 l 386 -10 l 136 858 l 21 872 l 21 929 l 399 929 l 399 872 l 271 857 l 442 219 l 654 856 l 514 872 l 514 929 l 892 929 l 892 872 l 751 856 l 957 213 l 1135 854 l 1008 872 l 1008 929 l 1324 929 l 1324 872 l 1207 856 l 972 -10 l 913 -10 m 775 1035 l 750 1000 q 662 1047 706 1024 q 575 1093 618 1069 q 520 1133 535 1115 q 506 1171 506 1151 q 521 1205 506 1192 q 558 1218 536 1218 q 596 1206 576 1218 q 644 1165 615 1194 q 775 1035 713 1101 z "},"Ý":{"ha":879,"x_min":21,"x_max":865,"o":"m 651 0 l 232 0 l 232 57 l 374 72 q 376 208 376 138 q 376 360 376 279 l 131 860 l 21 872 l 21 929 l 413 929 l 413 872 l 281 857 l 474 436 l 672 856 l 547 872 l 547 929 l 865 929 l 865 872 l 743 854 l 507 365 q 507 211 507 283 q 510 72 507 139 l 651 57 l 651 0 m 424 1021 q 554 1151 488 1089 q 603 1192 583 1181 q 640 1204 622 1204 q 678 1191 663 1204 q 693 1157 693 1178 q 678 1120 693 1138 q 624 1081 664 1103 q 536 1033 579 1057 q 449 986 493 1010 l 424 1021 z "},"Ÿ":{"ha":879,"x_min":21,"x_max":865,"o":"m 651 0 l 232 0 l 232 57 l 374 72 q 376 208 376 138 q 376 360 376 279 l 131 860 l 21 872 l 21 929 l 413 929 l 413 872 l 281 857 l 474 436 l 672 856 l 547 872 l 547 929 l 865 929 l 865 872 l 743 854 l 507 365 q 507 211 507 283 q 510 72 507 139 l 651 57 l 651 0 m 326 1033 q 270 1055 294 1033 q 246 1110 246 1076 q 270 1165 246 1143 q 326 1186 294 1186 q 383 1165 360 1186 q 406 1110 406 1143 q 383 1055 406 1076 q 326 1033 360 1033 m 636 1033 q 580 1055 603 1033 q 557 1110 557 1076 q 580 1165 557 1143 q 636 1186 603 1186 q 692 1165 668 1186 q 717 1110 717 1143 q 692 1055 717 1076 q 636 1033 668 1033 z "},"Ŷ":{"ha":879,"x_min":21,"x_max":865,"o":"m 651 0 l 232 0 l 232 57 l 374 72 q 376 208 376 138 q 376 360 376 279 l 131 860 l 21 872 l 21 929 l 413 929 l 413 872 l 281 857 l 474 436 l 672 856 l 547 872 l 547 929 l 865 929 l 865 872 l 743 854 l 507 365 q 507 211 507 283 q 510 72 507 139 l 651 57 l 651 0 m 497 1189 l 679 1029 l 653 994 l 474 1097 l 294 994 l 268 1029 l 450 1189 l 497 1189 z "},"Ẏ":{"ha":879,"x_min":21,"x_max":865,"o":"m 651 0 l 232 0 l 232 57 l 374 72 q 376 208 376 138 q 376 360 376 279 l 131 860 l 21 872 l 21 929 l 413 929 l 413 872 l 281 857 l 474 436 l 672 856 l 547 872 l 547 929 l 865 929 l 865 872 l 743 854 l 507 365 q 507 211 507 283 q 510 72 507 139 l 651 57 l 651 0 m 481 1022 q 414 1047 440 1022 q 388 1111 388 1072 q 414 1176 388 1151 q 481 1200 440 1200 q 547 1176 521 1200 q 574 1111 574 1151 q 547 1047 574 1072 q 481 1022 521 1022 z "},"Ỵ":{"ha":879,"x_min":21,"x_max":865,"o":"m 651 0 l 232 0 l 232 57 l 374 72 q 376 208 376 138 q 376 360 376 279 l 131 860 l 21 872 l 21 929 l 413 929 l 413 872 l 281 857 l 474 436 l 672 856 l 547 872 l 547 929 l 865 929 l 865 872 l 743 854 l 507 365 q 507 211 507 283 q 510 72 507 139 l 651 57 l 651 0 m 442 -282 q 375 -258 401 -282 q 349 -193 349 -233 q 375 -129 349 -154 q 442 -104 401 -104 q 508 -129 482 -104 q 535 -193 535 -154 q 508 -258 535 -233 q 442 -282 482 -282 z "},"Ỳ":{"ha":879,"x_min":21,"x_max":865,"o":"m 651 0 l 232 0 l 232 57 l 374 72 q 376 208 376 138 q 376 360 376 279 l 131 860 l 21 872 l 21 929 l 413 929 l 413 872 l 281 857 l 474 436 l 672 856 l 547 872 l 547 929 l 865 929 l 865 872 l 743 854 l 507 365 q 507 211 507 283 q 510 72 507 139 l 651 57 l 651 0 m 532 1035 l 507 1000 q 419 1047 463 1024 q 332 1093 375 1069 q 277 1133 292 1115 q 263 1171 263 1151 q 278 1205 263 1192 q 315 1218 293 1218 q 353 1206 333 1218 q 401 1165 372 1194 q 532 1035 469 1101 z "},"Ỷ":{"ha":879,"x_min":21,"x_max":865,"o":"m 651 0 l 232 0 l 232 57 l 374 72 q 376 208 376 138 q 376 360 376 279 l 131 860 l 21 872 l 21 929 l 413 929 l 413 872 l 281 857 l 474 436 l 672 856 l 547 872 l 547 929 l 865 929 l 865 872 l 743 854 l 507 365 q 507 211 507 283 q 510 72 507 139 l 651 57 l 651 0 m 450 996 l 438 1039 q 494 1058 478 1047 q 511 1085 511 1068 q 396 1132 511 1122 l 410 1225 q 579 1104 579 1210 q 545 1033 579 1061 q 450 996 511 1004 z "},"Ỹ":{"ha":879,"x_min":21,"x_max":865,"o":"m 651 0 l 232 0 l 232 57 l 374 72 q 376 208 376 138 q 376 360 376 279 l 131 860 l 21 872 l 21 929 l 413 929 l 413 872 l 281 857 l 474 436 l 672 856 l 547 872 l 547 929 l 865 929 l 865 872 l 743 854 l 507 365 q 507 211 507 283 q 510 72 507 139 l 651 57 l 651 0 m 231 1019 q 278 1150 243 1101 q 376 1199 313 1199 q 440 1185 414 1199 q 489 1151 465 1171 q 539 1108 515 1131 q 594 1085 563 1085 q 651 1115 629 1085 q 689 1196 674 1144 l 731 1182 q 683 1053 717 1101 q 586 1004 650 1004 q 522 1018 547 1004 q 472 1050 496 1032 q 422 1094 446 1072 q 367 1117 399 1117 q 310 1088 333 1117 q 272 1007 288 1058 l 231 1019 z "},"Ź":{"ha":765,"x_min":28,"x_max":738,"o":"m 653 247 l 738 247 l 726 0 l 28 0 l 28 50 l 554 860 l 164 860 l 126 682 l 42 682 l 53 929 l 707 929 l 707 881 l 182 69 l 615 69 l 653 247 m 333 1035 q 464 1165 397 1103 q 513 1206 493 1194 q 550 1218 532 1218 q 588 1205 572 1218 q 603 1171 603 1192 q 588 1134 603 1151 q 533 1094 574 1117 q 446 1047 489 1071 q 358 1000 403 1024 l 333 1035 z "},"Ž":{"ha":765,"x_min":28,"x_max":738,"o":"m 653 247 l 738 247 l 726 0 l 28 0 l 28 50 l 554 860 l 164 860 l 126 682 l 42 682 l 53 929 l 707 929 l 707 881 l 182 69 l 615 69 l 653 247 m 225 1206 l 385 1088 l 544 1206 l 578 1176 l 436 1013 l 333 1013 l 192 1176 l 225 1206 z "},"Ż":{"ha":765,"x_min":28,"x_max":738,"o":"m 653 247 l 738 247 l 726 0 l 28 0 l 28 50 l 554 860 l 164 860 l 126 682 l 42 682 l 53 929 l 707 929 l 707 881 l 182 69 l 615 69 l 653 247 m 397 1022 q 331 1047 357 1022 q 304 1111 304 1072 q 331 1176 304 1151 q 397 1200 357 1200 q 464 1176 438 1200 q 490 1111 490 1151 q 464 1047 490 1072 q 397 1022 438 1022 z "},"Ẓ":{"ha":765,"x_min":28,"x_max":738,"o":"m 653 247 l 738 247 l 726 0 l 28 0 l 28 50 l 554 860 l 164 860 l 126 682 l 42 682 l 53 929 l 707 929 l 707 881 l 182 69 l 615 69 l 653 247 m 399 -282 q 332 -258 358 -282 q 306 -193 306 -233 q 332 -129 306 -154 q 399 -104 358 -104 q 465 -129 439 -104 q 492 -193 492 -154 q 465 -258 492 -233 q 399 -282 439 -282 z "},"Ð":{"ha":986,"x_min":61,"x_max":921,"o":"m 536 443 l 324 443 q 324 245 324 338 q 326 65 324 153 l 436 65 q 683 169 597 65 q 769 464 769 274 q 685 763 769 661 q 449 865 600 865 l 326 865 q 324 685 324 775 q 324 508 324 594 l 536 508 l 536 443 m 61 0 l 61 57 l 189 72 q 192 253 192 161 q 192 443 192 344 l 61 443 l 61 508 l 192 508 q 192 686 192 600 q 189 857 192 772 l 61 872 l 61 929 l 471 929 q 653 899 571 929 q 796 809 736 868 q 888 663 856 750 q 921 464 921 576 q 885 265 921 351 q 785 119 849 178 q 633 31 721 61 q 444 0 546 0 l 61 0 z "},"Þ":{"ha":849,"x_min":61,"x_max":814,"o":"m 192 431 l 192 499 q 192 678 192 589 q 189 857 192 767 l 61 872 l 61 929 l 461 929 l 461 872 l 326 857 q 325 800 325 829 q 325 743 325 771 l 453 743 q 724 671 635 743 q 814 481 814 599 q 797 383 814 431 q 735 297 779 335 q 614 237 690 260 q 418 214 538 214 l 324 214 q 325 143 325 178 q 326 72 325 108 l 461 57 l 461 0 l 61 0 l 61 57 l 189 72 q 192 249 192 160 q 192 431 192 339 m 324 431 l 324 279 l 440 279 q 620 336 563 279 q 678 483 678 393 q 620 628 678 578 q 436 678 563 678 l 324 678 l 324 501 l 324 431 z "},"Ə":{"ha":913,"x_min":65,"x_max":847,"o":"m 65 386 q 68 453 65 418 q 75 508 71 489 l 701 508 q 669 669 696 601 q 603 781 643 738 q 514 846 564 825 q 410 867 464 867 q 266 837 331 867 q 153 754 201 807 l 114 796 q 247 908 167 867 q 438 950 326 950 q 597 918 522 950 q 726 826 671 886 q 815 676 782 765 q 847 472 847 586 q 816 267 847 358 q 732 113 785 176 q 607 14 679 49 q 454 -21 535 -21 q 295 6 367 -21 q 172 85 224 33 q 93 213 121 138 q 65 386 65 289 m 456 49 q 635 143 569 49 q 703 443 700 238 l 214 443 q 208 393 210 417 q 206 333 206 369 q 224 226 206 278 q 274 135 242 175 q 353 72 307 96 q 456 49 399 49 z "},"à":{"ha":707,"x_min":63,"x_max":699,"o":"m 297 74 q 330 77 315 74 q 361 89 344 81 q 399 111 378 97 q 450 146 421 125 l 450 360 q 379 338 414 349 q 322 318 344 326 q 250 282 276 300 q 209 245 224 264 q 190 209 194 226 q 186 176 186 192 q 217 97 186 121 q 297 74 249 74 m 578 -14 q 494 15 528 -14 q 453 93 461 44 q 400 44 424 65 q 353 10 376 24 q 304 -11 329 -4 q 249 -18 279 -18 q 177 -7 211 -18 q 117 26 143 4 q 77 80 92 47 q 63 156 63 113 q 72 212 63 185 q 108 265 82 239 q 178 315 133 290 q 293 365 222 340 q 367 389 325 376 q 450 411 408 401 l 450 446 q 442 528 450 496 q 419 580 435 561 q 378 606 403 599 q 319 614 354 614 q 285 613 304 614 q 244 606 267 611 l 218 515 q 146 449 199 449 q 81 506 88 449 q 172 631 100 585 q 351 678 244 678 q 514 623 461 678 q 567 436 567 568 l 567 140 q 580 77 567 96 q 617 58 593 58 q 647 67 635 58 q 671 89 660 75 l 699 58 q 644 2 674 18 q 578 -14 614 -14 m 432 800 l 396 774 q 312 848 353 811 q 228 924 271 885 q 190 968 199 951 q 181 1000 181 985 q 197 1040 181 1028 q 233 1053 213 1053 q 271 1040 253 1053 q 308 996 289 1028 q 372 897 342 946 q 432 800 401 849 z "},"á":{"ha":707,"x_min":63,"x_max":699,"o":"m 297 74 q 330 77 315 74 q 361 89 344 81 q 399 111 378 97 q 450 146 421 125 l 450 360 q 379 338 414 349 q 322 318 344 326 q 250 282 276 300 q 209 245 224 264 q 190 209 194 226 q 186 176 186 192 q 217 97 186 121 q 297 74 249 74 m 578 -14 q 494 15 528 -14 q 453 93 461 44 q 400 44 424 65 q 353 10 376 24 q 304 -11 329 -4 q 249 -18 279 -18 q 177 -7 211 -18 q 117 26 143 4 q 77 80 92 47 q 63 156 63 113 q 72 212 63 185 q 108 265 82 239 q 178 315 133 290 q 293 365 222 340 q 367 389 325 376 q 450 411 408 401 l 450 446 q 442 528 450 496 q 419 580 435 561 q 378 606 403 599 q 319 614 354 614 q 285 613 304 614 q 244 606 267 611 l 218 515 q 146 449 199 449 q 81 506 88 449 q 172 631 100 585 q 351 678 244 678 q 514 623 461 678 q 567 436 567 568 l 567 140 q 580 77 567 96 q 617 58 593 58 q 647 67 635 58 q 671 89 660 75 l 699 58 q 644 2 674 18 q 578 -14 614 -14 m 304 800 q 428 996 363 897 q 465 1040 447 1028 q 503 1053 483 1053 q 539 1040 522 1053 q 556 1000 556 1028 q 547 968 556 985 q 508 924 538 951 q 424 848 465 885 q 340 774 383 811 l 304 800 z "},"â":{"ha":707,"x_min":63,"x_max":699,"o":"m 297 74 q 330 77 315 74 q 361 89 344 81 q 399 111 378 97 q 450 146 421 125 l 450 360 q 379 338 414 349 q 322 318 344 326 q 250 282 276 300 q 209 245 224 264 q 190 209 194 226 q 186 176 186 192 q 217 97 186 121 q 297 74 249 74 m 578 -14 q 494 15 528 -14 q 453 93 461 44 q 400 44 424 65 q 353 10 376 24 q 304 -11 329 -4 q 249 -18 279 -18 q 177 -7 211 -18 q 117 26 143 4 q 77 80 92 47 q 63 156 63 113 q 72 212 63 185 q 108 265 82 239 q 178 315 133 290 q 293 365 222 340 q 367 389 325 376 q 450 411 408 401 l 450 446 q 442 528 450 496 q 419 580 435 561 q 378 606 403 599 q 319 614 354 614 q 285 613 304 614 q 244 606 267 611 l 218 515 q 146 449 199 449 q 81 506 88 449 q 172 631 100 585 q 351 678 244 678 q 514 623 461 678 q 567 436 567 568 l 567 140 q 580 77 567 96 q 617 58 593 58 q 647 67 635 58 q 671 89 660 75 l 699 58 q 644 2 674 18 q 578 -14 614 -14 m 525 758 l 350 917 l 175 758 l 143 789 l 326 1033 l 374 1033 l 557 789 l 525 758 z "},"ã":{"ha":707,"x_min":63,"x_max":699,"o":"m 297 74 q 330 77 315 74 q 361 89 344 81 q 399 111 378 97 q 450 146 421 125 l 450 360 q 379 338 414 349 q 322 318 344 326 q 250 282 276 300 q 209 245 224 264 q 190 209 194 226 q 186 176 186 192 q 217 97 186 121 q 297 74 249 74 m 578 -14 q 494 15 528 -14 q 453 93 461 44 q 400 44 424 65 q 353 10 376 24 q 304 -11 329 -4 q 249 -18 279 -18 q 177 -7 211 -18 q 117 26 143 4 q 77 80 92 47 q 63 156 63 113 q 72 212 63 185 q 108 265 82 239 q 178 315 133 290 q 293 365 222 340 q 367 389 325 376 q 450 411 408 401 l 450 446 q 442 528 450 496 q 419 580 435 561 q 378 606 403 599 q 319 614 354 614 q 285 613 304 614 q 244 606 267 611 l 218 515 q 146 449 199 449 q 81 506 88 449 q 172 631 100 585 q 351 678 244 678 q 514 623 461 678 q 567 436 567 568 l 567 140 q 580 77 567 96 q 617 58 593 58 q 647 67 635 58 q 671 89 660 75 l 699 58 q 644 2 674 18 q 578 -14 614 -14 m 111 814 q 153 944 122 896 q 243 993 185 993 q 301 979 278 993 q 344 946 324 965 q 390 902 368 925 q 440 879 413 879 q 492 909 472 879 q 526 990 511 939 l 564 976 q 521 847 551 896 q 432 799 490 799 q 374 813 397 799 q 331 844 350 826 q 285 889 307 867 q 235 911 263 911 q 183 882 203 911 q 149 801 164 853 l 111 814 z "},"ä":{"ha":707,"x_min":63,"x_max":699,"o":"m 297 74 q 330 77 315 74 q 361 89 344 81 q 399 111 378 97 q 450 146 421 125 l 450 360 q 379 338 414 349 q 322 318 344 326 q 250 282 276 300 q 209 245 224 264 q 190 209 194 226 q 186 176 186 192 q 217 97 186 121 q 297 74 249 74 m 578 -14 q 494 15 528 -14 q 453 93 461 44 q 400 44 424 65 q 353 10 376 24 q 304 -11 329 -4 q 249 -18 279 -18 q 177 -7 211 -18 q 117 26 143 4 q 77 80 92 47 q 63 156 63 113 q 72 212 63 185 q 108 265 82 239 q 178 315 133 290 q 293 365 222 340 q 367 389 325 376 q 450 411 408 401 l 450 446 q 442 528 450 496 q 419 580 435 561 q 378 606 403 599 q 319 614 354 614 q 285 613 304 614 q 244 606 267 611 l 218 515 q 146 449 199 449 q 81 506 88 449 q 172 631 100 585 q 351 678 244 678 q 514 623 461 678 q 567 436 567 568 l 567 140 q 580 77 567 96 q 617 58 593 58 q 647 67 635 58 q 671 89 660 75 l 699 58 q 644 2 674 18 q 578 -14 614 -14 m 493 828 q 434 850 458 828 q 410 907 410 872 q 434 963 410 940 q 493 986 458 986 q 551 963 526 986 q 575 907 575 940 q 551 850 575 872 q 493 828 526 828 m 201 828 q 144 850 168 828 q 119 907 119 872 q 144 963 119 940 q 201 986 168 986 q 260 963 236 986 q 285 907 285 940 q 260 850 285 872 q 201 828 236 828 z "},"ā":{"ha":707,"x_min":63,"x_max":699,"o":"m 297 74 q 330 77 315 74 q 361 89 344 81 q 399 111 378 97 q 450 146 421 125 l 450 360 q 379 338 414 349 q 322 318 344 326 q 250 282 276 300 q 209 245 224 264 q 190 209 194 226 q 186 176 186 192 q 217 97 186 121 q 297 74 249 74 m 578 -14 q 494 15 528 -14 q 453 93 461 44 q 400 44 424 65 q 353 10 376 24 q 304 -11 329 -4 q 249 -18 279 -18 q 177 -7 211 -18 q 117 26 143 4 q 77 80 92 47 q 63 156 63 113 q 72 212 63 185 q 108 265 82 239 q 178 315 133 290 q 293 365 222 340 q 367 389 325 376 q 450 411 408 401 l 450 446 q 442 528 450 496 q 419 580 435 561 q 378 606 403 599 q 319 614 354 614 q 285 613 304 614 q 244 606 267 611 l 218 515 q 146 449 199 449 q 81 506 88 449 q 172 631 100 585 q 351 678 244 678 q 514 623 461 678 q 567 436 567 568 l 567 140 q 580 77 567 96 q 617 58 593 58 q 647 67 635 58 q 671 89 660 75 l 699 58 q 644 2 674 18 q 578 -14 614 -14 m 175 828 l 175 915 l 539 915 l 539 828 l 175 828 z "},"ă":{"ha":707,"x_min":63,"x_max":699,"o":"m 297 74 q 330 77 315 74 q 361 89 344 81 q 399 111 378 97 q 450 146 421 125 l 450 360 q 379 338 414 349 q 322 318 344 326 q 250 282 276 300 q 209 245 224 264 q 190 209 194 226 q 186 176 186 192 q 217 97 186 121 q 297 74 249 74 m 578 -14 q 494 15 528 -14 q 453 93 461 44 q 400 44 424 65 q 353 10 376 24 q 304 -11 329 -4 q 249 -18 279 -18 q 177 -7 211 -18 q 117 26 143 4 q 77 80 92 47 q 63 156 63 113 q 72 212 63 185 q 108 265 82 239 q 178 315 133 290 q 293 365 222 340 q 367 389 325 376 q 450 411 408 401 l 450 446 q 442 528 450 496 q 419 580 435 561 q 378 606 403 599 q 319 614 354 614 q 285 613 304 614 q 244 606 267 611 l 218 515 q 146 449 199 449 q 81 506 88 449 q 172 631 100 585 q 351 678 244 678 q 514 623 461 678 q 567 436 567 568 l 567 140 q 580 77 567 96 q 617 58 593 58 q 647 67 635 58 q 671 89 660 75 l 699 58 q 644 2 674 18 q 578 -14 614 -14 m 147 1004 l 189 1019 q 249 928 210 965 q 357 890 288 890 q 465 928 426 890 q 525 1019 504 965 l 567 1004 q 547 927 563 964 q 505 862 531 890 q 442 816 479 833 q 357 799 404 799 q 272 816 308 799 q 209 862 235 833 q 167 927 183 890 q 147 1004 151 964 z "},"ắ":{"ha":707,"x_min":63,"x_max":699,"o":"m 297 74 q 330 77 315 74 q 361 89 344 81 q 399 111 378 97 q 450 146 421 125 l 450 360 q 379 338 414 349 q 322 318 344 326 q 250 282 276 300 q 209 245 224 264 q 190 209 194 226 q 186 176 186 192 q 217 97 186 121 q 297 74 249 74 m 578 -14 q 494 15 528 -14 q 453 93 461 44 q 400 44 424 65 q 353 10 376 24 q 304 -11 329 -4 q 249 -18 279 -18 q 177 -7 211 -18 q 117 26 143 4 q 77 80 92 47 q 63 156 63 113 q 72 212 63 185 q 108 265 82 239 q 178 315 133 290 q 293 365 222 340 q 367 389 325 376 q 450 411 408 401 l 450 446 q 442 528 450 496 q 419 580 435 561 q 378 606 403 599 q 319 614 354 614 q 285 613 304 614 q 244 606 267 611 l 218 515 q 146 449 199 449 q 81 506 88 449 q 172 631 100 585 q 351 678 244 678 q 514 623 461 678 q 567 436 567 568 l 567 140 q 580 77 567 96 q 617 58 593 58 q 647 67 635 58 q 671 89 660 75 l 699 58 q 644 2 674 18 q 578 -14 614 -14 m 357 797 q 273 813 308 797 q 213 855 238 829 q 175 912 189 881 q 157 975 161 943 l 200 990 q 256 911 218 942 q 357 881 294 881 q 460 911 419 881 q 515 989 500 942 l 557 975 q 539 912 553 943 q 501 855 525 881 q 440 813 476 829 q 357 797 404 797 m 319 965 l 385 1101 q 451 1165 415 1165 q 484 1152 468 1165 q 500 1119 500 1139 q 492 1088 500 1104 q 460 1046 485 1071 l 357 938 l 319 965 z "},"ặ":{"ha":707,"x_min":63,"x_max":699,"o":"m 297 74 q 330 77 315 74 q 361 89 344 81 q 399 111 378 97 q 450 146 421 125 l 450 360 q 379 338 414 349 q 322 318 344 326 q 250 282 276 300 q 209 245 224 264 q 190 209 194 226 q 186 176 186 192 q 217 97 186 121 q 297 74 249 74 m 578 -14 q 494 15 528 -14 q 453 93 461 44 q 400 44 424 65 q 353 10 376 24 q 304 -11 329 -4 q 249 -18 279 -18 q 177 -7 211 -18 q 117 26 143 4 q 77 80 92 47 q 63 156 63 113 q 72 212 63 185 q 108 265 82 239 q 178 315 133 290 q 293 365 222 340 q 367 389 325 376 q 450 411 408 401 l 450 446 q 442 528 450 496 q 419 580 435 561 q 378 606 403 599 q 319 614 354 614 q 285 613 304 614 q 244 606 267 611 l 218 515 q 146 449 199 449 q 81 506 88 449 q 172 631 100 585 q 351 678 244 678 q 514 623 461 678 q 567 436 567 568 l 567 140 q 580 77 567 96 q 617 58 593 58 q 647 67 635 58 q 671 89 660 75 l 699 58 q 644 2 674 18 q 578 -14 614 -14 m 147 1004 l 189 1019 q 249 928 210 965 q 357 890 288 890 q 465 928 426 890 q 525 1019 504 965 l 567 1004 q 547 927 563 964 q 505 862 531 890 q 442 816 479 833 q 357 799 404 799 q 272 816 308 799 q 209 862 235 833 q 167 927 183 890 q 147 1004 151 964 m 346 -282 q 279 -258 306 -282 q 253 -193 253 -233 q 279 -129 253 -154 q 346 -104 306 -104 q 413 -129 386 -104 q 439 -193 439 -154 q 413 -258 439 -233 q 346 -282 386 -282 z "},"ằ":{"ha":707,"x_min":63,"x_max":699,"o":"m 297 74 q 330 77 315 74 q 361 89 344 81 q 399 111 378 97 q 450 146 421 125 l 450 360 q 379 338 414 349 q 322 318 344 326 q 250 282 276 300 q 209 245 224 264 q 190 209 194 226 q 186 176 186 192 q 217 97 186 121 q 297 74 249 74 m 578 -14 q 494 15 528 -14 q 453 93 461 44 q 400 44 424 65 q 353 10 376 24 q 304 -11 329 -4 q 249 -18 279 -18 q 177 -7 211 -18 q 117 26 143 4 q 77 80 92 47 q 63 156 63 113 q 72 212 63 185 q 108 265 82 239 q 178 315 133 290 q 293 365 222 340 q 367 389 325 376 q 450 411 408 401 l 450 446 q 442 528 450 496 q 419 580 435 561 q 378 606 403 599 q 319 614 354 614 q 285 613 304 614 q 244 606 267 611 l 218 515 q 146 449 199 449 q 81 506 88 449 q 172 631 100 585 q 351 678 244 678 q 514 623 461 678 q 567 436 567 568 l 567 140 q 580 77 567 96 q 617 58 593 58 q 647 67 635 58 q 671 89 660 75 l 699 58 q 644 2 674 18 q 578 -14 614 -14 m 157 975 l 200 990 q 256 911 218 942 q 357 881 294 881 q 460 911 419 881 q 515 989 500 942 l 557 975 q 539 912 553 943 q 501 855 525 881 q 440 813 476 829 q 357 797 404 797 q 273 813 308 797 q 213 855 238 829 q 175 912 189 881 q 157 975 161 943 m 254 1046 q 222 1088 229 1071 q 214 1119 214 1104 q 230 1152 214 1139 q 263 1165 246 1165 q 329 1101 299 1165 l 394 965 l 357 938 l 254 1046 z "},"ẳ":{"ha":707,"x_min":63,"x_max":699,"o":"m 297 74 q 330 77 315 74 q 361 89 344 81 q 399 111 378 97 q 450 146 421 125 l 450 360 q 379 338 414 349 q 322 318 344 326 q 250 282 276 300 q 209 245 224 264 q 190 209 194 226 q 186 176 186 192 q 217 97 186 121 q 297 74 249 74 m 578 -14 q 494 15 528 -14 q 453 93 461 44 q 400 44 424 65 q 353 10 376 24 q 304 -11 329 -4 q 249 -18 279 -18 q 177 -7 211 -18 q 117 26 143 4 q 77 80 92 47 q 63 156 63 113 q 72 212 63 185 q 108 265 82 239 q 178 315 133 290 q 293 365 222 340 q 367 389 325 376 q 450 411 408 401 l 450 446 q 442 528 450 496 q 419 580 435 561 q 378 606 403 599 q 319 614 354 614 q 285 613 304 614 q 244 606 267 611 l 218 515 q 146 449 199 449 q 81 506 88 449 q 172 631 100 585 q 351 678 244 678 q 514 623 461 678 q 567 436 567 568 l 567 140 q 580 77 567 96 q 617 58 593 58 q 647 67 635 58 q 671 89 660 75 l 699 58 q 644 2 674 18 q 578 -14 614 -14 m 331 956 l 318 999 q 375 1017 358 1007 q 392 1044 392 1028 q 276 1092 392 1082 l 290 1185 q 460 1064 460 1169 q 426 992 460 1021 q 331 956 392 964 m 157 974 l 200 989 q 255 912 215 942 q 357 882 294 882 q 458 912 419 882 q 514 989 496 942 l 557 974 q 538 910 553 942 q 499 854 524 879 q 440 813 475 829 q 357 797 404 797 q 274 813 310 797 q 215 854 239 829 q 176 910 190 879 q 157 974 161 942 z "},"ẵ":{"ha":707,"x_min":63,"x_max":699,"o":"m 297 74 q 330 77 315 74 q 361 89 344 81 q 399 111 378 97 q 450 146 421 125 l 450 360 q 379 338 414 349 q 322 318 344 326 q 250 282 276 300 q 209 245 224 264 q 190 209 194 226 q 186 176 186 192 q 217 97 186 121 q 297 74 249 74 m 578 -14 q 494 15 528 -14 q 453 93 461 44 q 400 44 424 65 q 353 10 376 24 q 304 -11 329 -4 q 249 -18 279 -18 q 177 -7 211 -18 q 117 26 143 4 q 77 80 92 47 q 63 156 63 113 q 72 212 63 185 q 108 265 82 239 q 178 315 133 290 q 293 365 222 340 q 367 389 325 376 q 450 411 408 401 l 450 446 q 442 528 450 496 q 419 580 435 561 q 378 606 403 599 q 319 614 354 614 q 285 613 304 614 q 244 606 267 611 l 218 515 q 146 449 199 449 q 81 506 88 449 q 172 631 100 585 q 351 678 244 678 q 514 623 461 678 q 567 436 567 568 l 567 140 q 580 77 567 96 q 617 58 593 58 q 647 67 635 58 q 671 89 660 75 l 699 58 q 644 2 674 18 q 578 -14 614 -14 m 357 797 q 273 813 308 797 q 213 855 238 829 q 175 912 189 881 q 157 975 161 943 l 200 990 q 256 911 218 942 q 357 881 294 881 q 460 911 419 881 q 515 989 500 942 l 557 975 q 539 912 553 943 q 501 855 525 881 q 440 813 476 829 q 357 797 404 797 m 131 1019 q 172 1110 139 1076 q 263 1144 204 1144 q 322 1135 299 1144 q 367 1114 344 1126 q 413 1091 390 1101 q 464 1081 436 1081 q 550 1144 524 1081 l 583 1129 q 542 1039 574 1072 q 451 1006 510 1006 q 392 1015 415 1006 q 347 1036 368 1024 q 301 1059 325 1049 q 250 1069 278 1069 q 164 1006 190 1069 l 131 1019 z "},"ǎ":{"ha":707,"x_min":63,"x_max":699,"o":"m 297 74 q 330 77 315 74 q 361 89 344 81 q 399 111 378 97 q 450 146 421 125 l 450 360 q 379 338 414 349 q 322 318 344 326 q 250 282 276 300 q 209 245 224 264 q 190 209 194 226 q 186 176 186 192 q 217 97 186 121 q 297 74 249 74 m 578 -14 q 494 15 528 -14 q 453 93 461 44 q 400 44 424 65 q 353 10 376 24 q 304 -11 329 -4 q 249 -18 279 -18 q 177 -7 211 -18 q 117 26 143 4 q 77 80 92 47 q 63 156 63 113 q 72 212 63 185 q 108 265 82 239 q 178 315 133 290 q 293 365 222 340 q 367 389 325 376 q 450 411 408 401 l 450 446 q 442 528 450 496 q 419 580 435 561 q 378 606 403 599 q 319 614 354 614 q 285 613 304 614 q 244 606 267 611 l 218 515 q 146 449 199 449 q 81 506 88 449 q 172 631 100 585 q 351 678 244 678 q 514 623 461 678 q 567 436 567 568 l 567 140 q 580 77 567 96 q 617 58 593 58 q 647 67 635 58 q 671 89 660 75 l 699 58 q 644 2 674 18 q 578 -14 614 -14 m 186 1026 l 346 881 l 506 1026 l 539 999 l 397 793 l 294 793 l 153 999 l 186 1026 z "},"ấ":{"ha":707,"x_min":63,"x_max":699,"o":"m 297 74 q 330 77 315 74 q 361 89 344 81 q 399 111 378 97 q 450 146 421 125 l 450 360 q 379 338 414 349 q 322 318 344 326 q 250 282 276 300 q 209 245 224 264 q 190 209 194 226 q 186 176 186 192 q 217 97 186 121 q 297 74 249 74 m 578 -14 q 494 15 528 -14 q 453 93 461 44 q 400 44 424 65 q 353 10 376 24 q 304 -11 329 -4 q 249 -18 279 -18 q 177 -7 211 -18 q 117 26 143 4 q 77 80 92 47 q 63 156 63 113 q 72 212 63 185 q 108 265 82 239 q 178 315 133 290 q 293 365 222 340 q 367 389 325 376 q 450 411 408 401 l 450 446 q 442 528 450 496 q 419 580 435 561 q 378 606 403 599 q 319 614 354 614 q 285 613 304 614 q 244 606 267 611 l 218 515 q 146 449 199 449 q 81 506 88 449 q 172 631 100 585 q 351 678 244 678 q 514 623 461 678 q 567 436 567 568 l 567 140 q 580 77 567 96 q 617 58 593 58 q 647 67 635 58 q 671 89 660 75 l 699 58 q 644 2 674 18 q 578 -14 614 -14 m 176 744 l 150 779 l 332 939 l 379 939 l 561 779 l 535 744 l 356 847 l 176 744 m 525 882 l 490 913 l 560 1035 q 592 1077 575 1064 q 625 1090 610 1090 q 660 1078 644 1090 q 675 1042 675 1065 q 667 1013 675 1029 q 632 974 660 996 l 525 882 z "},"ậ":{"ha":707,"x_min":63,"x_max":699,"o":"m 297 74 q 330 77 315 74 q 361 89 344 81 q 399 111 378 97 q 450 146 421 125 l 450 360 q 379 338 414 349 q 322 318 344 326 q 250 282 276 300 q 209 245 224 264 q 190 209 194 226 q 186 176 186 192 q 217 97 186 121 q 297 74 249 74 m 578 -14 q 494 15 528 -14 q 453 93 461 44 q 400 44 424 65 q 353 10 376 24 q 304 -11 329 -4 q 249 -18 279 -18 q 177 -7 211 -18 q 117 26 143 4 q 77 80 92 47 q 63 156 63 113 q 72 212 63 185 q 108 265 82 239 q 178 315 133 290 q 293 365 222 340 q 367 389 325 376 q 450 411 408 401 l 450 446 q 442 528 450 496 q 419 580 435 561 q 378 606 403 599 q 319 614 354 614 q 285 613 304 614 q 244 606 267 611 l 218 515 q 146 449 199 449 q 81 506 88 449 q 172 631 100 585 q 351 678 244 678 q 514 623 461 678 q 567 436 567 568 l 567 140 q 580 77 567 96 q 617 58 593 58 q 647 67 635 58 q 671 89 660 75 l 699 58 q 644 2 674 18 q 578 -14 614 -14 m 525 758 l 350 917 l 175 758 l 143 789 l 326 1033 l 374 1033 l 557 789 l 525 758 m 346 -282 q 279 -258 306 -282 q 253 -193 253 -233 q 279 -129 253 -154 q 346 -104 306 -104 q 413 -129 386 -104 q 439 -193 439 -154 q 413 -258 439 -233 q 346 -282 386 -282 z "},"ầ":{"ha":707,"x_min":51,"x_max":699,"o":"m 297 74 q 330 77 315 74 q 361 89 344 81 q 399 111 378 97 q 450 146 421 125 l 450 360 q 379 338 414 349 q 322 318 344 326 q 250 282 276 300 q 209 245 224 264 q 190 209 194 226 q 186 176 186 192 q 217 97 186 121 q 297 74 249 74 m 578 -14 q 494 15 528 -14 q 453 93 461 44 q 400 44 424 65 q 353 10 376 24 q 304 -11 329 -4 q 249 -18 279 -18 q 177 -7 211 -18 q 117 26 143 4 q 77 80 92 47 q 63 156 63 113 q 72 212 63 185 q 108 265 82 239 q 178 315 133 290 q 293 365 222 340 q 367 389 325 376 q 450 411 408 401 l 450 446 q 442 528 450 496 q 419 580 435 561 q 378 606 403 599 q 319 614 354 614 q 285 613 304 614 q 244 606 267 611 l 218 515 q 146 449 199 449 q 81 506 88 449 q 172 631 100 585 q 351 678 244 678 q 514 623 461 678 q 567 436 567 568 l 567 140 q 580 77 567 96 q 617 58 593 58 q 647 67 635 58 q 671 89 660 75 l 699 58 q 644 2 674 18 q 578 -14 614 -14 m 94 974 q 59 1013 67 996 q 51 1042 51 1029 q 67 1078 51 1065 q 100 1090 82 1090 q 167 1035 135 1090 l 235 913 l 201 882 l 94 974 m 178 744 l 151 779 l 333 939 l 381 939 l 563 779 l 536 744 l 357 847 l 178 744 z "},"ẩ":{"ha":707,"x_min":63,"x_max":699,"o":"m 297 74 q 330 77 315 74 q 361 89 344 81 q 399 111 378 97 q 450 146 421 125 l 450 360 q 379 338 414 349 q 322 318 344 326 q 250 282 276 300 q 209 245 224 264 q 190 209 194 226 q 186 176 186 192 q 217 97 186 121 q 297 74 249 74 m 578 -14 q 494 15 528 -14 q 453 93 461 44 q 400 44 424 65 q 353 10 376 24 q 304 -11 329 -4 q 249 -18 279 -18 q 177 -7 211 -18 q 117 26 143 4 q 77 80 92 47 q 63 156 63 113 q 72 212 63 185 q 108 265 82 239 q 178 315 133 290 q 293 365 222 340 q 367 389 325 376 q 450 411 408 401 l 450 446 q 442 528 450 496 q 419 580 435 561 q 378 606 403 599 q 319 614 354 614 q 285 613 304 614 q 244 606 267 611 l 218 515 q 146 449 199 449 q 81 506 88 449 q 172 631 100 585 q 351 678 244 678 q 514 623 461 678 q 567 436 567 568 l 567 140 q 580 77 567 96 q 617 58 593 58 q 647 67 635 58 q 671 89 660 75 l 699 58 q 644 2 674 18 q 578 -14 614 -14 m 176 744 l 150 779 l 332 939 l 379 939 l 561 779 l 535 744 l 356 847 l 176 744 m 515 906 q 572 932 556 915 q 589 972 589 949 q 563 1015 589 1003 q 474 1039 536 1028 l 488 1132 q 657 993 657 1117 q 623 905 657 940 q 528 863 589 869 l 515 906 z "},"ẫ":{"ha":707,"x_min":63,"x_max":699,"o":"m 297 74 q 330 77 315 74 q 361 89 344 81 q 399 111 378 97 q 450 146 421 125 l 450 360 q 379 338 414 349 q 322 318 344 326 q 250 282 276 300 q 209 245 224 264 q 190 209 194 226 q 186 176 186 192 q 217 97 186 121 q 297 74 249 74 m 578 -14 q 494 15 528 -14 q 453 93 461 44 q 400 44 424 65 q 353 10 376 24 q 304 -11 329 -4 q 249 -18 279 -18 q 177 -7 211 -18 q 117 26 143 4 q 77 80 92 47 q 63 156 63 113 q 72 212 63 185 q 108 265 82 239 q 178 315 133 290 q 293 365 222 340 q 367 389 325 376 q 450 411 408 401 l 450 446 q 442 528 450 496 q 419 580 435 561 q 378 606 403 599 q 319 614 354 614 q 285 613 304 614 q 244 606 267 611 l 218 515 q 146 449 199 449 q 81 506 88 449 q 172 631 100 585 q 351 678 244 678 q 514 623 461 678 q 567 436 567 568 l 567 140 q 580 77 567 96 q 617 58 593 58 q 647 67 635 58 q 671 89 660 75 l 699 58 q 644 2 674 18 q 578 -14 614 -14 m 176 744 l 150 779 l 332 938 l 379 938 l 561 779 l 535 744 l 356 846 l 176 744 m 129 979 q 170 1070 138 1036 q 261 1104 203 1104 q 320 1095 297 1104 q 365 1075 343 1086 q 412 1051 389 1061 q 463 1040 435 1040 q 549 1106 522 1040 l 582 1089 q 540 999 572 1032 q 450 965 508 965 q 390 974 414 965 q 346 996 367 983 q 300 1019 324 1010 q 249 1029 276 1029 q 163 965 189 1029 l 129 979 z "},"ạ":{"ha":707,"x_min":63,"x_max":699,"o":"m 297 74 q 330 77 315 74 q 361 89 344 81 q 399 111 378 97 q 450 146 421 125 l 450 360 q 379 338 414 349 q 322 318 344 326 q 250 282 276 300 q 209 245 224 264 q 190 209 194 226 q 186 176 186 192 q 217 97 186 121 q 297 74 249 74 m 578 -14 q 494 15 528 -14 q 453 93 461 44 q 400 44 424 65 q 353 10 376 24 q 304 -11 329 -4 q 249 -18 279 -18 q 177 -7 211 -18 q 117 26 143 4 q 77 80 92 47 q 63 156 63 113 q 72 212 63 185 q 108 265 82 239 q 178 315 133 290 q 293 365 222 340 q 367 389 325 376 q 450 411 408 401 l 450 446 q 442 528 450 496 q 419 580 435 561 q 378 606 403 599 q 319 614 354 614 q 285 613 304 614 q 244 606 267 611 l 218 515 q 146 449 199 449 q 81 506 88 449 q 172 631 100 585 q 351 678 244 678 q 514 623 461 678 q 567 436 567 568 l 567 140 q 580 77 567 96 q 617 58 593 58 q 647 67 635 58 q 671 89 660 75 l 699 58 q 644 2 674 18 q 578 -14 614 -14 m 346 -282 q 279 -258 306 -282 q 253 -193 253 -233 q 279 -129 253 -154 q 346 -104 306 -104 q 413 -129 386 -104 q 439 -193 439 -154 q 413 -258 439 -233 q 346 -282 386 -282 z "},"ả":{"ha":707,"x_min":63,"x_max":699,"o":"m 297 74 q 330 77 315 74 q 361 89 344 81 q 399 111 378 97 q 450 146 421 125 l 450 360 q 379 338 414 349 q 322 318 344 326 q 250 282 276 300 q 209 245 224 264 q 190 209 194 226 q 186 176 186 192 q 217 97 186 121 q 297 74 249 74 m 578 -14 q 494 15 528 -14 q 453 93 461 44 q 400 44 424 65 q 353 10 376 24 q 304 -11 329 -4 q 249 -18 279 -18 q 177 -7 211 -18 q 117 26 143 4 q 77 80 92 47 q 63 156 63 113 q 72 212 63 185 q 108 265 82 239 q 178 315 133 290 q 293 365 222 340 q 367 389 325 376 q 450 411 408 401 l 450 446 q 442 528 450 496 q 419 580 435 561 q 378 606 403 599 q 319 614 354 614 q 285 613 304 614 q 244 606 267 611 l 218 515 q 146 449 199 449 q 81 506 88 449 q 172 631 100 585 q 351 678 244 678 q 514 623 461 678 q 567 436 567 568 l 567 140 q 580 77 567 96 q 617 58 593 58 q 647 67 635 58 q 671 89 660 75 l 699 58 q 644 2 674 18 q 578 -14 614 -14 m 343 768 l 331 811 q 388 837 371 819 q 404 878 404 854 q 378 920 404 907 q 289 944 351 933 l 303 1038 q 472 899 472 1022 q 438 810 472 846 q 343 768 404 775 z "},"å":{"ha":707,"x_min":63,"x_max":699,"o":"m 297 74 q 330 77 315 74 q 361 89 344 81 q 399 111 378 97 q 450 146 421 125 l 450 360 q 379 338 414 349 q 322 318 344 326 q 250 282 276 300 q 209 245 224 264 q 190 209 194 226 q 186 176 186 192 q 217 97 186 121 q 297 74 249 74 m 578 -14 q 494 15 528 -14 q 453 93 461 44 q 400 44 424 65 q 353 10 376 24 q 304 -11 329 -4 q 249 -18 279 -18 q 177 -7 211 -18 q 117 26 143 4 q 77 80 92 47 q 63 156 63 113 q 72 212 63 185 q 108 265 82 239 q 178 315 133 290 q 293 365 222 340 q 367 389 325 376 q 450 411 408 401 l 450 446 q 442 528 450 496 q 419 580 435 561 q 378 606 403 599 q 319 614 354 614 q 285 613 304 614 q 244 606 267 611 l 218 515 q 146 449 199 449 q 81 506 88 449 q 172 631 100 585 q 351 678 244 678 q 514 623 461 678 q 567 436 567 568 l 567 140 q 580 77 567 96 q 617 58 593 58 q 647 67 635 58 q 671 89 660 75 l 699 58 q 644 2 674 18 q 578 -14 614 -14 m 357 819 q 415 847 394 819 q 436 906 436 874 q 416 964 436 938 q 357 990 396 990 q 299 964 319 990 q 278 906 278 938 q 298 847 278 874 q 357 819 318 819 m 357 764 q 303 774 329 764 q 256 801 276 783 q 224 846 236 819 q 211 906 211 872 q 224 964 211 938 q 256 1008 236 990 q 303 1036 276 1026 q 357 1046 329 1046 q 411 1037 385 1046 q 458 1010 438 1028 q 490 965 478 992 q 503 906 503 939 q 490 846 503 872 q 458 801 478 819 q 411 774 438 783 q 357 764 385 764 z "},"ą":{"ha":707,"x_min":63,"x_max":728,"o":"m 63 156 q 72 212 63 185 q 108 265 82 239 q 178 315 133 290 q 293 365 222 340 q 367 389 325 376 q 450 411 408 401 l 450 446 q 442 528 450 496 q 419 580 435 561 q 378 606 403 599 q 319 614 354 614 q 287 613 304 614 q 249 606 269 611 l 221 510 q 146 443 201 443 q 100 459 117 443 q 81 503 83 475 q 172 630 100 582 q 351 678 244 678 q 514 623 461 678 q 567 436 567 568 l 567 143 q 613 58 567 58 q 643 67 629 58 q 671 89 657 75 l 699 56 q 669 24 682 36 q 633 -7 656 11 q 572 -66 599 -35 q 544 -133 544 -97 q 572 -203 544 -178 q 639 -228 599 -228 q 673 -224 654 -228 q 711 -207 692 -219 l 728 -239 q 665 -290 703 -275 q 583 -306 628 -306 q 492 -274 526 -306 q 457 -183 457 -242 q 493 -87 457 -131 q 578 -15 529 -43 q 492 17 522 -12 q 453 93 461 46 q 400 44 424 65 q 353 10 376 24 q 304 -11 329 -4 q 249 -18 279 -18 q 177 -7 211 -18 q 117 26 143 4 q 77 80 92 47 q 63 156 63 113 m 297 74 q 330 77 315 74 q 361 89 344 81 q 399 111 378 97 q 450 146 421 125 l 450 360 q 379 338 414 349 q 322 318 344 326 q 250 282 276 300 q 209 245 224 264 q 190 209 194 226 q 186 176 186 192 q 217 97 186 121 q 297 74 249 74 z "},"æ":{"ha":1086,"x_min":63,"x_max":1022,"o":"m 186 179 q 219 99 186 125 q 297 74 253 74 q 334 77 317 74 q 371 90 351 81 q 415 115 390 99 q 474 158 439 132 q 444 324 444 226 q 444 340 444 332 q 446 357 444 349 q 377 335 410 346 q 322 315 344 324 q 250 280 276 297 q 209 245 224 263 q 190 211 194 228 q 186 179 186 194 m 753 -18 q 600 16 665 -18 q 494 117 535 50 q 420 50 453 76 q 360 8 388 24 q 306 -12 332 -7 q 249 -18 279 -18 q 177 -7 211 -18 q 117 26 143 4 q 77 82 92 49 q 63 158 63 115 q 72 214 63 188 q 108 265 82 240 q 178 313 133 289 q 293 363 222 338 q 367 386 325 374 q 450 410 408 399 l 450 446 q 442 528 450 496 q 419 580 435 561 q 379 606 403 599 q 324 614 356 614 q 288 613 307 614 q 249 606 269 611 l 221 510 q 146 443 201 443 q 100 459 117 443 q 81 503 83 475 q 172 630 100 582 q 351 678 244 678 q 466 653 417 678 q 539 569 515 628 q 640 649 583 619 q 761 678 697 678 q 864 660 817 678 q 947 607 911 642 q 1002 523 982 572 q 1022 410 1022 474 q 1019 367 1022 386 q 1013 333 1017 347 l 568 333 q 631 139 569 206 q 794 72 692 72 q 906 99 861 72 q 988 169 950 125 l 1019 143 q 915 25 982 68 q 753 -18 849 -18 m 754 614 q 695 602 725 614 q 640 564 665 590 q 595 495 614 538 q 571 392 576 453 l 824 392 q 890 412 874 392 q 907 464 907 432 q 895 520 907 493 q 863 568 883 547 q 815 601 843 589 q 754 614 788 614 z "},"ç":{"ha":678,"x_min":58,"x_max":629,"o":"m 385 614 q 238 545 296 614 q 181 342 181 476 q 242 141 181 210 q 403 72 304 72 q 513 99 463 72 q 594 178 563 126 l 629 160 q 535 27 600 72 q 371 -18 469 -18 q 242 6 300 -18 q 143 74 183 29 q 81 183 103 119 q 58 328 58 247 q 85 475 58 410 q 156 585 111 540 q 259 654 201 631 q 379 678 317 678 q 468 664 426 678 q 542 626 510 650 q 597 569 575 601 q 625 497 618 536 q 561 444 615 444 q 508 463 525 444 q 485 511 492 482 l 460 603 q 422 612 440 610 q 385 614 403 614 m 329 -119 l 347 4 l 399 4 l 388 -81 q 478 -117 440 -89 q 515 -194 515 -144 q 476 -274 515 -243 q 360 -306 436 -306 q 308 -301 329 -306 q 272 -293 286 -297 l 282 -250 q 314 -253 299 -253 q 349 -254 329 -254 q 409 -237 389 -254 q 429 -192 429 -221 q 405 -143 429 -160 q 329 -119 381 -126 z "},"ć":{"ha":678,"x_min":58,"x_max":629,"o":"m 385 614 q 238 545 296 614 q 181 342 181 476 q 242 141 181 210 q 403 72 304 72 q 513 99 463 72 q 594 178 563 126 l 629 160 q 535 27 600 72 q 371 -18 469 -18 q 242 6 300 -18 q 143 74 183 29 q 81 183 103 119 q 58 328 58 247 q 85 475 58 410 q 156 585 111 540 q 259 654 201 631 q 379 678 317 678 q 468 664 426 678 q 542 626 510 650 q 597 569 575 601 q 625 497 618 536 q 561 444 615 444 q 508 463 525 444 q 485 511 492 482 l 460 603 q 422 612 440 610 q 385 614 403 614 m 325 800 q 449 996 383 897 q 486 1040 468 1028 q 524 1053 504 1053 q 560 1040 543 1053 q 576 1000 576 1028 q 567 968 576 985 q 529 924 558 951 q 445 848 486 885 q 361 774 404 811 l 325 800 z "},"č":{"ha":678,"x_min":58,"x_max":629,"o":"m 385 614 q 238 545 296 614 q 181 342 181 476 q 242 141 181 210 q 403 72 304 72 q 513 99 463 72 q 594 178 563 126 l 629 160 q 535 27 600 72 q 371 -18 469 -18 q 242 6 300 -18 q 143 74 183 29 q 81 183 103 119 q 58 328 58 247 q 85 475 58 410 q 156 585 111 540 q 259 654 201 631 q 379 678 317 678 q 468 664 426 678 q 542 626 510 650 q 597 569 575 601 q 625 497 618 536 q 561 444 615 444 q 508 463 525 444 q 485 511 492 482 l 460 603 q 422 612 440 610 q 385 614 403 614 m 221 1026 l 381 881 l 540 1026 l 574 999 l 432 793 l 329 793 l 188 999 l 221 1026 z "},"ĉ":{"ha":678,"x_min":58,"x_max":629,"o":"m 385 614 q 238 545 296 614 q 181 342 181 476 q 242 141 181 210 q 403 72 304 72 q 513 99 463 72 q 594 178 563 126 l 629 160 q 535 27 600 72 q 371 -18 469 -18 q 242 6 300 -18 q 143 74 183 29 q 81 183 103 119 q 58 328 58 247 q 85 475 58 410 q 156 585 111 540 q 259 654 201 631 q 379 678 317 678 q 468 664 426 678 q 542 626 510 650 q 597 569 575 601 q 625 497 618 536 q 561 444 615 444 q 508 463 525 444 q 485 511 492 482 l 460 603 q 422 612 440 610 q 385 614 403 614 m 544 758 l 369 917 l 194 758 l 163 789 l 346 1033 l 393 1033 l 576 789 l 544 758 z "},"ċ":{"ha":678,"x_min":58,"x_max":629,"o":"m 385 614 q 238 545 296 614 q 181 342 181 476 q 242 141 181 210 q 403 72 304 72 q 513 99 463 72 q 594 178 563 126 l 629 160 q 535 27 600 72 q 371 -18 469 -18 q 242 6 300 -18 q 143 74 183 29 q 81 183 103 119 q 58 328 58 247 q 85 475 58 410 q 156 585 111 540 q 259 654 201 631 q 379 678 317 678 q 468 664 426 678 q 542 626 510 650 q 597 569 575 601 q 625 497 618 536 q 561 444 615 444 q 508 463 525 444 q 485 511 492 482 l 460 603 q 422 612 440 610 q 385 614 403 614 m 381 818 q 314 842 340 818 q 288 907 288 867 q 314 971 288 946 q 381 996 340 996 q 447 971 421 996 q 474 907 474 946 q 447 842 474 867 q 381 818 421 818 z "},"ď":{"ha":835,"x_min":63,"x_max":894,"o":"m 188 326 q 242 126 188 190 q 381 61 297 61 q 462 79 426 61 q 536 142 497 97 l 536 526 q 451 583 488 568 q 379 599 414 599 q 306 583 340 599 q 244 533 271 567 q 203 449 218 500 q 188 326 188 397 m 550 -14 l 540 83 q 458 8 504 35 q 346 -18 411 -18 q 230 7 282 -18 q 140 77 178 32 q 83 185 103 122 q 63 324 63 247 q 85 468 63 403 q 147 580 107 533 q 240 652 186 626 q 358 678 294 678 q 453 658 408 678 q 540 588 497 638 l 540 901 l 422 915 l 422 964 l 639 1026 l 658 1015 l 653 818 l 653 68 l 765 50 l 765 0 l 550 -14 m 844 1028 q 883 1014 872 1028 q 894 976 894 1000 q 890 940 894 961 q 879 895 886 919 q 864 845 872 871 q 847 794 856 819 l 821 719 l 776 719 l 781 1010 q 844 1028 813 1028 z "},"đ":{"ha":788,"x_min":63,"x_max":765,"o":"m 283 747 l 283 811 l 540 811 l 540 901 l 422 915 l 422 964 l 639 1026 l 658 1015 l 653 811 l 765 811 l 765 747 l 653 747 l 653 68 l 765 50 l 765 0 l 550 -14 l 540 83 q 346 -18 464 -18 q 230 6 282 -18 q 140 73 178 29 q 83 176 103 117 q 63 310 63 236 q 85 451 63 386 q 147 562 107 515 q 239 634 186 608 q 354 660 292 660 q 453 640 410 660 q 540 569 497 619 l 540 747 l 283 747 m 188 313 q 242 122 188 183 q 381 61 297 61 q 461 80 425 61 q 536 142 497 99 l 536 507 q 451 565 488 549 q 382 581 414 581 q 307 564 342 581 q 245 514 272 547 q 203 430 218 481 q 188 313 188 379 z "},"ḍ":{"ha":788,"x_min":63,"x_max":765,"o":"m 188 326 q 242 126 188 190 q 381 61 297 61 q 462 79 426 61 q 536 142 497 97 l 536 526 q 451 583 488 568 q 379 599 414 599 q 306 583 340 599 q 244 533 271 567 q 203 449 218 500 q 188 326 188 397 m 550 -14 l 540 83 q 458 8 504 35 q 346 -18 411 -18 q 230 7 282 -18 q 140 77 178 32 q 83 185 103 122 q 63 324 63 247 q 85 468 63 403 q 147 580 107 533 q 240 652 186 626 q 358 678 294 678 q 453 658 408 678 q 540 588 497 638 l 540 901 l 422 915 l 422 964 l 639 1026 l 658 1015 l 653 818 l 653 68 l 765 50 l 765 0 l 550 -14 m 428 -282 q 361 -258 388 -282 q 335 -193 335 -233 q 361 -129 335 -154 q 428 -104 388 -104 q 494 -129 468 -104 q 521 -193 521 -154 q 494 -258 521 -233 q 428 -282 468 -282 z "},"ḏ":{"ha":788,"x_min":63,"x_max":765,"o":"m 188 326 q 242 126 188 190 q 381 61 297 61 q 462 79 426 61 q 536 142 497 97 l 536 526 q 451 583 488 568 q 379 599 414 599 q 306 583 340 599 q 244 533 271 567 q 203 449 218 500 q 188 326 188 397 m 550 -14 l 540 83 q 458 8 504 35 q 346 -18 411 -18 q 230 7 282 -18 q 140 77 178 32 q 83 185 103 122 q 63 324 63 247 q 85 468 63 403 q 147 580 107 533 q 240 652 186 626 q 358 678 294 678 q 453 658 408 678 q 540 588 497 638 l 540 901 l 422 915 l 422 964 l 639 1026 l 658 1015 l 653 818 l 653 68 l 765 50 l 765 0 l 550 -14 m 244 -244 l 244 -157 l 608 -157 l 608 -244 l 244 -244 z "},"è":{"ha":708,"x_min":63,"x_max":640,"o":"m 382 678 q 483 660 436 678 q 565 608 531 642 q 620 524 600 574 q 640 411 640 474 q 638 367 640 388 q 631 333 635 347 l 188 333 q 251 138 190 204 q 413 72 313 72 q 524 99 479 72 q 606 169 568 125 l 639 143 q 534 25 600 68 q 372 -18 468 -18 q 244 6 301 -18 q 147 73 188 29 q 85 181 107 117 q 63 324 63 244 q 88 468 63 403 q 158 580 114 533 q 259 652 201 626 q 382 678 317 678 m 374 614 q 315 602 344 614 q 259 563 285 590 q 215 494 233 536 q 190 392 196 451 l 443 392 q 509 413 493 392 q 525 464 525 433 q 513 520 525 493 q 481 568 501 547 q 433 601 461 589 q 374 614 406 614 m 431 800 l 394 774 q 310 848 351 811 q 226 924 269 885 q 188 968 197 951 q 179 1000 179 985 q 195 1040 179 1028 q 232 1053 211 1053 q 269 1040 251 1053 q 307 996 288 1028 q 370 897 340 946 q 431 800 400 849 z "},"é":{"ha":708,"x_min":63,"x_max":640,"o":"m 382 678 q 483 660 436 678 q 565 608 531 642 q 620 524 600 574 q 640 411 640 474 q 638 367 640 388 q 631 333 635 347 l 188 333 q 251 138 190 204 q 413 72 313 72 q 524 99 479 72 q 606 169 568 125 l 639 143 q 534 25 600 68 q 372 -18 468 -18 q 244 6 301 -18 q 147 73 188 29 q 85 181 107 117 q 63 324 63 244 q 88 468 63 403 q 158 580 114 533 q 259 652 201 626 q 382 678 317 678 m 374 614 q 315 602 344 614 q 259 563 285 590 q 215 494 233 536 q 190 392 196 451 l 443 392 q 509 413 493 392 q 525 464 525 433 q 513 520 525 493 q 481 568 501 547 q 433 601 461 589 q 374 614 406 614 m 313 800 q 436 996 371 897 q 474 1040 456 1028 q 511 1053 492 1053 q 547 1040 531 1053 q 564 1000 564 1028 q 555 968 564 985 q 517 924 546 951 q 433 848 474 885 q 349 774 392 811 l 313 800 z "},"ê":{"ha":708,"x_min":63,"x_max":640,"o":"m 382 678 q 483 660 436 678 q 565 608 531 642 q 620 524 600 574 q 640 411 640 474 q 638 367 640 388 q 631 333 635 347 l 188 333 q 251 138 190 204 q 413 72 313 72 q 524 99 479 72 q 606 169 568 125 l 639 143 q 534 25 600 68 q 372 -18 468 -18 q 244 6 301 -18 q 147 73 188 29 q 85 181 107 117 q 63 324 63 244 q 88 468 63 403 q 158 580 114 533 q 259 652 201 626 q 382 678 317 678 m 374 614 q 315 602 344 614 q 259 563 285 590 q 215 494 233 536 q 190 392 196 451 l 443 392 q 509 413 493 392 q 525 464 525 433 q 513 520 525 493 q 481 568 501 547 q 433 601 461 589 q 374 614 406 614 m 551 758 l 376 917 l 201 758 l 169 789 l 353 1033 l 400 1033 l 583 789 l 551 758 z "},"ě":{"ha":708,"x_min":63,"x_max":640,"o":"m 382 678 q 483 660 436 678 q 565 608 531 642 q 620 524 600 574 q 640 411 640 474 q 638 367 640 388 q 631 333 635 347 l 188 333 q 251 138 190 204 q 413 72 313 72 q 524 99 479 72 q 606 169 568 125 l 639 143 q 534 25 600 68 q 372 -18 468 -18 q 244 6 301 -18 q 147 73 188 29 q 85 181 107 117 q 63 324 63 244 q 88 468 63 403 q 158 580 114 533 q 259 652 201 626 q 382 678 317 678 m 374 614 q 315 602 344 614 q 259 563 285 590 q 215 494 233 536 q 190 392 196 451 l 443 392 q 509 413 493 392 q 525 464 525 433 q 513 520 525 493 q 481 568 501 547 q 433 601 461 589 q 374 614 406 614 m 221 1026 l 381 881 l 540 1026 l 574 999 l 432 793 l 329 793 l 188 999 l 221 1026 z "},"ë":{"ha":708,"x_min":63,"x_max":640,"o":"m 382 678 q 483 660 436 678 q 565 608 531 642 q 620 524 600 574 q 640 411 640 474 q 638 367 640 388 q 631 333 635 347 l 188 333 q 251 138 190 204 q 413 72 313 72 q 524 99 479 72 q 606 169 568 125 l 639 143 q 534 25 600 68 q 372 -18 468 -18 q 244 6 301 -18 q 147 73 188 29 q 85 181 107 117 q 63 324 63 244 q 88 468 63 403 q 158 580 114 533 q 259 652 201 626 q 382 678 317 678 m 374 614 q 315 602 344 614 q 259 563 285 590 q 215 494 233 536 q 190 392 196 451 l 443 392 q 509 413 493 392 q 525 464 525 433 q 513 520 525 493 q 481 568 501 547 q 433 601 461 589 q 374 614 406 614 m 522 828 q 463 850 488 828 q 439 907 439 872 q 463 963 439 940 q 522 986 488 986 q 580 963 556 986 q 604 907 604 940 q 580 850 604 872 q 522 828 556 828 m 231 828 q 173 850 197 828 q 149 907 149 872 q 173 963 149 940 q 231 986 197 986 q 290 963 265 986 q 314 907 314 940 q 290 850 314 872 q 231 828 265 828 z "},"ē":{"ha":708,"x_min":63,"x_max":640,"o":"m 382 678 q 483 660 436 678 q 565 608 531 642 q 620 524 600 574 q 640 411 640 474 q 638 367 640 388 q 631 333 635 347 l 188 333 q 251 138 190 204 q 413 72 313 72 q 524 99 479 72 q 606 169 568 125 l 639 143 q 534 25 600 68 q 372 -18 468 -18 q 244 6 301 -18 q 147 73 188 29 q 85 181 107 117 q 63 324 63 244 q 88 468 63 403 q 158 580 114 533 q 259 652 201 626 q 382 678 317 678 m 374 614 q 315 602 344 614 q 259 563 285 590 q 215 494 233 536 q 190 392 196 451 l 443 392 q 509 413 493 392 q 525 464 525 433 q 513 520 525 493 q 481 568 501 547 q 433 601 461 589 q 374 614 406 614 m 189 828 l 189 915 l 553 915 l 553 828 l 189 828 z "},"ė":{"ha":708,"x_min":63,"x_max":640,"o":"m 382 678 q 483 660 436 678 q 565 608 531 642 q 620 524 600 574 q 640 411 640 474 q 638 367 640 388 q 631 333 635 347 l 188 333 q 251 138 190 204 q 413 72 313 72 q 524 99 479 72 q 606 169 568 125 l 639 143 q 534 25 600 68 q 372 -18 468 -18 q 244 6 301 -18 q 147 73 188 29 q 85 181 107 117 q 63 324 63 244 q 88 468 63 403 q 158 580 114 533 q 259 652 201 626 q 382 678 317 678 m 374 614 q 315 602 344 614 q 259 563 285 590 q 215 494 233 536 q 190 392 196 451 l 443 392 q 509 413 493 392 q 525 464 525 433 q 513 520 525 493 q 481 568 501 547 q 433 601 461 589 q 374 614 406 614 m 379 818 q 313 842 339 818 q 286 907 286 867 q 313 971 286 946 q 379 996 339 996 q 446 971 419 996 q 472 907 472 946 q 446 842 472 867 q 379 818 419 818 z "},"ę":{"ha":708,"x_min":63,"x_max":640,"o":"m 351 -183 q 376 -90 351 -135 q 442 -12 401 -44 q 406 -17 424 -15 q 372 -18 389 -18 q 244 6 301 -18 q 147 74 188 29 q 85 182 107 118 q 63 328 63 246 q 88 470 63 406 q 157 581 114 535 q 258 652 200 626 q 381 678 315 678 q 483 660 435 678 q 565 607 531 642 q 620 523 600 572 q 640 410 640 474 q 638 367 640 386 q 631 333 635 347 l 188 333 q 250 139 189 206 q 414 72 311 72 q 524 99 481 72 q 606 169 567 125 l 639 143 q 595 75 619 103 q 532 18 571 47 q 465 -53 490 -15 q 439 -133 439 -92 q 466 -203 439 -178 q 535 -228 493 -228 q 567 -224 549 -228 q 607 -207 586 -219 l 624 -239 q 560 -290 597 -275 q 478 -306 524 -306 q 386 -274 421 -306 q 351 -183 351 -242 m 372 614 q 314 602 343 614 q 259 564 285 590 q 215 495 233 538 q 190 392 196 453 l 443 392 q 509 410 493 392 q 525 464 525 428 q 513 520 525 493 q 481 568 501 547 q 433 601 461 589 q 372 614 406 614 z "},"ĕ":{"ha":708,"x_min":63,"x_max":640,"o":"m 382 678 q 483 660 436 678 q 565 608 531 642 q 620 524 600 574 q 640 411 640 474 q 638 367 640 388 q 631 333 635 347 l 188 333 q 251 138 190 204 q 413 72 313 72 q 524 99 479 72 q 606 169 568 125 l 639 143 q 534 25 600 68 q 372 -18 468 -18 q 244 6 301 -18 q 147 73 188 29 q 85 181 107 117 q 63 324 63 244 q 88 468 63 403 q 158 580 114 533 q 259 652 201 626 q 382 678 317 678 m 374 614 q 315 602 344 614 q 259 563 285 590 q 215 494 233 536 q 190 392 196 451 l 443 392 q 509 413 493 392 q 525 464 525 433 q 513 520 525 493 q 481 568 501 547 q 433 601 461 589 q 374 614 406 614 m 161 1004 l 203 1019 q 263 928 224 965 q 371 890 301 890 q 479 928 440 890 q 539 1019 518 965 l 581 1004 q 560 927 576 964 q 519 862 544 890 q 456 816 493 833 q 371 799 418 799 q 285 816 322 799 q 223 862 249 833 q 181 927 197 890 q 161 1004 165 964 z "},"ế":{"ha":708,"x_min":63,"x_max":694,"o":"m 382 678 q 483 660 436 678 q 565 608 531 642 q 620 524 600 574 q 640 411 640 474 q 638 367 640 388 q 631 333 635 347 l 188 333 q 251 138 190 204 q 413 72 313 72 q 524 99 479 72 q 606 169 568 125 l 639 143 q 534 25 600 68 q 372 -18 468 -18 q 244 6 301 -18 q 147 73 188 29 q 85 181 107 117 q 63 324 63 244 q 88 468 63 403 q 158 580 114 533 q 259 652 201 626 q 382 678 317 678 m 374 614 q 315 602 344 614 q 259 563 285 590 q 215 494 233 536 q 190 392 196 451 l 443 392 q 509 413 493 392 q 525 464 525 433 q 513 520 525 493 q 481 568 501 547 q 433 601 461 589 q 374 614 406 614 m 196 744 l 169 779 l 351 939 l 399 939 l 581 779 l 554 744 l 375 847 l 196 744 m 544 882 l 510 913 l 579 1035 q 612 1077 594 1064 q 644 1090 629 1090 q 679 1078 664 1090 q 694 1042 694 1065 q 687 1013 694 1029 q 651 974 679 996 l 544 882 z "},"ệ":{"ha":708,"x_min":63,"x_max":640,"o":"m 382 678 q 483 660 436 678 q 565 608 531 642 q 620 524 600 574 q 640 411 640 474 q 638 367 640 388 q 631 333 635 347 l 188 333 q 251 138 190 204 q 413 72 313 72 q 524 99 479 72 q 606 169 568 125 l 639 143 q 534 25 600 68 q 372 -18 468 -18 q 244 6 301 -18 q 147 73 188 29 q 85 181 107 117 q 63 324 63 244 q 88 468 63 403 q 158 580 114 533 q 259 652 201 626 q 382 678 317 678 m 374 614 q 315 602 344 614 q 259 563 285 590 q 215 494 233 536 q 190 392 196 451 l 443 392 q 509 413 493 392 q 525 464 525 433 q 513 520 525 493 q 481 568 501 547 q 433 601 461 589 q 374 614 406 614 m 551 758 l 376 917 l 201 758 l 169 789 l 353 1033 l 400 1033 l 583 789 l 551 758 m 372 -282 q 306 -258 332 -282 q 279 -193 279 -233 q 306 -129 279 -154 q 372 -104 332 -104 q 439 -129 413 -104 q 465 -193 465 -154 q 439 -258 465 -233 q 372 -282 413 -282 z "},"ề":{"ha":708,"x_min":63,"x_max":640,"o":"m 382 678 q 483 660 436 678 q 565 608 531 642 q 620 524 600 574 q 640 411 640 474 q 638 367 640 388 q 631 333 635 347 l 188 333 q 251 138 190 204 q 413 72 313 72 q 524 99 479 72 q 606 169 568 125 l 639 143 q 534 25 600 68 q 372 -18 468 -18 q 244 6 301 -18 q 147 73 188 29 q 85 181 107 117 q 63 324 63 244 q 88 468 63 403 q 158 580 114 533 q 259 652 201 626 q 382 678 317 678 m 374 614 q 315 602 344 614 q 259 563 285 590 q 215 494 233 536 q 190 392 196 451 l 443 392 q 509 413 493 392 q 525 464 525 433 q 513 520 525 493 q 481 568 501 547 q 433 601 461 589 q 374 614 406 614 m 113 974 q 77 1013 85 996 q 69 1042 69 1029 q 85 1078 69 1065 q 118 1090 100 1090 q 185 1035 153 1090 l 253 913 l 219 882 l 113 974 m 196 744 l 169 779 l 351 939 l 399 939 l 581 779 l 554 744 l 375 847 l 196 744 z "},"ể":{"ha":708,"x_min":63,"x_max":676,"o":"m 382 678 q 483 660 436 678 q 565 608 531 642 q 620 524 600 574 q 640 411 640 474 q 638 367 640 388 q 631 333 635 347 l 188 333 q 251 138 190 204 q 413 72 313 72 q 524 99 479 72 q 606 169 568 125 l 639 143 q 534 25 600 68 q 372 -18 468 -18 q 244 6 301 -18 q 147 73 188 29 q 85 181 107 117 q 63 324 63 244 q 88 468 63 403 q 158 580 114 533 q 259 652 201 626 q 382 678 317 678 m 374 614 q 315 602 344 614 q 259 563 285 590 q 215 494 233 536 q 190 392 196 451 l 443 392 q 509 413 493 392 q 525 464 525 433 q 513 520 525 493 q 481 568 501 547 q 433 601 461 589 q 374 614 406 614 m 196 744 l 169 779 l 351 939 l 399 939 l 581 779 l 554 744 l 375 847 l 196 744 m 535 906 q 592 932 575 915 q 608 972 608 949 q 582 1015 608 1003 q 493 1039 556 1028 l 507 1132 q 676 993 676 1117 q 642 905 676 940 q 547 863 608 869 l 535 906 z "},"ễ":{"ha":708,"x_min":63,"x_max":640,"o":"m 382 678 q 483 660 436 678 q 565 608 531 642 q 620 524 600 574 q 640 411 640 474 q 638 367 640 388 q 631 333 635 347 l 188 333 q 251 138 190 204 q 413 72 313 72 q 524 99 479 72 q 606 169 568 125 l 639 143 q 534 25 600 68 q 372 -18 468 -18 q 244 6 301 -18 q 147 73 188 29 q 85 181 107 117 q 63 324 63 244 q 88 468 63 403 q 158 580 114 533 q 259 652 201 626 q 382 678 317 678 m 374 614 q 315 602 344 614 q 259 563 285 590 q 215 494 233 536 q 190 392 196 451 l 443 392 q 509 413 493 392 q 525 464 525 433 q 513 520 525 493 q 481 568 501 547 q 433 601 461 589 q 374 614 406 614 m 196 744 l 169 779 l 351 938 l 399 938 l 581 779 l 554 744 l 375 846 l 196 744 m 149 979 q 190 1070 157 1036 q 281 1104 222 1104 q 340 1095 317 1104 q 385 1075 363 1086 q 431 1051 408 1061 q 482 1040 454 1040 q 568 1106 542 1040 l 601 1089 q 560 999 592 1032 q 469 965 528 965 q 410 974 433 965 q 365 996 386 983 q 319 1019 343 1010 q 268 1029 296 1029 q 182 965 208 1029 l 149 979 z "},"ẹ":{"ha":708,"x_min":63,"x_max":640,"o":"m 382 678 q 483 660 436 678 q 565 608 531 642 q 620 524 600 574 q 640 411 640 474 q 638 367 640 388 q 631 333 635 347 l 188 333 q 251 138 190 204 q 413 72 313 72 q 524 99 479 72 q 606 169 568 125 l 639 143 q 534 25 600 68 q 372 -18 468 -18 q 244 6 301 -18 q 147 73 188 29 q 85 181 107 117 q 63 324 63 244 q 88 468 63 403 q 158 580 114 533 q 259 652 201 626 q 382 678 317 678 m 374 614 q 315 602 344 614 q 259 563 285 590 q 215 494 233 536 q 190 392 196 451 l 443 392 q 509 413 493 392 q 525 464 525 433 q 513 520 525 493 q 481 568 501 547 q 433 601 461 589 q 374 614 406 614 m 374 -282 q 307 -258 333 -282 q 281 -193 281 -233 q 307 -129 281 -154 q 374 -104 333 -104 q 440 -129 414 -104 q 467 -193 467 -154 q 440 -258 467 -233 q 374 -282 414 -282 z "},"ẻ":{"ha":708,"x_min":63,"x_max":640,"o":"m 382 678 q 483 660 436 678 q 565 608 531 642 q 620 524 600 574 q 640 411 640 474 q 638 367 640 388 q 631 333 635 347 l 188 333 q 251 138 190 204 q 413 72 313 72 q 524 99 479 72 q 606 169 568 125 l 639 143 q 534 25 600 68 q 372 -18 468 -18 q 244 6 301 -18 q 147 73 188 29 q 85 181 107 117 q 63 324 63 244 q 88 468 63 403 q 158 580 114 533 q 259 652 201 626 q 382 678 317 678 m 374 614 q 315 602 344 614 q 259 563 285 590 q 215 494 233 536 q 190 392 196 451 l 443 392 q 509 413 493 392 q 525 464 525 433 q 513 520 525 493 q 481 568 501 547 q 433 601 461 589 q 374 614 406 614 m 349 768 l 336 811 q 393 837 376 819 q 410 878 410 854 q 383 920 410 907 q 294 944 357 933 l 308 1038 q 478 899 478 1022 q 444 810 478 846 q 349 768 410 775 z "},"ẽ":{"ha":708,"x_min":63,"x_max":640,"o":"m 382 678 q 483 660 436 678 q 565 608 531 642 q 620 524 600 574 q 640 411 640 474 q 638 367 640 388 q 631 333 635 347 l 188 333 q 251 138 190 204 q 413 72 313 72 q 524 99 479 72 q 606 169 568 125 l 639 143 q 534 25 600 68 q 372 -18 468 -18 q 244 6 301 -18 q 147 73 188 29 q 85 181 107 117 q 63 324 63 244 q 88 468 63 403 q 158 580 114 533 q 259 652 201 626 q 382 678 317 678 m 374 614 q 315 602 344 614 q 259 563 285 590 q 215 494 233 536 q 190 392 196 451 l 443 392 q 509 413 493 392 q 525 464 525 433 q 513 520 525 493 q 481 568 501 547 q 433 601 461 589 q 374 614 406 614 m 149 814 q 191 944 160 896 q 281 993 222 993 q 338 979 315 993 q 382 946 361 965 q 428 902 406 925 q 478 879 450 879 q 529 909 510 879 q 564 990 549 939 l 601 976 q 558 847 589 896 q 469 799 528 799 q 411 813 435 799 q 368 844 388 826 q 322 889 344 867 q 272 911 300 911 q 221 882 240 911 q 186 801 201 853 l 149 814 z "},"ğ":{"ha":719,"x_min":50,"x_max":688,"o":"m 343 -268 q 517 -227 457 -268 q 576 -128 576 -186 q 544 -51 576 -82 q 438 -19 513 -19 l 275 -19 q 246 -19 260 -19 q 218 -17 232 -18 q 176 -78 189 -49 q 164 -142 164 -107 q 212 -239 164 -210 q 343 -268 260 -268 m 82 450 q 101 547 82 504 q 153 618 119 589 q 233 663 188 647 q 333 678 279 678 q 510 624 443 678 l 667 678 l 688 664 l 688 576 l 551 576 q 583 450 583 525 q 565 353 583 396 q 512 282 546 311 q 432 238 478 253 q 332 222 386 222 q 229 238 278 222 q 194 149 194 193 q 210 104 194 121 q 275 88 226 88 l 457 88 q 626 40 572 88 q 681 -92 681 -7 q 659 -181 681 -137 q 594 -257 638 -224 q 487 -311 551 -290 q 338 -332 422 -332 q 118 -285 186 -332 q 50 -164 50 -239 q 79 -81 50 -119 q 186 -6 108 -43 q 94 100 94 19 q 115 169 94 132 q 189 254 136 206 q 110 331 139 282 q 82 450 82 379 m 335 621 q 231 573 268 621 q 194 449 194 525 q 229 325 194 372 q 329 278 264 278 q 433 327 396 278 q 471 454 471 376 q 435 575 471 529 q 335 621 400 621 m 135 1004 l 176 1019 q 236 928 197 965 q 344 890 275 890 q 453 928 414 890 q 513 1019 492 965 l 554 1004 q 534 927 550 964 q 492 862 518 890 q 429 816 467 833 q 344 799 392 799 q 259 816 296 799 q 197 862 222 833 q 155 927 171 890 q 135 1004 139 964 z "},"ġ":{"ha":719,"x_min":50,"x_max":688,"o":"m 343 -268 q 517 -227 457 -268 q 576 -128 576 -186 q 544 -51 576 -82 q 438 -19 513 -19 l 275 -19 q 246 -19 260 -19 q 218 -17 232 -18 q 176 -78 189 -49 q 164 -142 164 -107 q 212 -239 164 -210 q 343 -268 260 -268 m 82 450 q 101 547 82 504 q 153 618 119 589 q 233 663 188 647 q 333 678 279 678 q 510 624 443 678 l 667 678 l 688 664 l 688 576 l 551 576 q 583 450 583 525 q 565 353 583 396 q 512 282 546 311 q 432 238 478 253 q 332 222 386 222 q 229 238 278 222 q 194 149 194 193 q 210 104 194 121 q 275 88 226 88 l 457 88 q 626 40 572 88 q 681 -92 681 -7 q 659 -181 681 -137 q 594 -257 638 -224 q 487 -311 551 -290 q 338 -332 422 -332 q 118 -285 186 -332 q 50 -164 50 -239 q 79 -81 50 -119 q 186 -6 108 -43 q 94 100 94 19 q 115 169 94 132 q 189 254 136 206 q 110 331 139 282 q 82 450 82 379 m 335 621 q 231 573 268 621 q 194 449 194 525 q 229 325 194 372 q 329 278 264 278 q 433 327 396 278 q 471 454 471 376 q 435 575 471 529 q 335 621 400 621 m 340 818 q 274 842 300 818 q 247 907 247 867 q 274 971 247 946 q 340 996 300 996 q 407 971 381 996 q 433 907 433 946 q 407 842 433 867 q 340 818 381 818 z "},"ģ":{"ha":719,"x_min":50,"x_max":688,"o":"m 343 -268 q 517 -227 457 -268 q 576 -128 576 -186 q 544 -51 576 -82 q 438 -19 513 -19 l 275 -19 q 246 -19 260 -19 q 218 -17 232 -18 q 176 -78 189 -49 q 164 -142 164 -107 q 212 -239 164 -210 q 343 -268 260 -268 m 82 450 q 101 547 82 504 q 153 618 119 589 q 233 663 188 647 q 333 678 279 678 q 510 624 443 678 l 667 678 l 688 664 l 688 576 l 551 576 q 583 450 583 525 q 565 353 583 396 q 512 282 546 311 q 432 238 478 253 q 332 222 386 222 q 229 238 278 222 q 194 149 194 193 q 210 104 194 121 q 275 88 226 88 l 457 88 q 626 40 572 88 q 681 -92 681 -7 q 659 -181 681 -137 q 594 -257 638 -224 q 487 -311 551 -290 q 338 -332 422 -332 q 118 -285 186 -332 q 50 -164 50 -239 q 79 -81 50 -119 q 186 -6 108 -43 q 94 100 94 19 q 115 169 94 132 q 189 254 136 206 q 110 331 139 282 q 82 450 82 379 m 335 621 q 231 573 268 621 q 194 449 194 525 q 229 325 194 372 q 329 278 264 278 q 433 327 396 278 q 471 454 471 376 q 435 575 471 529 q 335 621 400 621 m 272 885 q 288 950 272 921 q 328 1002 303 979 q 388 1042 354 1025 q 457 1071 421 1058 l 472 1031 q 400 994 429 1015 q 347 940 371 974 q 393 906 375 928 q 411 857 411 883 q 392 812 411 829 q 346 794 372 794 q 285 821 313 794 q 275 857 278 843 q 272 885 272 871 z "}}}
